M48
; DRILL file {KiCad 9.0.4} date 2026-03-16T00:34:22+0100
; FORMAT={-:-/ absolute / metric / decimal}
; #@! TF.CreationDate,2026-03-16T00:34:22+01:00
; #@! TF.GenerationSoftware,Kicad,Pcbnew,9.0.4
; #@! TF.FileFunction,Plated,1,4,PTH
FMAT,2
METRIC
; #@! TA.AperFunction,Plated,PTH,ViaDrill
T1C0.300
; #@! TA.AperFunction,Plated,PTH,ViaDrill
T2C0.400
; #@! TA.AperFunction,Plated,PTH,ComponentDrill
T3C0.750
; #@! TA.AperFunction,Plated,PTH,ComponentDrill
T4C0.800
; #@! TA.AperFunction,Plated,PTH,ComponentDrill
T5C1.000
; #@! TA.AperFunction,Plated,PTH,ComponentDrill
T6C3.200
%
G90
G05
T1
X89.65Y-78.275
X89.65Y-79.175
X89.75Y-76.9
X89.8Y-94.2
X90.0Y-92.75
X90.025Y-95.075
X90.05Y-90.925
X90.25Y-80.775
X90.575Y-82.1
X90.825Y-76.425
X90.95Y-91.625
X91.0Y-80.025
X91.075Y-86.4
X91.175Y-88.45
X91.25Y-81.1
X91.45Y-95.075
X91.462Y-90.036
X91.725Y-87.4
X92.0Y-84.4
X92.25Y-80.0
X92.25Y-86.2
X92.275Y-95.225
X92.625Y-76.475
X92.825Y-92.3
X93.1Y-87.375
X93.175Y-81.2
X93.225Y-86.025
X93.6Y-95.6
X93.875Y-90.475
X94.05Y-76.525
X94.138Y-89.548
X94.55Y-81.225
X95.2Y-95.575
X95.35Y-88.1
X95.65Y-76.575
X96.225Y-85.65
X96.55Y-88.1
X96.9Y-76.6
X96.975Y-82.237
X97.225Y-95.575
X97.25Y-86.425
X97.275Y-84.65
X97.7Y-88.05
X99.075Y-76.575
X99.225Y-95.6
X101.025Y-88.525
X101.2Y-86.95
X101.475Y-76.65
X101.575Y-95.55
X101.6Y-85.425
X101.725Y-81.4
X102.4Y-86.9
X102.675Y-87.95
X102.7Y-76.575
X103.2Y-92.325
X103.375Y-81.2
X103.375Y-82.162
X103.45Y-85.6
X103.675Y-95.625
X104.2Y-76.5
X104.4Y-86.7
X104.75Y-85.55
X104.85Y-81.225
X104.875Y-82.162
X105.6Y-76.45
X105.7Y-85.425
X106.7Y-76.375
X106.75Y-83.9
X107.325Y-85.125
X107.725Y-90.675
X108.1Y-80.775
X108.25Y-76.45
X108.7Y-81.84
X108.95Y-85.7
X109.05Y-82.6
X109.35Y-75.7
X110.55Y-91.376
X111.2Y-80.3
X111.2Y-81.149
X111.8Y-91.662
X111.954Y-79.97
X112.85Y-79.8
X113.175Y-85.95
X113.425Y-86.95
X114.05Y-85.25
X114.201Y-83.503
X114.35Y-80.125
X114.441Y-81.847
X114.45Y-77.5
X114.875Y-87.175
X115.0Y-86.025
X115.125Y-80.05
X115.2Y-82.1
X116.1Y-87.65
X116.3Y-86.863
X116.364Y-79.934
X117.8Y-85.55
X118.175Y-90.85
X118.55Y-89.7
X119.2Y-80.85
X119.299Y-89.42
X120.9Y-81.6
X122.7Y-85.66
X123.55Y-77.55
X124.075Y-80.35
X124.6Y-84.45
X125.025Y-81.35
X125.35Y-83.0
X125.825Y-85.875
X125.95Y-88.75
X126.075Y-77.6
X126.175Y-80.15
X126.75Y-87.05
X126.8Y-83.25
X126.9Y-80.95
X127.575Y-84.275
X128.125Y-80.1
X128.175Y-81.925
X129.175Y-83.2
X129.775Y-81.3
X130.475Y-81.875
X130.7Y-95.3
X130.975Y-90.125
X131.025Y-88.875
X131.1Y-84.2
X131.2Y-83.025
X131.225Y-86.65
X131.525Y-87.725
X131.675Y-91.275
X131.925Y-83.975
X131.95Y-95.4
X132.125Y-80.575
X132.137Y-85.588
X132.675Y-83.025
X132.975Y-88.85
X132.975Y-90.15
X133.2Y-80.275
X133.575Y-95.275
X133.7Y-77.2
X133.775Y-91.25
X134.6Y-79.8
X135.025Y-80.65
X135.225Y-95.275
X135.825Y-85.675
X136.2Y-91.825
X136.375Y-81.2
X136.45Y-86.325
X137.1Y-86.926
X137.425Y-84.275
X137.6Y-88.525
X137.825Y-95.35
X137.925Y-81.75
X138.4Y-82.925
X138.85Y-88.05
X139.0Y-76.6
X139.2Y-90.3
X139.25Y-92.075
X139.25Y-94.775
X139.325Y-93.55
X139.6Y-83.7
X150.75Y-88.052
X151.075Y-84.427
X153.075Y-84.962
X153.2Y-88.784
X154.4Y-88.052
X155.725Y-88.127
T2
X136.3Y-79.9
T3
X87.375Y-82.975
X87.375Y-84.975
X87.375Y-86.975
X87.375Y-88.975
T4
X91.6Y-78.2
X91.6Y-93.44
X94.14Y-78.2
X94.14Y-93.44
X96.68Y-78.2
X96.68Y-93.44
X99.22Y-78.2
X99.22Y-93.44
X101.76Y-78.2
X101.76Y-93.44
X104.3Y-78.2
X104.3Y-93.44
X106.84Y-78.2
X106.84Y-93.44
X109.38Y-78.2
X109.38Y-93.44
X111.92Y-78.2
X111.92Y-93.44
X117.2Y-78.2
X117.2Y-93.44
X119.74Y-78.2
X119.74Y-93.44
X122.28Y-78.2
X122.28Y-93.44
X124.82Y-78.2
X124.82Y-93.44
X127.36Y-78.2
X127.36Y-93.44
X129.9Y-78.2
X129.9Y-93.44
X132.44Y-78.2
X132.44Y-93.44
X134.98Y-78.2
X134.98Y-93.44
X137.52Y-78.2
X137.52Y-93.44
T5
X122.623Y-90.052
X124.419Y-88.256
T6
X86.1Y-72.8
X86.1Y-98.8
X143.1Y-72.8
X143.1Y-98.8
M30
