%TF.GenerationSoftware,KiCad,Pcbnew,9.0.4*%
%TF.CreationDate,2026-03-16T00:34:21+01:00*%
%TF.ProjectId,SDT_board,5344545f-626f-4617-9264-2e6b69636164,1.0*%
%TF.SameCoordinates,Original*%
%TF.FileFunction,Copper,L4,Bot*%
%TF.FilePolarity,Positive*%
%FSLAX46Y46*%
G04 Gerber Fmt 4.6, Leading zero omitted, Abs format (unit mm)*
G04 Created by KiCad (PCBNEW 9.0.4) date 2026-03-16 00:34:21*
%MOMM*%
%LPD*%
G01*
G04 APERTURE LIST*
G04 Aperture macros list*
%AMRoundRect*
0 Rectangle with rounded corners*
0 $1 Rounding radius*
0 $2 $3 $4 $5 $6 $7 $8 $9 X,Y pos of 4 corners*
0 Add a 4 corners polygon primitive as box body*
4,1,4,$2,$3,$4,$5,$6,$7,$8,$9,$2,$3,0*
0 Add four circle primitives for the rounded corners*
1,1,$1+$1,$2,$3*
1,1,$1+$1,$4,$5*
1,1,$1+$1,$6,$7*
1,1,$1+$1,$8,$9*
0 Add four rect primitives between the rounded corners*
20,1,$1+$1,$2,$3,$4,$5,0*
20,1,$1+$1,$4,$5,$6,$7,0*
20,1,$1+$1,$6,$7,$8,$9,0*
20,1,$1+$1,$8,$9,$2,$3,0*%
%AMRotRect*
0 Rectangle, with rotation*
0 The origin of the aperture is its center*
0 $1 length*
0 $2 width*
0 $3 Rotation angle, in degrees counterclockwise*
0 Add horizontal line*
21,1,$1,$2,0,0,$3*%
G04 Aperture macros list end*
%TA.AperFunction,ComponentPad*%
%ADD10C,6.400000*%
%TD*%
%TA.AperFunction,ComponentPad*%
%ADD11RotRect,1.700000X1.700000X135.000000*%
%TD*%
%TA.AperFunction,ComponentPad*%
%ADD12C,1.700000*%
%TD*%
%TA.AperFunction,ComponentPad*%
%ADD13RoundRect,0.250000X-0.625000X0.350000X-0.625000X-0.350000X0.625000X-0.350000X0.625000X0.350000X0*%
%TD*%
%TA.AperFunction,ComponentPad*%
%ADD14O,1.750000X1.200000*%
%TD*%
%TA.AperFunction,ComponentPad*%
%ADD15R,1.600000X1.600000*%
%TD*%
%TA.AperFunction,ComponentPad*%
%ADD16O,1.600000X1.600000*%
%TD*%
%TA.AperFunction,SMDPad,CuDef*%
%ADD17R,0.300000X1.400000*%
%TD*%
%TA.AperFunction,SMDPad,CuDef*%
%ADD18R,2.650000X2.300000*%
%TD*%
%TA.AperFunction,ViaPad*%
%ADD19C,0.600000*%
%TD*%
%TA.AperFunction,ViaPad*%
%ADD20C,0.900000*%
%TD*%
%TA.AperFunction,Conductor*%
%ADD21C,0.200000*%
%TD*%
G04 APERTURE END LIST*
D10*
%TO.P,H1,1,1*%
%TO.N,GND*%
X86100000Y-98800000D03*
%TD*%
%TO.P,H2,1,1*%
%TO.N,GND*%
X143100000Y-72800000D03*
%TD*%
%TO.P,H3,1,1*%
%TO.N,GND*%
X86100000Y-72800000D03*
%TD*%
D11*
%TO.P,J3,1,Pin_1*%
%TO.N,/SWCLK*%
X122623439Y-90051561D03*
D12*
%TO.P,J3,2,Pin_2*%
%TO.N,+3.3V*%
X124419490Y-88255510D03*
%TD*%
D13*
%TO.P,J1,1,VBUS*%
%TO.N,Net-(J1-VBUS)*%
X87375000Y-82975000D03*
D14*
%TO.P,J1,2,D-*%
%TO.N,/DN*%
X87375000Y-84975000D03*
%TO.P,J1,3,D+*%
%TO.N,/DP*%
X87375000Y-86975000D03*
%TO.P,J1,4,GND*%
%TO.N,GND*%
X87375000Y-88975000D03*
%TD*%
D10*
%TO.P,H4,1,1*%
%TO.N,GND*%
X143100000Y-98800000D03*
%TD*%
D15*
%TO.P,D1,1,~{CE1}*%
%TO.N,/CE1_1*%
X117200000Y-78200000D03*
D16*
%TO.P,D1,2,~{CE2}*%
%TO.N,/CE2_1*%
X119740000Y-78200000D03*
%TO.P,D1,3,~{CLR}*%
%TO.N,/CLR*%
X122280000Y-78200000D03*
%TO.P,D1,4,CUE*%
%TO.N,GND*%
X124820000Y-78200000D03*
%TO.P,D1,5,~{CU}*%
X127360000Y-78200000D03*
%TO.P,D1,6,~{WR}*%
%TO.N,/WR*%
X129900000Y-78200000D03*
%TO.P,D1,7,A1*%
%TO.N,/A1*%
X132440000Y-78200000D03*
%TO.P,D1,8,A0*%
%TO.N,/A0*%
X134980000Y-78200000D03*
%TO.P,D1,9,VCC*%
%TO.N,+5V*%
X137520000Y-78200000D03*
%TO.P,D1,10,GND*%
%TO.N,GND*%
X137520000Y-93440000D03*
%TO.P,D1,11,D0*%
%TO.N,/D0*%
X134980000Y-93440000D03*
%TO.P,D1,12,D1*%
%TO.N,/D1*%
X132440000Y-93440000D03*
%TO.P,D1,13,D2*%
%TO.N,/D2*%
X129900000Y-93440000D03*
%TO.P,D1,14,D3*%
%TO.N,/D3*%
X127360000Y-93440000D03*
%TO.P,D1,15,D6*%
%TO.N,/D6*%
X124820000Y-93440000D03*
%TO.P,D1,16,D5*%
%TO.N,/D5*%
X122280000Y-93440000D03*
%TO.P,D1,17,D4*%
%TO.N,/D4*%
X119740000Y-93440000D03*
%TO.P,D1,18,~{BL}*%
%TO.N,/BL*%
X117200000Y-93440000D03*
%TD*%
D17*
%TO.P,J5,1,1*%
%TO.N,+3.3V*%
X152200000Y-87726777D03*
%TO.P,J5,2,2*%
%TO.N,/SDA*%
X152700000Y-87726777D03*
%TO.P,J5,3,3*%
%TO.N,/SCL*%
X153200000Y-87726777D03*
%TO.P,J5,4,4*%
%TO.N,GND*%
X153700000Y-87726777D03*
D18*
%TO.P,J5,5,MP1*%
X150425000Y-86476777D03*
%TO.P,J5,6,MP2*%
X155475000Y-86476777D03*
%TD*%
D15*
%TO.P,D4,1,~{CE1}*%
%TO.N,/CE1_2*%
X91600000Y-78200000D03*
D16*
%TO.P,D4,2,~{CE2}*%
%TO.N,/CE2_2*%
X94140000Y-78200000D03*
%TO.P,D4,3,~{CLR}*%
%TO.N,/CLR*%
X96680000Y-78200000D03*
%TO.P,D4,4,CUE*%
%TO.N,GND*%
X99220000Y-78200000D03*
%TO.P,D4,5,~{CU}*%
X101760000Y-78200000D03*
%TO.P,D4,6,~{WR}*%
%TO.N,/WR*%
X104300000Y-78200000D03*
%TO.P,D4,7,A1*%
%TO.N,/A1*%
X106840000Y-78200000D03*
%TO.P,D4,8,A0*%
%TO.N,/A0*%
X109380000Y-78200000D03*
%TO.P,D4,9,VCC*%
%TO.N,+5V*%
X111920000Y-78200000D03*
%TO.P,D4,10,GND*%
%TO.N,GND*%
X111920000Y-93440000D03*
%TO.P,D4,11,D0*%
%TO.N,/D0*%
X109380000Y-93440000D03*
%TO.P,D4,12,D1*%
%TO.N,/D1*%
X106840000Y-93440000D03*
%TO.P,D4,13,D2*%
%TO.N,/D2*%
X104300000Y-93440000D03*
%TO.P,D4,14,D3*%
%TO.N,/D3*%
X101760000Y-93440000D03*
%TO.P,D4,15,D6*%
%TO.N,/D6*%
X99220000Y-93440000D03*
%TO.P,D4,16,D5*%
%TO.N,/D5*%
X96680000Y-93440000D03*
%TO.P,D4,17,D4*%
%TO.N,/D4*%
X94140000Y-93440000D03*
%TO.P,D4,18,~{BL}*%
%TO.N,/BL*%
X91600000Y-93440000D03*
%TD*%
D19*
%TO.N,+5V*%
X94137920Y-89548078D03*
X96975000Y-82237500D03*
%TO.N,GND*%
X137425000Y-84275000D03*
X93175000Y-81200000D03*
X126075000Y-77600000D03*
X126750000Y-87050000D03*
X93100000Y-87375000D03*
X115125000Y-80050000D03*
X108250000Y-76450000D03*
X115000000Y-86025000D03*
X103375000Y-81200000D03*
X133200000Y-80275000D03*
X118175000Y-90850000D03*
X90950000Y-91625000D03*
X91450000Y-95075000D03*
X101025000Y-88525000D03*
X131525000Y-87725000D03*
X137600000Y-88525000D03*
X102675000Y-87950000D03*
X137925000Y-81750000D03*
X101475000Y-76650000D03*
X131675000Y-91275000D03*
X89800000Y-94200000D03*
X139000000Y-76600000D03*
X132125000Y-80575000D03*
X91000000Y-80025000D03*
X92625000Y-76475000D03*
X106700000Y-76375000D03*
X97275000Y-84650000D03*
X109350000Y-75700000D03*
X91725000Y-87400000D03*
X130475000Y-81875000D03*
X92250000Y-86200000D03*
X101725000Y-81400000D03*
X133775000Y-91250000D03*
X90025000Y-95075000D03*
X104850000Y-81225000D03*
X129775000Y-81300000D03*
X99225000Y-95600000D03*
X103375000Y-82162500D03*
X136375000Y-81200000D03*
X139250000Y-94775000D03*
X119200000Y-80850000D03*
X154400000Y-88051777D03*
X93875000Y-90475000D03*
X125025000Y-81350000D03*
X103450000Y-85600000D03*
X104400000Y-86700000D03*
X131100000Y-84200000D03*
X89750000Y-76900000D03*
X94550000Y-81225000D03*
X136200000Y-91825000D03*
X89650000Y-78275000D03*
X101575000Y-95550000D03*
X94050000Y-76525000D03*
D20*
X136300000Y-79900000D03*
D19*
X133700000Y-77200000D03*
X93225000Y-86025000D03*
X114875000Y-87175000D03*
X101600000Y-85425000D03*
X114450000Y-77500000D03*
X135225000Y-95275000D03*
X105700000Y-85425000D03*
X90825000Y-76425000D03*
X126175000Y-80150000D03*
X139325000Y-93550000D03*
X90050000Y-90925000D03*
X131925000Y-83975000D03*
X127575000Y-84275000D03*
X104200000Y-76500000D03*
X95350000Y-88100000D03*
X124600000Y-84450000D03*
X131200000Y-83025000D03*
X96225000Y-85650000D03*
X105600000Y-76450000D03*
X102400000Y-86900000D03*
X103200000Y-92325000D03*
X138850000Y-88050000D03*
X107725000Y-90675000D03*
X97700000Y-88050000D03*
X113175000Y-85950000D03*
X124075000Y-80350000D03*
X103675000Y-95625000D03*
X90250000Y-80775000D03*
X102700000Y-76575000D03*
X139600000Y-83700000D03*
X139250000Y-92075000D03*
X101200000Y-86950000D03*
X132675000Y-83025000D03*
X92250000Y-80000000D03*
X135025000Y-80650000D03*
X131950000Y-95400000D03*
X95200000Y-95575000D03*
X126800000Y-83250000D03*
X93600000Y-95600000D03*
X123550000Y-77550000D03*
X91250000Y-81100000D03*
X132975000Y-88850000D03*
X91462115Y-90036414D03*
X90575000Y-82100000D03*
X108100000Y-80775000D03*
X90000000Y-92750000D03*
X128125000Y-80100000D03*
X92000000Y-84400000D03*
X125950000Y-88750000D03*
X133575000Y-95275000D03*
X126900000Y-80950000D03*
X114350000Y-80125000D03*
X125350000Y-83000000D03*
X104875000Y-82162500D03*
X150750000Y-88051777D03*
X134600000Y-79800000D03*
X139200000Y-90300000D03*
X113425000Y-86950000D03*
X129175000Y-83200000D03*
X132975000Y-90150000D03*
X97250000Y-86425000D03*
X91075000Y-86400000D03*
X91175000Y-88450000D03*
X104750000Y-85550000D03*
X96900000Y-76600000D03*
X89650000Y-79175000D03*
X92275000Y-95225000D03*
X130700000Y-95300000D03*
X96550000Y-88100000D03*
X137825000Y-95350000D03*
X131225000Y-86650000D03*
X99075000Y-76575000D03*
X92825000Y-92300000D03*
X97225000Y-95575000D03*
X95650000Y-76575000D03*
X138400000Y-82925000D03*
X128175000Y-81925000D03*
%TO.N,+3.3V*%
X120900000Y-81600000D03*
X153075000Y-84962500D03*
X137100000Y-86926000D03*
X122700000Y-85659530D03*
X130975000Y-90125000D03*
X106750000Y-83900000D03*
%TO.N,/nRESET*%
X131025000Y-88875000D03*
X116363750Y-79933678D03*
%TO.N,/WR*%
X108700000Y-81839735D03*
%TO.N,/CE2_1*%
X116300000Y-86862892D03*
%TO.N,/CLR*%
X109050000Y-82600000D03*
%TO.N,/D0*%
X115200000Y-82100000D03*
%TO.N,/D6*%
X114050000Y-85250000D03*
X111200000Y-81148530D03*
%TO.N,/D2*%
X112850000Y-79800000D03*
%TO.N,/D4*%
X114201240Y-83502710D03*
%TO.N,/D5*%
X111200000Y-80300000D03*
X107325000Y-85125000D03*
%TO.N,/CE1_1*%
X116100000Y-87650000D03*
%TO.N,/BL*%
X117800000Y-85550000D03*
%TO.N,/D1*%
X114440925Y-81847396D03*
%TO.N,/D3*%
X111953967Y-79970397D03*
X108950000Y-85700000D03*
%TO.N,/CE1_2*%
X118550000Y-89700000D03*
%TO.N,/CE2_2*%
X119299397Y-89419986D03*
%TO.N,/SCL*%
X153199988Y-88783862D03*
X132136765Y-85588235D03*
X125825000Y-85875000D03*
X135825000Y-85675000D03*
%TO.N,/SDA*%
X155725000Y-88126779D03*
X151075000Y-84426777D03*
X136450000Y-86325000D03*
%TO.N,/D+*%
X110550210Y-91376000D03*
X111800000Y-91662500D03*
%TD*%
D21*
%TO.N,+5V*%
X94137920Y-85074580D02*
X96975000Y-82237500D01*
X94137920Y-89548078D02*
X94137920Y-85074580D01*
%TO.N,GND*%
X154025000Y-88051777D02*
X153700000Y-87726777D01*
X150425000Y-86476777D02*
X150425000Y-87726777D01*
X154400000Y-88051777D02*
X154025000Y-88051777D01*
X155475000Y-86476777D02*
X155475000Y-86976777D01*
X155475000Y-86976777D02*
X154400000Y-88051777D01*
X150425000Y-87726777D02*
X150750000Y-88051777D01*
%TO.N,+3.3V*%
X152200000Y-85837500D02*
X153075000Y-84962500D01*
X130975000Y-90125000D02*
X130300000Y-89450000D01*
X152200000Y-87726777D02*
X152200000Y-85837500D01*
X130300000Y-89450000D02*
X125613980Y-89450000D01*
X122700000Y-86536020D02*
X124419490Y-88255510D01*
X125613980Y-89450000D02*
X124419490Y-88255510D01*
X122700000Y-85659530D02*
X122700000Y-86536020D01*
%TO.N,/nRESET*%
X127150000Y-88875000D02*
X131025000Y-88875000D01*
X123225000Y-84950000D02*
X127150000Y-88875000D01*
X116363750Y-81938750D02*
X119375000Y-84950000D01*
X116363750Y-81938750D02*
X116363750Y-79933678D01*
X119375000Y-84950000D02*
X123225000Y-84950000D01*
%TO.N,/WR*%
X107939735Y-81839735D02*
X104300000Y-78200000D01*
X108700000Y-81839735D02*
X107939735Y-81839735D01*
%TO.N,/CLR*%
X101430000Y-82950000D02*
X96680000Y-78200000D01*
X108700000Y-82950000D02*
X101430000Y-82950000D01*
X109050000Y-82600000D02*
X108700000Y-82950000D01*
%TO.N,/D0*%
X134980000Y-93440000D02*
X133879000Y-92339000D01*
X121864000Y-92339000D02*
X120437500Y-90912500D01*
X114407025Y-82448396D02*
X114851604Y-82448396D01*
X120437500Y-90912500D02*
X120437500Y-89637500D01*
X108550000Y-92610000D02*
X108550000Y-88305421D01*
X115200000Y-84400000D02*
X115200000Y-82100000D01*
X109380000Y-93440000D02*
X108550000Y-92610000D01*
X120437500Y-89637500D02*
X115200000Y-84400000D01*
X114851604Y-82448396D02*
X115200000Y-82100000D01*
X108550000Y-88305421D02*
X114407025Y-82448396D01*
X133879000Y-92339000D02*
X121864000Y-92339000D01*
%TO.N,/D6*%
X111200000Y-81350000D02*
X111800000Y-81950000D01*
X102792100Y-90957900D02*
X101702100Y-90957900D01*
X111200000Y-81148530D02*
X111200000Y-81350000D01*
X101702100Y-90957900D02*
X99220000Y-93440000D01*
X111800000Y-81950000D02*
X102792100Y-90957900D01*
%TO.N,/D2*%
X112800000Y-80050000D02*
X113850000Y-81100000D01*
X113850000Y-81700000D02*
X104300000Y-91250000D01*
X104300000Y-91250000D02*
X104300000Y-93440000D01*
X112850000Y-79800000D02*
X112800000Y-79850000D01*
X112800000Y-79850000D02*
X112800000Y-80050000D01*
X113850000Y-81100000D02*
X113850000Y-81700000D01*
%TO.N,/A1*%
X107349000Y-78200000D02*
X106840000Y-78200000D01*
X130938000Y-76698000D02*
X108851000Y-76698000D01*
X132440000Y-78200000D02*
X130938000Y-76698000D01*
X108851000Y-76698000D02*
X107349000Y-78200000D01*
%TO.N,/A0*%
X133879000Y-79301000D02*
X114578050Y-79301000D01*
X114578050Y-79301000D02*
X112376050Y-77099000D01*
X110481000Y-77099000D02*
X109380000Y-78200000D01*
X134980000Y-78200000D02*
X133879000Y-79301000D01*
X112376050Y-77099000D02*
X110481000Y-77099000D01*
%TO.N,/D4*%
X118639000Y-92339000D02*
X114578050Y-92339000D01*
X114197290Y-83502710D02*
X109150000Y-88550000D01*
X112376050Y-94541000D02*
X110309000Y-94541000D01*
X110650000Y-92850000D02*
X110650000Y-94200000D01*
X109150000Y-91350000D02*
X110650000Y-92850000D01*
X114578050Y-92339000D02*
X112376050Y-94541000D01*
X119740000Y-93440000D02*
X118639000Y-92339000D01*
X114201240Y-83502710D02*
X114197290Y-83502710D01*
X109150000Y-88550000D02*
X109150000Y-91350000D01*
X110309000Y-94541000D02*
X95241000Y-94541000D01*
X110650000Y-94200000D02*
X110309000Y-94541000D01*
X95241000Y-94541000D02*
X94140000Y-93440000D01*
%TO.N,/D5*%
X99845650Y-90274350D02*
X96680000Y-93440000D01*
X109651000Y-82799000D02*
X109651000Y-82848943D01*
X107325000Y-85125000D02*
X102175650Y-90274350D01*
X110549000Y-80951000D02*
X110549000Y-81901000D01*
X102175650Y-90274350D02*
X99845650Y-90274350D01*
X109651000Y-82848943D02*
X109298943Y-83201000D01*
X109249000Y-83201000D02*
X107325000Y-85125000D01*
X110549000Y-81901000D02*
X109651000Y-82799000D01*
X109298943Y-83201000D02*
X109249000Y-83201000D01*
X111200000Y-80300000D02*
X110549000Y-80951000D01*
%TO.N,/BL*%
X115698000Y-94942000D02*
X117200000Y-93440000D01*
X91600000Y-93440000D02*
X93102000Y-94942000D01*
X93102000Y-94942000D02*
X115698000Y-94942000D01*
%TO.N,/D1*%
X122475000Y-91900000D02*
X120838500Y-90263500D01*
X115601000Y-82674000D02*
X115801000Y-82474000D01*
X106840000Y-93440000D02*
X106840000Y-89448321D01*
X133541000Y-94541000D02*
X135436050Y-94541000D01*
X106840000Y-89448321D02*
X114440925Y-81847396D01*
X129843700Y-90568700D02*
X128181300Y-90568700D01*
X136081000Y-92983950D02*
X134997050Y-91900000D01*
X115450000Y-81450000D02*
X114850000Y-81450000D01*
X115801000Y-82474000D02*
X115801000Y-81801000D01*
X126850000Y-91900000D02*
X122475000Y-91900000D01*
X120838500Y-90263500D02*
X120838500Y-89463500D01*
X136081000Y-93896050D02*
X136081000Y-92983950D01*
X114452604Y-81847396D02*
X114440925Y-81847396D01*
X115601000Y-84226000D02*
X115601000Y-82674000D01*
X134997050Y-91900000D02*
X131175000Y-91900000D01*
X120838500Y-89463500D02*
X115601000Y-84226000D01*
X114850000Y-81450000D02*
X114452604Y-81847396D01*
X132440000Y-93440000D02*
X133541000Y-94541000D01*
X135436050Y-94541000D02*
X136081000Y-93896050D01*
X131175000Y-91900000D02*
X129843700Y-90568700D01*
X128181300Y-90568700D02*
X126850000Y-91900000D01*
X115801000Y-81801000D02*
X115450000Y-81450000D01*
%TO.N,/D3*%
X111970397Y-79970397D02*
X111953967Y-79970397D01*
X101760000Y-92790000D02*
X108850000Y-85700000D01*
X108950000Y-85700000D02*
X109282900Y-85700000D01*
X109282900Y-85700000D02*
X113400000Y-81582900D01*
X101760000Y-93440000D02*
X101760000Y-92790000D01*
X113400000Y-81582900D02*
X113400000Y-81400000D01*
X108850000Y-85700000D02*
X108950000Y-85700000D01*
X113400000Y-81400000D02*
X111970397Y-79970397D01*
%TO.N,/SCL*%
X125825000Y-85875000D02*
X126211300Y-85488700D01*
X132037230Y-85488700D02*
X132136765Y-85588235D01*
X153199988Y-87726789D02*
X153200000Y-87726777D01*
X126211300Y-85488700D02*
X132037230Y-85488700D01*
X153199988Y-88783862D02*
X153199988Y-87726789D01*
%TO.N,/SDA*%
X153323943Y-84361500D02*
X151140277Y-84361500D01*
X152700000Y-86187443D02*
X153750000Y-85137443D01*
X151140277Y-84361500D02*
X151075000Y-84426777D01*
X152700000Y-87726777D02*
X152700000Y-86187443D01*
X153750000Y-85137443D02*
X153750000Y-84787557D01*
X153750000Y-84787557D02*
X153323943Y-84361500D01*
%TO.N,/D+*%
X111687500Y-91662500D02*
X111600000Y-91575000D01*
X110625000Y-91575000D02*
X110550210Y-91500210D01*
X111800000Y-91662500D02*
X111687500Y-91662500D01*
X110550210Y-91500210D02*
X110550210Y-91376000D01*
X111600000Y-91575000D02*
X110625000Y-91575000D01*
%TD*%
%TA.AperFunction,Conductor*%
%TO.N,GND*%
G36*
X103818834Y-91400072D02*
G01*
X103874767Y-91441944D01*
X103899184Y-91507408D01*
X103899500Y-91516254D01*
X103899500Y-92332958D01*
X103879815Y-92399997D01*
X103831794Y-92443443D01*
X103723213Y-92498766D01*
X103642687Y-92557273D01*
X103583072Y-92600586D01*
X103583070Y-92600588D01*
X103583069Y-92600588D01*
X103460588Y-92723069D01*
X103460588Y-92723070D01*
X103460586Y-92723072D01*
X103422263Y-92775819D01*
X103358768Y-92863211D01*
X103280128Y-93017552D01*
X103280127Y-93017554D01*
X103280127Y-93017555D01*
X103263977Y-93067259D01*
X103226597Y-93182302D01*
X103199500Y-93353389D01*
X103199500Y-93526610D01*
X103226597Y-93697697D01*
X103226597Y-93697699D01*
X103226598Y-93697701D01*
X103264256Y-93813600D01*
X103280128Y-93862447D01*
X103329938Y-93960205D01*
X103342834Y-94028874D01*
X103316558Y-94093615D01*
X103259451Y-94133872D01*
X103219453Y-94140500D01*
X102840547Y-94140500D01*
X102773508Y-94120815D01*
X102727753Y-94068011D01*
X102717809Y-93998853D01*
X102730062Y-93960205D01*
X102740561Y-93939599D01*
X102779873Y-93862445D01*
X102833402Y-93697701D01*
X102860500Y-93526611D01*
X102860500Y-93353389D01*
X102833402Y-93182299D01*
X102779873Y-93017555D01*
X102701232Y-92863212D01*
X102599414Y-92723072D01*
X102584048Y-92707706D01*
X102550563Y-92646383D01*
X102555547Y-92576691D01*
X102584048Y-92532344D01*
X103197577Y-91918815D01*
X103687820Y-91428571D01*
X103749142Y-91395088D01*
X103818834Y-91400072D01*
G37*
%TD.AperFunction*%
%TA.AperFunction,Conductor*%
G36*
X108068834Y-88888394D02*
G01*
X108124767Y-88930266D01*
X108149184Y-88995730D01*
X108149500Y-89004576D01*
X108149500Y-92662726D01*
X108176793Y-92764589D01*
X108195664Y-92797273D01*
X108229520Y-92855913D01*
X108229522Y-92855915D01*
X108314006Y-92940399D01*
X108347491Y-93001722D01*
X108344256Y-93066397D01*
X108306598Y-93182297D01*
X108306597Y-93182301D01*
X108279500Y-93353389D01*
X108279500Y-93526610D01*
X108306597Y-93697697D01*
X108306597Y-93697699D01*
X108306598Y-93697701D01*
X108344256Y-93813600D01*
X108360128Y-93862447D01*
X108409938Y-93960205D01*
X108422834Y-94028874D01*
X108396558Y-94093615D01*
X108339451Y-94133872D01*
X108299453Y-94140500D01*
X107920547Y-94140500D01*
X107853508Y-94120815D01*
X107807753Y-94068011D01*
X107797809Y-93998853D01*
X107810062Y-93960205D01*
X107820561Y-93939599D01*
X107859873Y-93862445D01*
X107913402Y-93697701D01*
X107940500Y-93526611D01*
X107940500Y-93353389D01*
X107913402Y-93182299D01*
X107859873Y-93017555D01*
X107781232Y-92863212D01*
X107679414Y-92723072D01*
X107556928Y-92600586D01*
X107486858Y-92549677D01*
X107416786Y-92498766D01*
X107308206Y-92443443D01*
X107257409Y-92395469D01*
X107240500Y-92332958D01*
X107240500Y-89665576D01*
X107260185Y-89598537D01*
X107276819Y-89577895D01*
X107937819Y-88916895D01*
X107999142Y-88883410D01*
X108068834Y-88888394D01*
G37*
%TD.AperFunction*%
%TA.AperFunction,Conductor*%
G36*
X125775193Y-88067032D02*
G01*
X125781671Y-88073064D01*
X126546426Y-88837819D01*
X126579911Y-88899142D01*
X126574927Y-88968834D01*
X126533055Y-89024767D01*
X126467591Y-89049184D01*
X126458745Y-89049500D01*
X125831235Y-89049500D01*
X125764196Y-89029815D01*
X125743554Y-89013181D01*
X125525164Y-88794791D01*
X125491679Y-88733468D01*
X125494913Y-88668794D01*
X125541661Y-88524919D01*
X125544612Y-88506290D01*
X125569990Y-88346061D01*
X125569990Y-88160745D01*
X125589675Y-88093706D01*
X125642479Y-88047951D01*
X125711637Y-88038007D01*
X125775193Y-88067032D01*
G37*
%TD.AperFunction*%
%TA.AperFunction,Conductor*%
G36*
X103189594Y-78465427D02*
G01*
X103241070Y-78512671D01*
X103252814Y-78538385D01*
X103280128Y-78622449D01*
X103329950Y-78720229D01*
X103358768Y-78776788D01*
X103460586Y-78916928D01*
X103583072Y-79039414D01*
X103723212Y-79141232D01*
X103877555Y-79219873D01*
X104042299Y-79273402D01*
X104213389Y-79300500D01*
X104213390Y-79300500D01*
X104386610Y-79300500D01*
X104386611Y-79300500D01*
X104557701Y-79273402D01*
X104673602Y-79235742D01*
X104743442Y-79233748D01*
X104799600Y-79265993D01*
X106238692Y-80705084D01*
X107619253Y-82085645D01*
X107619255Y-82085648D01*
X107693822Y-82160215D01*
X107776389Y-82207885D01*
X107783907Y-82212225D01*
X107783909Y-82212227D01*
X107785144Y-82212940D01*
X107785145Y-82212941D01*
X107785147Y-82212941D01*
X107785148Y-82212942D01*
X107887008Y-82240236D01*
X107887010Y-82240236D01*
X108000058Y-82240236D01*
X108000074Y-82240235D01*
X108199902Y-82240235D01*
X108266941Y-82259920D01*
X108287583Y-82276554D01*
X108331284Y-82320255D01*
X108331286Y-82320256D01*
X108337735Y-82325205D01*
X108336219Y-82327179D01*
X108375791Y-82368684D01*
X108389011Y-82437291D01*
X108363041Y-82502155D01*
X108306125Y-82542682D01*
X108265573Y-82549500D01*
X101647255Y-82549500D01*
X101580216Y-82529815D01*
X101559574Y-82513181D01*
X98686501Y-79640108D01*
X98653016Y-79578785D01*
X98658000Y-79509093D01*
X98699872Y-79453160D01*
X98765336Y-79428743D01*
X98812501Y-79434496D01*
X98915578Y-79467988D01*
X98970000Y-79476607D01*
X98970000Y-78515686D01*
X98974394Y-78520080D01*
X99065606Y-78572741D01*
X99167339Y-78600000D01*
X99272661Y-78600000D01*
X99374394Y-78572741D01*
X99465606Y-78520080D01*
X99470000Y-78515686D01*
X99470000Y-79476606D01*
X99524421Y-79467988D01*
X99719031Y-79404754D01*
X99901349Y-79311859D01*
X100066894Y-79191582D01*
X100066895Y-79191582D01*
X100211582Y-79046895D01*
X100211582Y-79046894D01*
X100331859Y-78881349D01*
X100379515Y-78787820D01*
X100427489Y-78737024D01*
X100495310Y-78720229D01*
X100561445Y-78742766D01*
X100600485Y-78787820D01*
X100648140Y-78881349D01*
X100768417Y-79046894D01*
X100768417Y-79046895D01*
X100913104Y-79191582D01*
X101078650Y-79311859D01*
X101260968Y-79404754D01*
X101455578Y-79467988D01*
X101510000Y-79476607D01*
X101510000Y-78515686D01*
X101514394Y-78520080D01*
X101605606Y-78572741D01*
X101707339Y-78600000D01*
X101812661Y-78600000D01*
X101914394Y-78572741D01*
X102005606Y-78520080D01*
X102010000Y-78515686D01*
X102010000Y-79476606D01*
X102064421Y-79467988D01*
X102259031Y-79404754D01*
X102441349Y-79311859D01*
X102606894Y-79191582D01*
X102606895Y-79191582D01*
X102751582Y-79046895D01*
X102751582Y-79046894D01*
X102871859Y-78881349D01*
X102964755Y-78699029D01*
X103016952Y-78538386D01*
X103056389Y-78480710D01*
X103120748Y-78453512D01*
X103189594Y-78465427D01*
G37*
%TD.AperFunction*%
%TA.AperFunction,Conductor*%
G36*
X113146421Y-78445137D02*
G01*
X113179390Y-78468733D01*
X114332137Y-79621480D01*
X114423462Y-79674207D01*
X114525323Y-79701500D01*
X114630777Y-79701500D01*
X115642679Y-79701500D01*
X115709718Y-79721185D01*
X115755473Y-79773989D01*
X115765417Y-79843147D01*
X115763585Y-79852077D01*
X115763250Y-79854619D01*
X115763250Y-79854621D01*
X115763250Y-80012735D01*
X115778785Y-80070710D01*
X115804173Y-80165461D01*
X115804176Y-80165468D01*
X115883225Y-80302387D01*
X115883231Y-80302395D01*
X115926931Y-80346095D01*
X115960416Y-80407418D01*
X115963250Y-80433776D01*
X115963250Y-81097495D01*
X115943565Y-81164534D01*
X115890761Y-81210289D01*
X115821603Y-81220233D01*
X115758047Y-81191208D01*
X115751569Y-81185176D01*
X115695915Y-81129522D01*
X115695913Y-81129520D01*
X115640445Y-81097495D01*
X115604589Y-81076793D01*
X115553657Y-81063146D01*
X115502727Y-81049500D01*
X114902727Y-81049500D01*
X114797273Y-81049500D01*
X114695410Y-81076793D01*
X114604087Y-81129520D01*
X114604084Y-81129522D01*
X114523030Y-81210577D01*
X114496102Y-81225280D01*
X114470284Y-81241873D01*
X114464083Y-81242764D01*
X114461707Y-81244062D01*
X114435349Y-81246896D01*
X114374500Y-81246896D01*
X114307461Y-81227211D01*
X114261706Y-81174407D01*
X114250500Y-81122896D01*
X114250500Y-81047274D01*
X114250499Y-81047270D01*
X114248664Y-81040423D01*
X114245743Y-81029520D01*
X114223207Y-80945412D01*
X114170480Y-80854087D01*
X113447224Y-80130831D01*
X113413739Y-80069508D01*
X113415129Y-80011060D01*
X113450500Y-79879057D01*
X113450500Y-79720943D01*
X113409577Y-79568216D01*
X113364349Y-79489878D01*
X113330524Y-79431290D01*
X113330518Y-79431282D01*
X113218717Y-79319481D01*
X113218709Y-79319475D01*
X113081790Y-79240426D01*
X113081786Y-79240424D01*
X113081784Y-79240423D01*
X112929057Y-79199500D01*
X112776204Y-79199500D01*
X112709165Y-79179815D01*
X112663410Y-79127011D01*
X112653466Y-79057853D01*
X112682491Y-78994297D01*
X112688523Y-78987819D01*
X112759414Y-78916928D01*
X112861232Y-78776788D01*
X112939873Y-78622445D01*
X112973778Y-78518095D01*
X113013216Y-78460420D01*
X113077574Y-78433222D01*
X113146421Y-78445137D01*
G37*
%TD.AperFunction*%
%TA.AperFunction,Conductor*%
G36*
X116047108Y-77108123D02*
G01*
X116080055Y-77117348D01*
X116080595Y-77117956D01*
X116081374Y-77118185D01*
X116103721Y-77143975D01*
X116126471Y-77169571D01*
X116126596Y-77170374D01*
X116127129Y-77170989D01*
X116131996Y-77204843D01*
X116137285Y-77238599D01*
X116136997Y-77239624D01*
X116137073Y-77240147D01*
X116127769Y-77272586D01*
X116102416Y-77330004D01*
X116102415Y-77330008D01*
X116099736Y-77353105D01*
X116099500Y-77355135D01*
X116099500Y-78126407D01*
X116099501Y-78776500D01*
X116079816Y-78843539D01*
X116027013Y-78889294D01*
X115975501Y-78900500D01*
X114795305Y-78900500D01*
X114728266Y-78880815D01*
X114707624Y-78864181D01*
X113153624Y-77310181D01*
X113120139Y-77248858D01*
X113125123Y-77179166D01*
X113166995Y-77123233D01*
X113232459Y-77098816D01*
X113241305Y-77098500D01*
X116014335Y-77098500D01*
X116047108Y-77108123D01*
G37*
%TD.AperFunction*%
%TA.AperFunction,Conductor*%
G36*
X101439920Y-77954394D02*
G01*
X101387259Y-78045606D01*
X101360000Y-78147339D01*
X101360000Y-78252661D01*
X101387259Y-78354394D01*
X101439920Y-78445606D01*
X101444314Y-78450000D01*
X99535686Y-78450000D01*
X99540080Y-78445606D01*
X99592741Y-78354394D01*
X99620000Y-78252661D01*
X99620000Y-78147339D01*
X99592741Y-78045606D01*
X99540080Y-77954394D01*
X99535686Y-77950000D01*
X101444314Y-77950000D01*
X101439920Y-77954394D01*
G37*
%TD.AperFunction*%
%TA.AperFunction,Conductor*%
G36*
X127039920Y-77954394D02*
G01*
X126987259Y-78045606D01*
X126960000Y-78147339D01*
X126960000Y-78252661D01*
X126987259Y-78354394D01*
X127039920Y-78445606D01*
X127044314Y-78450000D01*
X125135686Y-78450000D01*
X125140080Y-78445606D01*
X125192741Y-78354394D01*
X125220000Y-78252661D01*
X125220000Y-78147339D01*
X125192741Y-78045606D01*
X125140080Y-77954394D01*
X125135686Y-77950000D01*
X127044314Y-77950000D01*
X127039920Y-77954394D01*
G37*
%TD.AperFunction*%
%TA.AperFunction,Conductor*%
G36*
X123850699Y-77118185D02*
G01*
X123896454Y-77170989D01*
X123906398Y-77240147D01*
X123877373Y-77303703D01*
X123871341Y-77310181D01*
X123828417Y-77353104D01*
X123828417Y-77353105D01*
X123708140Y-77518650D01*
X123615244Y-77700968D01*
X123563047Y-77861614D01*
X123523609Y-77919289D01*
X123459250Y-77946487D01*
X123390404Y-77934572D01*
X123338928Y-77887328D01*
X123327186Y-77861615D01*
X123299873Y-77777555D01*
X123221232Y-77623212D01*
X123119414Y-77483072D01*
X122996928Y-77360586D01*
X122944945Y-77322818D01*
X122902279Y-77267488D01*
X122896300Y-77197875D01*
X122928906Y-77136080D01*
X122989745Y-77101722D01*
X123017830Y-77098500D01*
X123783660Y-77098500D01*
X123850699Y-77118185D01*
G37*
%TD.AperFunction*%
%TA.AperFunction,Conductor*%
G36*
X126390699Y-77118185D02*
G01*
X126436454Y-77170989D01*
X126446398Y-77240147D01*
X126417373Y-77303703D01*
X126411341Y-77310181D01*
X126368417Y-77353104D01*
X126368417Y-77353105D01*
X126248140Y-77518650D01*
X126200485Y-77612179D01*
X126152510Y-77662975D01*
X126084689Y-77679770D01*
X126018554Y-77657232D01*
X125979515Y-77612179D01*
X125931859Y-77518650D01*
X125811582Y-77353105D01*
X125811582Y-77353104D01*
X125768659Y-77310181D01*
X125735174Y-77248858D01*
X125740158Y-77179166D01*
X125782030Y-77123233D01*
X125847494Y-77098816D01*
X125856340Y-77098500D01*
X126323660Y-77098500D01*
X126390699Y-77118185D01*
G37*
%TD.AperFunction*%
%TA.AperFunction,Conductor*%
G36*
X147042539Y-68820185D02*
G01*
X147088294Y-68872989D01*
X147099500Y-68924500D01*
X147099500Y-83824500D01*
X147099500Y-83825000D01*
X147099500Y-83890892D01*
X147121101Y-83971512D01*
X147121391Y-83972684D01*
X147121315Y-83974399D01*
X147125000Y-84002384D01*
X147125000Y-87647614D01*
X147120775Y-87679706D01*
X147099500Y-87759106D01*
X147099500Y-102675500D01*
X147079815Y-102742539D01*
X147027011Y-102788294D01*
X146975500Y-102799500D01*
X82224500Y-102799500D01*
X82157461Y-102779815D01*
X82111706Y-102727011D01*
X82100500Y-102675500D01*
X82100500Y-93353389D01*
X90499500Y-93353389D01*
X90499500Y-93526610D01*
X90526597Y-93697697D01*
X90526597Y-93697699D01*
X90526598Y-93697701D01*
X90580127Y-93862445D01*
X90658768Y-94016788D01*
X90760586Y-94156928D01*
X90883072Y-94279414D01*
X91023212Y-94381232D01*
X91177555Y-94459873D01*
X91342299Y-94513402D01*
X91513389Y-94540500D01*
X91513390Y-94540500D01*
X91686610Y-94540500D01*
X91686611Y-94540500D01*
X91857701Y-94513402D01*
X91973602Y-94475742D01*
X92043442Y-94473748D01*
X92099600Y-94505993D01*
X92781518Y-95187910D01*
X92781520Y-95187913D01*
X92856087Y-95262480D01*
X92901750Y-95288843D01*
X92947412Y-95315207D01*
X93049273Y-95342500D01*
X93049275Y-95342500D01*
X115750725Y-95342500D01*
X115750727Y-95342500D01*
X115852588Y-95315207D01*
X115943913Y-95262480D01*
X116700401Y-94505990D01*
X116761722Y-94472507D01*
X116826393Y-94475741D01*
X116942299Y-94513402D01*
X117113389Y-94540500D01*
X117113390Y-94540500D01*
X117286610Y-94540500D01*
X117286611Y-94540500D01*
X117457701Y-94513402D01*
X117622445Y-94459873D01*
X117776788Y-94381232D01*
X117916928Y-94279414D01*
X118039414Y-94156928D01*
X118141232Y-94016788D01*
X118219873Y-93862445D01*
X118273402Y-93697701D01*
X118300500Y-93526611D01*
X118300500Y-93353389D01*
X118273402Y-93182299D01*
X118219873Y-93017555D01*
X118170061Y-92919794D01*
X118169553Y-92917089D01*
X118167753Y-92915011D01*
X118163144Y-92882961D01*
X118157166Y-92851126D01*
X118158200Y-92848576D01*
X118157809Y-92845853D01*
X118171262Y-92816394D01*
X118183442Y-92786385D01*
X118185691Y-92784799D01*
X118186834Y-92782297D01*
X118214077Y-92764788D01*
X118240549Y-92746128D01*
X118244005Y-92745555D01*
X118245612Y-92744523D01*
X118280547Y-92739500D01*
X118421745Y-92739500D01*
X118488784Y-92759185D01*
X118509426Y-92775819D01*
X118674006Y-92940399D01*
X118707491Y-93001722D01*
X118704256Y-93066397D01*
X118666598Y-93182297D01*
X118666597Y-93182301D01*
X118639500Y-93353389D01*
X118639500Y-93526610D01*
X118666597Y-93697697D01*
X118666597Y-93697699D01*
X118666598Y-93697701D01*
X118720127Y-93862445D01*
X118798768Y-94016788D01*
X118900586Y-94156928D01*
X119023072Y-94279414D01*
X119163212Y-94381232D01*
X119317555Y-94459873D01*
X119482299Y-94513402D01*
X119653389Y-94540500D01*
X119653390Y-94540500D01*
X119826610Y-94540500D01*
X119826611Y-94540500D01*
X119997701Y-94513402D01*
X120162445Y-94459873D01*
X120316788Y-94381232D01*
X120456928Y-94279414D01*
X120579414Y-94156928D01*
X120681232Y-94016788D01*
X120759873Y-93862445D01*
X120813402Y-93697701D01*
X120840500Y-93526611D01*
X120840500Y-93353389D01*
X120813402Y-93182299D01*
X120759873Y-93017555D01*
X120681232Y-92863212D01*
X120579414Y-92723072D01*
X120456928Y-92600586D01*
X120316788Y-92498768D01*
X120162445Y-92420127D01*
X119997701Y-92366598D01*
X119997699Y-92366597D01*
X119997698Y-92366597D01*
X119846663Y-92342676D01*
X119826611Y-92339500D01*
X119653389Y-92339500D01*
X119633337Y-92342676D01*
X119482301Y-92366597D01*
X119482297Y-92366598D01*
X119366397Y-92404256D01*
X119296556Y-92406251D01*
X119240399Y-92374006D01*
X118884915Y-92018522D01*
X118884913Y-92018520D01*
X118839250Y-91992156D01*
X118793589Y-91965793D01*
X118742657Y-91952146D01*
X118691727Y-91938500D01*
X114630777Y-91938500D01*
X114525323Y-91938500D01*
X114423460Y-91965793D01*
X114332137Y-92018520D01*
X114332134Y-92018522D01*
X113337713Y-93012942D01*
X113276390Y-93046427D01*
X113206698Y-93041443D01*
X113150765Y-92999571D01*
X113132100Y-92963576D01*
X113124755Y-92940969D01*
X113031859Y-92758650D01*
X112911582Y-92593105D01*
X112911582Y-92593104D01*
X112766895Y-92448417D01*
X112601349Y-92328140D01*
X112419029Y-92235244D01*
X112348843Y-92212439D01*
X112291167Y-92173001D01*
X112263969Y-92108643D01*
X112275884Y-92039796D01*
X112279774Y-92032508D01*
X112298157Y-92000667D01*
X112359577Y-91894284D01*
X112400500Y-91741557D01*
X112400500Y-91583443D01*
X112359577Y-91430716D01*
X112357438Y-91427011D01*
X112280524Y-91293790D01*
X112280518Y-91293782D01*
X112168717Y-91181981D01*
X112168709Y-91181975D01*
X112031790Y-91102926D01*
X112031786Y-91102924D01*
X112031784Y-91102923D01*
X111879057Y-91062000D01*
X111720943Y-91062000D01*
X111568216Y-91102923D01*
X111568213Y-91102924D01*
X111473015Y-91157887D01*
X111457526Y-91162037D01*
X111445950Y-91169477D01*
X111411015Y-91174500D01*
X111198863Y-91174500D01*
X111131824Y-91154815D01*
X111091475Y-91112499D01*
X111085947Y-91102924D01*
X111030730Y-91007284D01*
X110918926Y-90895480D01*
X110918924Y-90895479D01*
X110918919Y-90895475D01*
X110782000Y-90816426D01*
X110781996Y-90816424D01*
X110781994Y-90816423D01*
X110629267Y-90775500D01*
X110471153Y-90775500D01*
X110318426Y-90816423D01*
X110318419Y-90816426D01*
X110181500Y-90895475D01*
X110181492Y-90895481D01*
X110069691Y-91007282D01*
X110069685Y-91007290D01*
X109990636Y-91144209D01*
X109990633Y-91144216D01*
X109950557Y-91293784D01*
X109949709Y-91296947D01*
X109949213Y-91300714D01*
X109947912Y-91303653D01*
X109947607Y-91304793D01*
X109947429Y-91304745D01*
X109943469Y-91313694D01*
X109942457Y-91327854D01*
X109929613Y-91345010D01*
X109920942Y-91364609D01*
X109909090Y-91372424D01*
X109900585Y-91383787D01*
X109880508Y-91391275D01*
X109862615Y-91403076D01*
X109848419Y-91403243D01*
X109835121Y-91408204D01*
X109814180Y-91403648D01*
X109792750Y-91403902D01*
X109779386Y-91396079D01*
X109766848Y-91393352D01*
X109738594Y-91372201D01*
X109586819Y-91220426D01*
X109553334Y-91159103D01*
X109550500Y-91132745D01*
X109550500Y-88767255D01*
X109570185Y-88700216D01*
X109586819Y-88679574D01*
X111389703Y-86876690D01*
X113251863Y-85014529D01*
X113313184Y-84981046D01*
X113382876Y-84986030D01*
X113438809Y-85027902D01*
X113463226Y-85093366D01*
X113459317Y-85134304D01*
X113449500Y-85170941D01*
X113449500Y-85170943D01*
X113449500Y-85329057D01*
X113467031Y-85394481D01*
X113490423Y-85481783D01*
X113490426Y-85481790D01*
X113569475Y-85618709D01*
X113569479Y-85618714D01*
X113569480Y-85618716D01*
X113681284Y-85730520D01*
X113681286Y-85730521D01*
X113681290Y-85730524D01*
X113770087Y-85781790D01*
X113818216Y-85809577D01*
X113970943Y-85850500D01*
X113970945Y-85850500D01*
X114129055Y-85850500D01*
X114129057Y-85850500D01*
X114281784Y-85809577D01*
X114418716Y-85730520D01*
X114530520Y-85618716D01*
X114609577Y-85481784D01*
X114650500Y-85329057D01*
X114650500Y-85170943D01*
X114609577Y-85018216D01*
X114609573Y-85018209D01*
X114530524Y-84881290D01*
X114530518Y-84881282D01*
X114418717Y-84769481D01*
X114418709Y-84769475D01*
X114281790Y-84690426D01*
X114281786Y-84690424D01*
X114281784Y-84690423D01*
X114129057Y-84649500D01*
X113970943Y-84649500D01*
X113970941Y-84649500D01*
X113934304Y-84659317D01*
X113864454Y-84657654D01*
X113806592Y-84618491D01*
X113779089Y-84554262D01*
X113790676Y-84485360D01*
X113814528Y-84451864D01*
X114126864Y-84139529D01*
X114188187Y-84106044D01*
X114214545Y-84103210D01*
X114280295Y-84103210D01*
X114280297Y-84103210D01*
X114433024Y-84062287D01*
X114569956Y-83983230D01*
X114587819Y-83965367D01*
X114649142Y-83931882D01*
X114718834Y-83936866D01*
X114774767Y-83978738D01*
X114799184Y-84044202D01*
X114799500Y-84053048D01*
X114799500Y-84347273D01*
X114799500Y-84452727D01*
X114808244Y-84485360D01*
X114826793Y-84554589D01*
X114837417Y-84572989D01*
X114879520Y-84645913D01*
X115704552Y-85470945D01*
X116286201Y-86052593D01*
X116319686Y-86113916D01*
X116314702Y-86183608D01*
X116272830Y-86239541D01*
X116228114Y-86257757D01*
X116228793Y-86260289D01*
X116220944Y-86262392D01*
X116220943Y-86262392D01*
X116068645Y-86303200D01*
X116068216Y-86303315D01*
X116068209Y-86303318D01*
X115931290Y-86382367D01*
X115931282Y-86382373D01*
X115819481Y-86494174D01*
X115819475Y-86494182D01*
X115740426Y-86631101D01*
X115740423Y-86631108D01*
X115699500Y-86783835D01*
X115699500Y-86941948D01*
X115735770Y-87077312D01*
X115734107Y-87147162D01*
X115703677Y-87197085D01*
X115619481Y-87281282D01*
X115619475Y-87281290D01*
X115540426Y-87418209D01*
X115540423Y-87418216D01*
X115499500Y-87570943D01*
X115499500Y-87729057D01*
X115529824Y-87842226D01*
X115540423Y-87881783D01*
X115540426Y-87881790D01*
X115619475Y-88018709D01*
X115619479Y-88018714D01*
X115619480Y-88018716D01*
X115731284Y-88130520D01*
X115731286Y-88130521D01*
X115731290Y-88130524D01*
X115790943Y-88164964D01*
X115868216Y-88209577D01*
X116020943Y-88250500D01*
X116020945Y-88250500D01*
X116179055Y-88250500D01*
X116179057Y-88250500D01*
X116331784Y-88209577D01*
X116468716Y-88130520D01*
X116580520Y-88018716D01*
X116659577Y-87881784D01*
X116700500Y-87729057D01*
X116700500Y-87570943D01*
X116664229Y-87435577D01*
X116665892Y-87365728D01*
X116696319Y-87315808D01*
X116780520Y-87231608D01*
X116859577Y-87094676D01*
X116900500Y-86941949D01*
X116900500Y-86941947D01*
X116902603Y-86934099D01*
X116905566Y-86934893D01*
X116927912Y-86884327D01*
X116986222Y-86845833D01*
X117056086Y-86844973D01*
X117110298Y-86876690D01*
X118970083Y-88736475D01*
X119003568Y-88797798D01*
X118998584Y-88867490D01*
X118968958Y-88912948D01*
X118957840Y-88923785D01*
X118930681Y-88939466D01*
X118818877Y-89051270D01*
X118808340Y-89069519D01*
X118796074Y-89081477D01*
X118779724Y-89090136D01*
X118766335Y-89102902D01*
X118749491Y-89106147D01*
X118734329Y-89114178D01*
X118715891Y-89112622D01*
X118697728Y-89116123D01*
X118677426Y-89112460D01*
X118629058Y-89099500D01*
X118629057Y-89099500D01*
X118470943Y-89099500D01*
X118318216Y-89140423D01*
X118318209Y-89140426D01*
X118181290Y-89219475D01*
X118181282Y-89219481D01*
X118069481Y-89331282D01*
X118069475Y-89331290D01*
X117990426Y-89468209D01*
X117990423Y-89468216D01*
X117949500Y-89620943D01*
X117949500Y-89779057D01*
X117986407Y-89916794D01*
X117990423Y-89931783D01*
X117990426Y-89931790D01*
X118069475Y-90068709D01*
X118069479Y-90068714D01*
X118069480Y-90068716D01*
X118181284Y-90180520D01*
X118181286Y-90180521D01*
X118181290Y-90180524D01*
X118271022Y-90232330D01*
X118318216Y-90259577D01*
X118470943Y-90300500D01*
X118470945Y-90300500D01*
X118629055Y-90300500D01*
X118629057Y-90300500D01*
X118781784Y-90259577D01*
X118918716Y-90180520D01*
X119030520Y-90068716D01*
X119032489Y-90065304D01*
X119034905Y-90063000D01*
X119035470Y-90062265D01*
X119035584Y-90062353D01*
X119083054Y-90017087D01*
X119151660Y-90003861D01*
X119171962Y-90007523D01*
X119220340Y-90020486D01*
X119220343Y-90020486D01*
X119378452Y-90020486D01*
X119378454Y-90020486D01*
X119531181Y-89979563D01*
X119668113Y-89900506D01*
X119779917Y-89788702D01*
X119787838Y-89774981D01*
X119805932Y-89757728D01*
X119820916Y-89737713D01*
X119830781Y-89734033D01*
X119838403Y-89726766D01*
X119862954Y-89722033D01*
X119886380Y-89713296D01*
X119896668Y-89715534D01*
X119907009Y-89713541D01*
X119930222Y-89722833D01*
X119954653Y-89728148D01*
X119967472Y-89737744D01*
X119971875Y-89739507D01*
X119982907Y-89749299D01*
X120000681Y-89767073D01*
X120034166Y-89828396D01*
X120037000Y-89854754D01*
X120037000Y-90965226D01*
X120064293Y-91067089D01*
X120084983Y-91102924D01*
X120117020Y-91158413D01*
X120824618Y-91866011D01*
X121473451Y-92514843D01*
X121506936Y-92576166D01*
X121501952Y-92645858D01*
X121473454Y-92690203D01*
X121440586Y-92723072D01*
X121338768Y-92863211D01*
X121260128Y-93017552D01*
X121260127Y-93017554D01*
X121260127Y-93017555D01*
X121243977Y-93067259D01*
X121206597Y-93182302D01*
X121179500Y-93353389D01*
X121179500Y-93526610D01*
X121206597Y-93697697D01*
X121206597Y-93697699D01*
X121206598Y-93697701D01*
X121260127Y-93862445D01*
X121338768Y-94016788D01*
X121440586Y-94156928D01*
X121563072Y-94279414D01*
X121703212Y-94381232D01*
X121857555Y-94459873D01*
X122022299Y-94513402D01*
X122193389Y-94540500D01*
X122193390Y-94540500D01*
X122366610Y-94540500D01*
X122366611Y-94540500D01*
X122537701Y-94513402D01*
X122702445Y-94459873D01*
X122856788Y-94381232D01*
X122996928Y-94279414D01*
X123119414Y-94156928D01*
X123221232Y-94016788D01*
X123299873Y-93862445D01*
X123353402Y-93697701D01*
X123380500Y-93526611D01*
X123380500Y-93353389D01*
X123353402Y-93182299D01*
X123299873Y-93017555D01*
X123250061Y-92919794D01*
X123237166Y-92851126D01*
X123263442Y-92786385D01*
X123320549Y-92746128D01*
X123360547Y-92739500D01*
X123739453Y-92739500D01*
X123806492Y-92759185D01*
X123852247Y-92811989D01*
X123862191Y-92881147D01*
X123849938Y-92919795D01*
X123800128Y-93017552D01*
X123800127Y-93017554D01*
X123800127Y-93017555D01*
X123783977Y-93067259D01*
X123746597Y-93182302D01*
X123719500Y-93353389D01*
X123719500Y-93526610D01*
X123746597Y-93697697D01*
X123746597Y-93697699D01*
X123746598Y-93697701D01*
X123800127Y-93862445D01*
X123878768Y-94016788D01*
X123980586Y-94156928D01*
X124103072Y-94279414D01*
X124243212Y-94381232D01*
X124397555Y-94459873D01*
X124562299Y-94513402D01*
X124733389Y-94540500D01*
X124733390Y-94540500D01*
X124906610Y-94540500D01*
X124906611Y-94540500D01*
X125077701Y-94513402D01*
X125242445Y-94459873D01*
X125396788Y-94381232D01*
X125536928Y-94279414D01*
X125659414Y-94156928D01*
X125761232Y-94016788D01*
X125839873Y-93862445D01*
X125893402Y-93697701D01*
X125920500Y-93526611D01*
X125920500Y-93353389D01*
X125893402Y-93182299D01*
X125839873Y-93017555D01*
X125790061Y-92919794D01*
X125777166Y-92851126D01*
X125803442Y-92786385D01*
X125860549Y-92746128D01*
X125900547Y-92739500D01*
X126279453Y-92739500D01*
X126346492Y-92759185D01*
X126392247Y-92811989D01*
X126402191Y-92881147D01*
X126389938Y-92919795D01*
X126340128Y-93017552D01*
X126340127Y-93017554D01*
X126340127Y-93017555D01*
X126323977Y-93067259D01*
X126286597Y-93182302D01*
X126259500Y-93353389D01*
X126259500Y-93526610D01*
X126286597Y-93697697D01*
X126286597Y-93697699D01*
X126286598Y-93697701D01*
X126340127Y-93862445D01*
X126418768Y-94016788D01*
X126520586Y-94156928D01*
X126643072Y-94279414D01*
X126783212Y-94381232D01*
X126937555Y-94459873D01*
X127102299Y-94513402D01*
X127273389Y-94540500D01*
X127273390Y-94540500D01*
X127446610Y-94540500D01*
X127446611Y-94540500D01*
X127617701Y-94513402D01*
X127782445Y-94459873D01*
X127936788Y-94381232D01*
X128076928Y-94279414D01*
X128199414Y-94156928D01*
X128301232Y-94016788D01*
X128379873Y-93862445D01*
X128433402Y-93697701D01*
X128460500Y-93526611D01*
X128460500Y-93353389D01*
X128433402Y-93182299D01*
X128379873Y-93017555D01*
X128330061Y-92919794D01*
X128317166Y-92851126D01*
X128343442Y-92786385D01*
X128400549Y-92746128D01*
X128440547Y-92739500D01*
X128819453Y-92739500D01*
X128886492Y-92759185D01*
X128932247Y-92811989D01*
X128942191Y-92881147D01*
X128929938Y-92919795D01*
X128880128Y-93017552D01*
X128880127Y-93017554D01*
X128880127Y-93017555D01*
X128863977Y-93067259D01*
X128826597Y-93182302D01*
X128799500Y-93353389D01*
X128799500Y-93526610D01*
X128826597Y-93697697D01*
X128826597Y-93697699D01*
X128826598Y-93697701D01*
X128880127Y-93862445D01*
X128958768Y-94016788D01*
X129060586Y-94156928D01*
X129183072Y-94279414D01*
X129323212Y-94381232D01*
X129477555Y-94459873D01*
X129642299Y-94513402D01*
X129813389Y-94540500D01*
X129813390Y-94540500D01*
X129986610Y-94540500D01*
X129986611Y-94540500D01*
X130157701Y-94513402D01*
X130322445Y-94459873D01*
X130476788Y-94381232D01*
X130616928Y-94279414D01*
X130739414Y-94156928D01*
X130841232Y-94016788D01*
X130919873Y-93862445D01*
X130973402Y-93697701D01*
X131000500Y-93526611D01*
X131000500Y-93353389D01*
X130973402Y-93182299D01*
X130919873Y-93017555D01*
X130870061Y-92919794D01*
X130857166Y-92851126D01*
X130883442Y-92786385D01*
X130940549Y-92746128D01*
X130980547Y-92739500D01*
X131359453Y-92739500D01*
X131426492Y-92759185D01*
X131472247Y-92811989D01*
X131482191Y-92881147D01*
X131469938Y-92919795D01*
X131420128Y-93017552D01*
X131420127Y-93017554D01*
X131420127Y-93017555D01*
X131403977Y-93067259D01*
X131366597Y-93182302D01*
X131339500Y-93353389D01*
X131339500Y-93526610D01*
X131366597Y-93697697D01*
X131366597Y-93697699D01*
X131366598Y-93697701D01*
X131420127Y-93862445D01*
X131498768Y-94016788D01*
X131600586Y-94156928D01*
X131723072Y-94279414D01*
X131863212Y-94381232D01*
X132017555Y-94459873D01*
X132182299Y-94513402D01*
X132353389Y-94540500D01*
X132353390Y-94540500D01*
X132526610Y-94540500D01*
X132526611Y-94540500D01*
X132697701Y-94513402D01*
X132813602Y-94475742D01*
X132883442Y-94473748D01*
X132939600Y-94505993D01*
X133295087Y-94861480D01*
X133386412Y-94914207D01*
X133488273Y-94941500D01*
X133488275Y-94941500D01*
X135488775Y-94941500D01*
X135488777Y-94941500D01*
X135590638Y-94914207D01*
X135681963Y-94861480D01*
X136311352Y-94232090D01*
X136372673Y-94198607D01*
X136442364Y-94203591D01*
X136498298Y-94245462D01*
X136499348Y-94246887D01*
X136528410Y-94286886D01*
X136528417Y-94286895D01*
X136673104Y-94431582D01*
X136838650Y-94551859D01*
X137020968Y-94644754D01*
X137215578Y-94707988D01*
X137270000Y-94716607D01*
X137270000Y-93755686D01*
X137274394Y-93760080D01*
X137365606Y-93812741D01*
X137467339Y-93840000D01*
X137572661Y-93840000D01*
X137674394Y-93812741D01*
X137765606Y-93760080D01*
X137770000Y-93755686D01*
X137770000Y-94716606D01*
X137824421Y-94707988D01*
X138019031Y-94644754D01*
X138201349Y-94551859D01*
X138366894Y-94431582D01*
X138366895Y-94431582D01*
X138511582Y-94286895D01*
X138511582Y-94286894D01*
X138631859Y-94121349D01*
X138724755Y-93939029D01*
X138787990Y-93744413D01*
X138796609Y-93690000D01*
X137835686Y-93690000D01*
X137840080Y-93685606D01*
X137892741Y-93594394D01*
X137920000Y-93492661D01*
X137920000Y-93387339D01*
X137892741Y-93285606D01*
X137840080Y-93194394D01*
X137835686Y-93190000D01*
X138796609Y-93190000D01*
X138787990Y-93135586D01*
X138724755Y-92940970D01*
X138631859Y-92758650D01*
X138511582Y-92593105D01*
X138511582Y-92593104D01*
X138366895Y-92448417D01*
X138201349Y-92328140D01*
X138019029Y-92235244D01*
X137824413Y-92172009D01*
X137770000Y-92163390D01*
X137770000Y-93124314D01*
X137765606Y-93119920D01*
X137674394Y-93067259D01*
X137572661Y-93040000D01*
X137467339Y-93040000D01*
X137365606Y-93067259D01*
X137274394Y-93119920D01*
X137270000Y-93124314D01*
X137270000Y-92163390D01*
X137215586Y-92172009D01*
X137020970Y-92235244D01*
X136838650Y-92328140D01*
X136673105Y-92448417D01*
X136673104Y-92448417D01*
X136528417Y-92593104D01*
X136528410Y-92593113D01*
X136499348Y-92633113D01*
X136444018Y-92675779D01*
X136374405Y-92681757D01*
X136312610Y-92649151D01*
X136311350Y-92647908D01*
X135242965Y-91579522D01*
X135242964Y-91579521D01*
X135242963Y-91579520D01*
X135197300Y-91553156D01*
X135151639Y-91526793D01*
X135100707Y-91513146D01*
X135049777Y-91499500D01*
X135049776Y-91499500D01*
X131392254Y-91499500D01*
X131325215Y-91479815D01*
X131304573Y-91463181D01*
X130773681Y-90932289D01*
X130740196Y-90870966D01*
X130745180Y-90801274D01*
X130787052Y-90745341D01*
X130852516Y-90720924D01*
X130893453Y-90724832D01*
X130895943Y-90725500D01*
X130895945Y-90725500D01*
X131054055Y-90725500D01*
X131054057Y-90725500D01*
X131206784Y-90684577D01*
X131343716Y-90605520D01*
X131455520Y-90493716D01*
X131534577Y-90356784D01*
X131575500Y-90204057D01*
X131575500Y-90045943D01*
X131534577Y-89893216D01*
X131521280Y-89870185D01*
X131455524Y-89756290D01*
X131455518Y-89756282D01*
X131343717Y-89644481D01*
X131343712Y-89644477D01*
X131304468Y-89621820D01*
X131256253Y-89571254D01*
X131243029Y-89502647D01*
X131268997Y-89437782D01*
X131304464Y-89407048D01*
X131393716Y-89355520D01*
X131505520Y-89243716D01*
X131584577Y-89106784D01*
X131625500Y-88954057D01*
X131625500Y-88795943D01*
X131584577Y-88643216D01*
X131562674Y-88605278D01*
X131505524Y-88506290D01*
X131505518Y-88506282D01*
X131393717Y-88394481D01*
X131393709Y-88394475D01*
X131256790Y-88315426D01*
X131256786Y-88315424D01*
X131256784Y-88315423D01*
X131104057Y-88274500D01*
X130945943Y-88274500D01*
X130793216Y-88315423D01*
X130793209Y-88315426D01*
X130656290Y-88394475D01*
X130656282Y-88394481D01*
X130612583Y-88438181D01*
X130551260Y-88471666D01*
X130524902Y-88474500D01*
X127367255Y-88474500D01*
X127300216Y-88454815D01*
X127279574Y-88438181D01*
X125487079Y-86645686D01*
X125453594Y-86584363D01*
X125458578Y-86514671D01*
X125500450Y-86458738D01*
X125565914Y-86434321D01*
X125606846Y-86438229D01*
X125745943Y-86475500D01*
X125745946Y-86475500D01*
X125904055Y-86475500D01*
X125904057Y-86475500D01*
X126056784Y-86434577D01*
X126193716Y-86355520D01*
X126305520Y-86243716D01*
X126384577Y-86106784D01*
X126418252Y-85981105D01*
X126454617Y-85921446D01*
X126517464Y-85890917D01*
X126538027Y-85889200D01*
X127190828Y-85889200D01*
X127257867Y-85908885D01*
X127303622Y-85961689D01*
X127313566Y-86030847D01*
X127305389Y-86060652D01*
X127281862Y-86117451D01*
X127281858Y-86117465D01*
X127253200Y-86261540D01*
X127253200Y-86408459D01*
X127281858Y-86552534D01*
X127281860Y-86552542D01*
X127283824Y-86557284D01*
X127338078Y-86688266D01*
X127338083Y-86688275D01*
X127419698Y-86810419D01*
X127419701Y-86810423D01*
X127523576Y-86914298D01*
X127523580Y-86914301D01*
X127645724Y-86995916D01*
X127645730Y-86995919D01*
X127645731Y-86995920D01*
X127781458Y-87052140D01*
X127908009Y-87077312D01*
X127925540Y-87080799D01*
X127925544Y-87080800D01*
X127925545Y-87080800D01*
X128072456Y-87080800D01*
X128072457Y-87080799D01*
X128216542Y-87052140D01*
X128352269Y-86995920D01*
X128474420Y-86914301D01*
X128578301Y-86810420D01*
X128659920Y-86688269D01*
X128716140Y-86552542D01*
X128744800Y-86408455D01*
X128744800Y-86261545D01*
X128716140Y-86117458D01*
X128713597Y-86111320D01*
X128692611Y-86060652D01*
X128685142Y-85991182D01*
X128716418Y-85928703D01*
X128776507Y-85893052D01*
X128807172Y-85889200D01*
X129222828Y-85889200D01*
X129289867Y-85908885D01*
X129335622Y-85961689D01*
X129345566Y-86030847D01*
X129337389Y-86060652D01*
X129313862Y-86117451D01*
X129313858Y-86117465D01*
X129285200Y-86261540D01*
X129285200Y-86408459D01*
X129313858Y-86552534D01*
X129313860Y-86552542D01*
X129315824Y-86557284D01*
X129370078Y-86688266D01*
X129370083Y-86688275D01*
X129451698Y-86810419D01*
X129451701Y-86810423D01*
X129555576Y-86914298D01*
X129555580Y-86914301D01*
X129677724Y-86995916D01*
X129677730Y-86995919D01*
X129677731Y-86995920D01*
X129813458Y-87052140D01*
X129940009Y-87077312D01*
X129957540Y-87080799D01*
X129957544Y-87080800D01*
X129957545Y-87080800D01*
X130104456Y-87080800D01*
X130104457Y-87080799D01*
X130248542Y-87052140D01*
X130384269Y-86995920D01*
X130506420Y-86914301D01*
X130610301Y-86810420D01*
X130691920Y-86688269D01*
X130748140Y-86552542D01*
X130776800Y-86408455D01*
X130776800Y-86261545D01*
X130748140Y-86117458D01*
X130745597Y-86111320D01*
X130724611Y-86060652D01*
X130717142Y-85991182D01*
X130748418Y-85928703D01*
X130808507Y-85893052D01*
X130839172Y-85889200D01*
X131545538Y-85889200D01*
X131612577Y-85908885D01*
X131652922Y-85951196D01*
X131656245Y-85956951D01*
X131768049Y-86068755D01*
X131768051Y-86068756D01*
X131768055Y-86068759D01*
X131852418Y-86117465D01*
X131904981Y-86147812D01*
X132057708Y-86188735D01*
X132057710Y-86188735D01*
X132215820Y-86188735D01*
X132215822Y-86188735D01*
X132368549Y-86147812D01*
X132505481Y-86068755D01*
X132617285Y-85956951D01*
X132696342Y-85820019D01*
X132737265Y-85667292D01*
X132737265Y-85595943D01*
X135224500Y-85595943D01*
X135224500Y-85754057D01*
X135261280Y-85891320D01*
X135265423Y-85906783D01*
X135265426Y-85906790D01*
X135344475Y-86043709D01*
X135344479Y-86043714D01*
X135344480Y-86043716D01*
X135456284Y-86155520D01*
X135456286Y-86155521D01*
X135456290Y-86155524D01*
X135569454Y-86220858D01*
X135593216Y-86234577D01*
X135745943Y-86275500D01*
X135745945Y-86275500D01*
X135753793Y-86277603D01*
X135753147Y-86280011D01*
X135805575Y-86303200D01*
X135844050Y-86361521D01*
X135849500Y-86397878D01*
X135849500Y-86404057D01*
X135889287Y-86552542D01*
X135890423Y-86556783D01*
X135890426Y-86556790D01*
X135969475Y-86693709D01*
X135969479Y-86693714D01*
X135969480Y-86693716D01*
X136081284Y-86805520D01*
X136081286Y-86805521D01*
X136081290Y-86805524D01*
X136204555Y-86876690D01*
X136218216Y-86884577D01*
X136370943Y-86925500D01*
X136383035Y-86925500D01*
X136450074Y-86945185D01*
X136495829Y-86997989D01*
X136502806Y-87017397D01*
X136537577Y-87147162D01*
X136540423Y-87157783D01*
X136540426Y-87157790D01*
X136619475Y-87294709D01*
X136619479Y-87294714D01*
X136619480Y-87294716D01*
X136731284Y-87406520D01*
X136731286Y-87406521D01*
X136731290Y-87406524D01*
X136781614Y-87435578D01*
X136868216Y-87485577D01*
X137020943Y-87526500D01*
X137020945Y-87526500D01*
X137179055Y-87526500D01*
X137179057Y-87526500D01*
X137331784Y-87485577D01*
X137468716Y-87406520D01*
X137580520Y-87294716D01*
X137659577Y-87157784D01*
X137700500Y-87005057D01*
X137700500Y-86846943D01*
X137659577Y-86694216D01*
X137656142Y-86688266D01*
X137580524Y-86557290D01*
X137580518Y-86557282D01*
X137468717Y-86445481D01*
X137468709Y-86445475D01*
X137331790Y-86366426D01*
X137331786Y-86366424D01*
X137331784Y-86366423D01*
X137179057Y-86325500D01*
X137179056Y-86325500D01*
X137166965Y-86325500D01*
X137099926Y-86305815D01*
X137054171Y-86253011D01*
X137047193Y-86233602D01*
X137009577Y-86093216D01*
X137004794Y-86084932D01*
X136930524Y-85956290D01*
X136930518Y-85956282D01*
X136818717Y-85844481D01*
X136818709Y-85844475D01*
X136681790Y-85765426D01*
X136681786Y-85765424D01*
X136681784Y-85765423D01*
X136529057Y-85724500D01*
X136529056Y-85724500D01*
X136521207Y-85722397D01*
X136521851Y-85719993D01*
X136469401Y-85696779D01*
X136430940Y-85638447D01*
X136425500Y-85602121D01*
X136425500Y-85595945D01*
X136425500Y-85595943D01*
X136384577Y-85443216D01*
X136384573Y-85443209D01*
X136305524Y-85306290D01*
X136305518Y-85306282D01*
X136193717Y-85194481D01*
X136193709Y-85194475D01*
X136056790Y-85115426D01*
X136056786Y-85115424D01*
X136056784Y-85115423D01*
X135904057Y-85074500D01*
X135745943Y-85074500D01*
X135593216Y-85115423D01*
X135593209Y-85115426D01*
X135456290Y-85194475D01*
X135456282Y-85194481D01*
X135344481Y-85306282D01*
X135344475Y-85306290D01*
X135265426Y-85443209D01*
X135265423Y-85443216D01*
X135224500Y-85595943D01*
X132737265Y-85595943D01*
X132737265Y-85509178D01*
X132696342Y-85356451D01*
X132674263Y-85318209D01*
X132617289Y-85219525D01*
X132617283Y-85219517D01*
X132505482Y-85107716D01*
X132505474Y-85107710D01*
X132368555Y-85028661D01*
X132368551Y-85028659D01*
X132368549Y-85028658D01*
X132215822Y-84987735D01*
X132057708Y-84987735D01*
X131904981Y-85028658D01*
X131904978Y-85028659D01*
X131875042Y-85045943D01*
X131830623Y-85071587D01*
X131768626Y-85088200D01*
X126271639Y-85088200D01*
X126271623Y-85088199D01*
X126264027Y-85088199D01*
X126158573Y-85088199D01*
X126056974Y-85115423D01*
X126056959Y-85115426D01*
X126056714Y-85115492D01*
X126056713Y-85115492D01*
X125965387Y-85168220D01*
X125897891Y-85235716D01*
X125897873Y-85235733D01*
X125895406Y-85238199D01*
X125893128Y-85239441D01*
X125890908Y-85242182D01*
X125890901Y-85242188D01*
X125890007Y-85241145D01*
X125862601Y-85256103D01*
X125834101Y-85271666D01*
X125834084Y-85271667D01*
X125834077Y-85271672D01*
X125834057Y-85271670D01*
X125807743Y-85274500D01*
X125745943Y-85274500D01*
X125593216Y-85315423D01*
X125593209Y-85315426D01*
X125456290Y-85394475D01*
X125456282Y-85394481D01*
X125344481Y-85506282D01*
X125344475Y-85506290D01*
X125265426Y-85643209D01*
X125265423Y-85643216D01*
X125224500Y-85795943D01*
X125224500Y-85954057D01*
X125261619Y-86092589D01*
X125261769Y-86093146D01*
X125260106Y-86162995D01*
X125220943Y-86220858D01*
X125156715Y-86248362D01*
X125087813Y-86236776D01*
X125054313Y-86212920D01*
X123470915Y-84629522D01*
X123470913Y-84629520D01*
X123425250Y-84603156D01*
X123379589Y-84576793D01*
X123328657Y-84563146D01*
X123277727Y-84549500D01*
X123277726Y-84549500D01*
X119592254Y-84549500D01*
X119525215Y-84529815D01*
X119504573Y-84513181D01*
X116800569Y-81809176D01*
X116785865Y-81782248D01*
X116769273Y-81756430D01*
X116768381Y-81750229D01*
X116767084Y-81747853D01*
X116764250Y-81721495D01*
X116764250Y-81520943D01*
X120299500Y-81520943D01*
X120299500Y-81679057D01*
X120321371Y-81760678D01*
X120340423Y-81831783D01*
X120340426Y-81831790D01*
X120419475Y-81968709D01*
X120419479Y-81968714D01*
X120419480Y-81968716D01*
X120531284Y-82080520D01*
X120531286Y-82080521D01*
X120531290Y-82080524D01*
X120572971Y-82104588D01*
X120668216Y-82159577D01*
X120820943Y-82200500D01*
X120820945Y-82200500D01*
X120979055Y-82200500D01*
X120979057Y-82200500D01*
X121131784Y-82159577D01*
X121268716Y-82080520D01*
X121380520Y-81968716D01*
X121459577Y-81831784D01*
X121500500Y-81679057D01*
X121500500Y-81520943D01*
X121459577Y-81368216D01*
X121454380Y-81359215D01*
X121380524Y-81231290D01*
X121380518Y-81231282D01*
X121268717Y-81119481D01*
X121268709Y-81119475D01*
X121131790Y-81040426D01*
X121131786Y-81040424D01*
X121131784Y-81040423D01*
X120979057Y-80999500D01*
X120820943Y-80999500D01*
X120668216Y-81040423D01*
X120668209Y-81040426D01*
X120531290Y-81119475D01*
X120531282Y-81119481D01*
X120419481Y-81231282D01*
X120419475Y-81231290D01*
X120340426Y-81368209D01*
X120340423Y-81368216D01*
X120299500Y-81520943D01*
X116764250Y-81520943D01*
X116764250Y-80433776D01*
X116783935Y-80366737D01*
X116800569Y-80346095D01*
X116812557Y-80334107D01*
X116844270Y-80302394D01*
X116923327Y-80165462D01*
X116964250Y-80012735D01*
X116964250Y-79854621D01*
X116964249Y-79854619D01*
X116963189Y-79846565D01*
X116965315Y-79846285D01*
X116966709Y-79787742D01*
X117005872Y-79729880D01*
X117070101Y-79702377D01*
X117084821Y-79701500D01*
X133931725Y-79701500D01*
X133931727Y-79701500D01*
X134033588Y-79674207D01*
X134124913Y-79621480D01*
X134480401Y-79265990D01*
X134541722Y-79232507D01*
X134606393Y-79235741D01*
X134722299Y-79273402D01*
X134893389Y-79300500D01*
X134893390Y-79300500D01*
X135066610Y-79300500D01*
X135066611Y-79300500D01*
X135237701Y-79273402D01*
X135402445Y-79219873D01*
X135556788Y-79141232D01*
X135696928Y-79039414D01*
X135819414Y-78916928D01*
X135921232Y-78776788D01*
X135999873Y-78622445D01*
X136053402Y-78457701D01*
X136080500Y-78286611D01*
X136080500Y-78113389D01*
X136419500Y-78113389D01*
X136419500Y-78286610D01*
X136446597Y-78457697D01*
X136446597Y-78457699D01*
X136446598Y-78457701D01*
X136484256Y-78573600D01*
X136500128Y-78622447D01*
X136525042Y-78671344D01*
X136578768Y-78776788D01*
X136680586Y-78916928D01*
X136803072Y-79039414D01*
X136943212Y-79141232D01*
X137097555Y-79219873D01*
X137262299Y-79273402D01*
X137433389Y-79300500D01*
X137433390Y-79300500D01*
X137606610Y-79300500D01*
X137606611Y-79300500D01*
X137777701Y-79273402D01*
X137942445Y-79219873D01*
X138096788Y-79141232D01*
X138236928Y-79039414D01*
X138359414Y-78916928D01*
X138461232Y-78776788D01*
X138539873Y-78622445D01*
X138593402Y-78457701D01*
X138620500Y-78286611D01*
X138620500Y-78113389D01*
X138593402Y-77942299D01*
X138539873Y-77777555D01*
X138461232Y-77623212D01*
X138359414Y-77483072D01*
X138236928Y-77360586D01*
X138096788Y-77258768D01*
X137942445Y-77180127D01*
X137777701Y-77126598D01*
X137777699Y-77126597D01*
X137777698Y-77126597D01*
X137629290Y-77103092D01*
X137606611Y-77099500D01*
X137433389Y-77099500D01*
X137410710Y-77103092D01*
X137262302Y-77126597D01*
X137097552Y-77180128D01*
X136943211Y-77258768D01*
X136888911Y-77298220D01*
X136803072Y-77360586D01*
X136803070Y-77360588D01*
X136803069Y-77360588D01*
X136680588Y-77483069D01*
X136680588Y-77483070D01*
X136680586Y-77483072D01*
X136642264Y-77535818D01*
X136578768Y-77623211D01*
X136500128Y-77777552D01*
X136500127Y-77777554D01*
X136500127Y-77777555D01*
X136483977Y-77827259D01*
X136446597Y-77942302D01*
X136419500Y-78113389D01*
X136080500Y-78113389D01*
X136053402Y-77942299D01*
X135999873Y-77777555D01*
X135921232Y-77623212D01*
X135819414Y-77483072D01*
X135696928Y-77360586D01*
X135556788Y-77258768D01*
X135402445Y-77180127D01*
X135237701Y-77126598D01*
X135237699Y-77126597D01*
X135237698Y-77126597D01*
X135089290Y-77103092D01*
X135066611Y-77099500D01*
X134893389Y-77099500D01*
X134870710Y-77103092D01*
X134722302Y-77126597D01*
X134557552Y-77180128D01*
X134403211Y-77258768D01*
X134348911Y-77298220D01*
X134263072Y-77360586D01*
X134263070Y-77360588D01*
X134263069Y-77360588D01*
X134140588Y-77483069D01*
X134140588Y-77483070D01*
X134140586Y-77483072D01*
X134102264Y-77535818D01*
X134038768Y-77623211D01*
X133960128Y-77777552D01*
X133960127Y-77777554D01*
X133960127Y-77777555D01*
X133943977Y-77827259D01*
X133906597Y-77942302D01*
X133879500Y-78113389D01*
X133879500Y-78286610D01*
X133906597Y-78457698D01*
X133944256Y-78573600D01*
X133944690Y-78588811D01*
X133950009Y-78603071D01*
X133945667Y-78623027D01*
X133946251Y-78643441D01*
X133938163Y-78657526D01*
X133935158Y-78671344D01*
X133914006Y-78699599D01*
X133749424Y-78864182D01*
X133688104Y-78897666D01*
X133661745Y-78900500D01*
X133520547Y-78900500D01*
X133453508Y-78880815D01*
X133407753Y-78828011D01*
X133397809Y-78758853D01*
X133410062Y-78720205D01*
X133420561Y-78699599D01*
X133459873Y-78622445D01*
X133513402Y-78457701D01*
X133540500Y-78286611D01*
X133540500Y-78113389D01*
X133513402Y-77942299D01*
X133459873Y-77777555D01*
X133381232Y-77623212D01*
X133279414Y-77483072D01*
X133156928Y-77360586D01*
X133016788Y-77258768D01*
X132862445Y-77180127D01*
X132697701Y-77126598D01*
X132697699Y-77126597D01*
X132697698Y-77126597D01*
X132549290Y-77103092D01*
X132526611Y-77099500D01*
X132353389Y-77099500D01*
X132330710Y-77103092D01*
X132182301Y-77126597D01*
X132182297Y-77126598D01*
X132066397Y-77164256D01*
X131996556Y-77166251D01*
X131940399Y-77134006D01*
X131183915Y-76377522D01*
X131183913Y-76377520D01*
X131138248Y-76351155D01*
X131092589Y-76324793D01*
X131041657Y-76311146D01*
X130990727Y-76297500D01*
X108903727Y-76297500D01*
X108798273Y-76297500D01*
X108696412Y-76324793D01*
X108696409Y-76324794D01*
X108650750Y-76351155D01*
X108650750Y-76351156D01*
X108605087Y-76377520D01*
X108605084Y-76377522D01*
X108530518Y-76452089D01*
X107669515Y-77313090D01*
X107608192Y-77346575D01*
X107538500Y-77341591D01*
X107508951Y-77325728D01*
X107416788Y-77258768D01*
X107262445Y-77180127D01*
X107097701Y-77126598D01*
X107097699Y-77126597D01*
X107097698Y-77126597D01*
X106949290Y-77103092D01*
X106926611Y-77099500D01*
X106753389Y-77099500D01*
X106730710Y-77103092D01*
X106582302Y-77126597D01*
X106417552Y-77180128D01*
X106263211Y-77258768D01*
X106208911Y-77298220D01*
X106123072Y-77360586D01*
X106123070Y-77360588D01*
X106123069Y-77360588D01*
X106000588Y-77483069D01*
X106000588Y-77483070D01*
X106000586Y-77483072D01*
X105962264Y-77535818D01*
X105898768Y-77623211D01*
X105820128Y-77777552D01*
X105820127Y-77777554D01*
X105820127Y-77777555D01*
X105803977Y-77827259D01*
X105766597Y-77942302D01*
X105739500Y-78113389D01*
X105739500Y-78286610D01*
X105766597Y-78457697D01*
X105766597Y-78457699D01*
X105766598Y-78457701D01*
X105804256Y-78573600D01*
X105820128Y-78622447D01*
X105845042Y-78671344D01*
X105898768Y-78776788D01*
X106000586Y-78916928D01*
X106123072Y-79039414D01*
X106263212Y-79141232D01*
X106417555Y-79219873D01*
X106582299Y-79273402D01*
X106753389Y-79300500D01*
X106753390Y-79300500D01*
X106926610Y-79300500D01*
X106926611Y-79300500D01*
X107097701Y-79273402D01*
X107262445Y-79219873D01*
X107416788Y-79141232D01*
X107556928Y-79039414D01*
X107679414Y-78916928D01*
X107781232Y-78776788D01*
X107859873Y-78622445D01*
X107913402Y-78457701D01*
X107940500Y-78286611D01*
X107940500Y-78226253D01*
X107949144Y-78196812D01*
X107955668Y-78166826D01*
X107959422Y-78161810D01*
X107960185Y-78159214D01*
X107976815Y-78138576D01*
X108067820Y-78047571D01*
X108129142Y-78014087D01*
X108198834Y-78019071D01*
X108254767Y-78060943D01*
X108279184Y-78126407D01*
X108279500Y-78135253D01*
X108279500Y-78286610D01*
X108306597Y-78457697D01*
X108306597Y-78457699D01*
X108306598Y-78457701D01*
X108344256Y-78573600D01*
X108360128Y-78622447D01*
X108385042Y-78671344D01*
X108438768Y-78776788D01*
X108540586Y-78916928D01*
X108663072Y-79039414D01*
X108803212Y-79141232D01*
X108957555Y-79219873D01*
X109122299Y-79273402D01*
X109293389Y-79300500D01*
X109293390Y-79300500D01*
X109466610Y-79300500D01*
X109466611Y-79300500D01*
X109637701Y-79273402D01*
X109802445Y-79219873D01*
X109956788Y-79141232D01*
X110096928Y-79039414D01*
X110219414Y-78916928D01*
X110321232Y-78776788D01*
X110399873Y-78622445D01*
X110453402Y-78457701D01*
X110480500Y-78286611D01*
X110480500Y-78113389D01*
X110453402Y-77942299D01*
X110415741Y-77826393D01*
X110415307Y-77811184D01*
X110409989Y-77796925D01*
X110414330Y-77776969D01*
X110413747Y-77756558D01*
X110421834Y-77742472D01*
X110424841Y-77728652D01*
X110445985Y-77700406D01*
X110610575Y-77535816D01*
X110671898Y-77502334D01*
X110698255Y-77499500D01*
X110839453Y-77499500D01*
X110906492Y-77519185D01*
X110952247Y-77571989D01*
X110962191Y-77641147D01*
X110949938Y-77679795D01*
X110900128Y-77777552D01*
X110900127Y-77777554D01*
X110900127Y-77777555D01*
X110883977Y-77827259D01*
X110846597Y-77942302D01*
X110819500Y-78113389D01*
X110819500Y-78286610D01*
X110846597Y-78457697D01*
X110846597Y-78457699D01*
X110846598Y-78457701D01*
X110884256Y-78573600D01*
X110900128Y-78622447D01*
X110925042Y-78671344D01*
X110978768Y-78776788D01*
X111080586Y-78916928D01*
X111203072Y-79039414D01*
X111343212Y-79141232D01*
X111497555Y-79219873D01*
X111588042Y-79249274D01*
X111645718Y-79288712D01*
X111672916Y-79353070D01*
X111661001Y-79421917D01*
X111613757Y-79473392D01*
X111611725Y-79474592D01*
X111585252Y-79489876D01*
X111585249Y-79489878D01*
X111473449Y-79601678D01*
X111473447Y-79601681D01*
X111446068Y-79649103D01*
X111395500Y-79697318D01*
X111326893Y-79710540D01*
X111306588Y-79706877D01*
X111279057Y-79699500D01*
X111120943Y-79699500D01*
X110968216Y-79740423D01*
X110968209Y-79740426D01*
X110831290Y-79819475D01*
X110831282Y-79819481D01*
X110719481Y-79931282D01*
X110719475Y-79931290D01*
X110640426Y-80068209D01*
X110640423Y-80068216D01*
X110599500Y-80220943D01*
X110599500Y-80282745D01*
X110579815Y-80349784D01*
X110563181Y-80370426D01*
X110228522Y-80705084D01*
X110228518Y-80705090D01*
X110175792Y-80796412D01*
X110175793Y-80796413D01*
X110148500Y-80898273D01*
X110148500Y-81683744D01*
X110128815Y-81750783D01*
X110112181Y-81771425D01*
X109679102Y-82204504D01*
X109677028Y-82205636D01*
X109675820Y-82207668D01*
X109646518Y-82222296D01*
X109617779Y-82237989D01*
X109615421Y-82237820D01*
X109613307Y-82238876D01*
X109580759Y-82235341D01*
X109548087Y-82233005D01*
X109545462Y-82231508D01*
X109543846Y-82231333D01*
X109536291Y-82226279D01*
X109513512Y-82213291D01*
X109508392Y-82209156D01*
X109418716Y-82119480D01*
X109343792Y-82076223D01*
X109336260Y-82070140D01*
X109321653Y-82049054D01*
X109303954Y-82030492D01*
X109302088Y-82020811D01*
X109296473Y-82012706D01*
X109295585Y-81987073D01*
X109290730Y-81961885D01*
X109294070Y-81943368D01*
X109294054Y-81942878D01*
X109294205Y-81942623D01*
X109294394Y-81941578D01*
X109300500Y-81918792D01*
X109300500Y-81760678D01*
X109259577Y-81607951D01*
X109242938Y-81579131D01*
X109180524Y-81471025D01*
X109180518Y-81471017D01*
X109068717Y-81359216D01*
X109068709Y-81359210D01*
X108931790Y-81280161D01*
X108931786Y-81280159D01*
X108931784Y-81280158D01*
X108779057Y-81239235D01*
X108620943Y-81239235D01*
X108468216Y-81280158D01*
X108468209Y-81280161D01*
X108331290Y-81359210D01*
X108331282Y-81359216D01*
X108287583Y-81402916D01*
X108260655Y-81417619D01*
X108234837Y-81434212D01*
X108228636Y-81435103D01*
X108226260Y-81436401D01*
X108199902Y-81439235D01*
X108156989Y-81439235D01*
X108089950Y-81419550D01*
X108069308Y-81402916D01*
X105365993Y-78699600D01*
X105332508Y-78638277D01*
X105335742Y-78573603D01*
X105373402Y-78457701D01*
X105400500Y-78286611D01*
X105400500Y-78113389D01*
X105373402Y-77942299D01*
X105319873Y-77777555D01*
X105241232Y-77623212D01*
X105139414Y-77483072D01*
X105016928Y-77360586D01*
X104876788Y-77258768D01*
X104722445Y-77180127D01*
X104557701Y-77126598D01*
X104557699Y-77126597D01*
X104557698Y-77126597D01*
X104409290Y-77103092D01*
X104386611Y-77099500D01*
X104213389Y-77099500D01*
X104190710Y-77103092D01*
X104042302Y-77126597D01*
X103877552Y-77180128D01*
X103723211Y-77258768D01*
X103668911Y-77298220D01*
X103583072Y-77360586D01*
X103583070Y-77360588D01*
X103583069Y-77360588D01*
X103460588Y-77483069D01*
X103460588Y-77483070D01*
X103460586Y-77483072D01*
X103422264Y-77535818D01*
X103358768Y-77623211D01*
X103280129Y-77777549D01*
X103252814Y-77861615D01*
X103213375Y-77919290D01*
X103149016Y-77946487D01*
X103080170Y-77934572D01*
X103028695Y-77887327D01*
X103016952Y-77861613D01*
X102964755Y-77700970D01*
X102871859Y-77518650D01*
X102751582Y-77353105D01*
X102751582Y-77353104D01*
X102606895Y-77208417D01*
X102441349Y-77088140D01*
X102259029Y-76995244D01*
X102064413Y-76932009D01*
X102010000Y-76923390D01*
X102010000Y-77884314D01*
X102005606Y-77879920D01*
X101914394Y-77827259D01*
X101812661Y-77800000D01*
X101707339Y-77800000D01*
X101605606Y-77827259D01*
X101514394Y-77879920D01*
X101510000Y-77884314D01*
X101510000Y-76923390D01*
X101455586Y-76932009D01*
X101260970Y-76995244D01*
X101078650Y-77088140D01*
X100913105Y-77208417D01*
X100913104Y-77208417D01*
X100768417Y-77353104D01*
X100768417Y-77353105D01*
X100648140Y-77518650D01*
X100600485Y-77612179D01*
X100552510Y-77662975D01*
X100484689Y-77679770D01*
X100418554Y-77657232D01*
X100379515Y-77612179D01*
X100331859Y-77518650D01*
X100211582Y-77353105D01*
X100211582Y-77353104D01*
X100066895Y-77208417D01*
X99901349Y-77088140D01*
X99719029Y-76995244D01*
X99524413Y-76932009D01*
X99470000Y-76923390D01*
X99470000Y-77884314D01*
X99465606Y-77879920D01*
X99374394Y-77827259D01*
X99272661Y-77800000D01*
X99167339Y-77800000D01*
X99065606Y-77827259D01*
X98974394Y-77879920D01*
X98970000Y-77884314D01*
X98970000Y-76923390D01*
X98915586Y-76932009D01*
X98720970Y-76995244D01*
X98538650Y-77088140D01*
X98373105Y-77208417D01*
X98373104Y-77208417D01*
X98228417Y-77353104D01*
X98228417Y-77353105D01*
X98108140Y-77518650D01*
X98015244Y-77700968D01*
X97963047Y-77861614D01*
X97923609Y-77919289D01*
X97859250Y-77946487D01*
X97790404Y-77934572D01*
X97738928Y-77887328D01*
X97727186Y-77861615D01*
X97699873Y-77777555D01*
X97621232Y-77623212D01*
X97519414Y-77483072D01*
X97396928Y-77360586D01*
X97256788Y-77258768D01*
X97102445Y-77180127D01*
X96937701Y-77126598D01*
X96937699Y-77126597D01*
X96937698Y-77126597D01*
X96789290Y-77103092D01*
X96766611Y-77099500D01*
X96593389Y-77099500D01*
X96570710Y-77103092D01*
X96422302Y-77126597D01*
X96257552Y-77180128D01*
X96103211Y-77258768D01*
X96048911Y-77298220D01*
X95963072Y-77360586D01*
X95963070Y-77360588D01*
X95963069Y-77360588D01*
X95840588Y-77483069D01*
X95840588Y-77483070D01*
X95840586Y-77483072D01*
X95802264Y-77535818D01*
X95738768Y-77623211D01*
X95660128Y-77777552D01*
X95660127Y-77777554D01*
X95660127Y-77777555D01*
X95643977Y-77827259D01*
X95606597Y-77942302D01*
X95579500Y-78113389D01*
X95579500Y-78286610D01*
X95606597Y-78457697D01*
X95606597Y-78457699D01*
X95606598Y-78457701D01*
X95644256Y-78573600D01*
X95660128Y-78622447D01*
X95685042Y-78671344D01*
X95738768Y-78776788D01*
X95840586Y-78916928D01*
X95963072Y-79039414D01*
X96103212Y-79141232D01*
X96257555Y-79219873D01*
X96422299Y-79273402D01*
X96593389Y-79300500D01*
X96593390Y-79300500D01*
X96766610Y-79300500D01*
X96766611Y-79300500D01*
X96937701Y-79273402D01*
X97053602Y-79235742D01*
X97123442Y-79233748D01*
X97179600Y-79265993D01*
X101109519Y-83195912D01*
X101109520Y-83195913D01*
X101184087Y-83270480D01*
X101275413Y-83323207D01*
X101377273Y-83350500D01*
X106159081Y-83350500D01*
X106226120Y-83370185D01*
X106271875Y-83422989D01*
X106281819Y-83492147D01*
X106266469Y-83536499D01*
X106190423Y-83668215D01*
X106190423Y-83668216D01*
X106149500Y-83820943D01*
X106149500Y-83979057D01*
X106184347Y-84109106D01*
X106190423Y-84131783D01*
X106190426Y-84131790D01*
X106269475Y-84268709D01*
X106269479Y-84268714D01*
X106269480Y-84268716D01*
X106381284Y-84380520D01*
X106381286Y-84380521D01*
X106381290Y-84380524D01*
X106506351Y-84452727D01*
X106518216Y-84459577D01*
X106670943Y-84500500D01*
X106670945Y-84500500D01*
X106800902Y-84500500D01*
X106867941Y-84520185D01*
X106913696Y-84572989D01*
X106923640Y-84642147D01*
X106894615Y-84705703D01*
X106888583Y-84712181D01*
X106844481Y-84756282D01*
X106844475Y-84756290D01*
X106765426Y-84893209D01*
X106765423Y-84893216D01*
X106724500Y-85045943D01*
X106724500Y-85107745D01*
X106704815Y-85174784D01*
X106688181Y-85195426D01*
X102046076Y-89837531D01*
X101984753Y-89871016D01*
X101958395Y-89873850D01*
X99792923Y-89873850D01*
X99691060Y-89901143D01*
X99599737Y-89953870D01*
X99599734Y-89953872D01*
X97179599Y-92374006D01*
X97118276Y-92407491D01*
X97053600Y-92404256D01*
X96937698Y-92366597D01*
X96786663Y-92342676D01*
X96766611Y-92339500D01*
X96593389Y-92339500D01*
X96573337Y-92342676D01*
X96422302Y-92366597D01*
X96257552Y-92420128D01*
X96103211Y-92498768D01*
X96023256Y-92556859D01*
X95963072Y-92600586D01*
X95963070Y-92600588D01*
X95963069Y-92600588D01*
X95840588Y-92723069D01*
X95840588Y-92723070D01*
X95840586Y-92723072D01*
X95802263Y-92775819D01*
X95738768Y-92863211D01*
X95660128Y-93017552D01*
X95660127Y-93017554D01*
X95660127Y-93017555D01*
X95643977Y-93067259D01*
X95606597Y-93182302D01*
X95579500Y-93353389D01*
X95579500Y-93526610D01*
X95606597Y-93697697D01*
X95606597Y-93697699D01*
X95606598Y-93697701D01*
X95644256Y-93813600D01*
X95660128Y-93862447D01*
X95709938Y-93960205D01*
X95710446Y-93962910D01*
X95712247Y-93964989D01*
X95716855Y-93997038D01*
X95722834Y-94028874D01*
X95721799Y-94031423D01*
X95722191Y-94034147D01*
X95708737Y-94063605D01*
X95696558Y-94093615D01*
X95694308Y-94095200D01*
X95693166Y-94097703D01*
X95665922Y-94115211D01*
X95639451Y-94133872D01*
X95635994Y-94134444D01*
X95634388Y-94135477D01*
X95599453Y-94140500D01*
X95458255Y-94140500D01*
X95391216Y-94120815D01*
X95370574Y-94104181D01*
X95205993Y-93939600D01*
X95172508Y-93878277D01*
X95175742Y-93813603D01*
X95213402Y-93697701D01*
X95240500Y-93526611D01*
X95240500Y-93353389D01*
X95213402Y-93182299D01*
X95159873Y-93017555D01*
X95081232Y-92863212D01*
X94979414Y-92723072D01*
X94856928Y-92600586D01*
X94716788Y-92498768D01*
X94562445Y-92420127D01*
X94397701Y-92366598D01*
X94397699Y-92366597D01*
X94397698Y-92366597D01*
X94246663Y-92342676D01*
X94226611Y-92339500D01*
X94053389Y-92339500D01*
X94033337Y-92342676D01*
X93882302Y-92366597D01*
X93717552Y-92420128D01*
X93563211Y-92498768D01*
X93483256Y-92556859D01*
X93423072Y-92600586D01*
X93423070Y-92600588D01*
X93423069Y-92600588D01*
X93300588Y-92723069D01*
X93300588Y-92723070D01*
X93300586Y-92723072D01*
X93262263Y-92775819D01*
X93198768Y-92863211D01*
X93120128Y-93017552D01*
X93120127Y-93017554D01*
X93120127Y-93017555D01*
X93103977Y-93067259D01*
X93066597Y-93182302D01*
X93039500Y-93353389D01*
X93039500Y-93526610D01*
X93066597Y-93697697D01*
X93066597Y-93697699D01*
X93066598Y-93697701D01*
X93120127Y-93862445D01*
X93198768Y-94016788D01*
X93300586Y-94156928D01*
X93423072Y-94279414D01*
X93423075Y-94279416D01*
X93475055Y-94317182D01*
X93517721Y-94372512D01*
X93523700Y-94442125D01*
X93491094Y-94503920D01*
X93430255Y-94538278D01*
X93402170Y-94541500D01*
X93319254Y-94541500D01*
X93252215Y-94521815D01*
X93231573Y-94505181D01*
X92665993Y-93939600D01*
X92632508Y-93878277D01*
X92635742Y-93813603D01*
X92673402Y-93697701D01*
X92700500Y-93526611D01*
X92700500Y-93353389D01*
X92673402Y-93182299D01*
X92619873Y-93017555D01*
X92541232Y-92863212D01*
X92439414Y-92723072D01*
X92316928Y-92600586D01*
X92176788Y-92498768D01*
X92022445Y-92420127D01*
X91857701Y-92366598D01*
X91857699Y-92366597D01*
X91857698Y-92366597D01*
X91706663Y-92342676D01*
X91686611Y-92339500D01*
X91513389Y-92339500D01*
X91493337Y-92342676D01*
X91342302Y-92366597D01*
X91177552Y-92420128D01*
X91023211Y-92498768D01*
X90943256Y-92556859D01*
X90883072Y-92600586D01*
X90883070Y-92600588D01*
X90883069Y-92600588D01*
X90760588Y-92723069D01*
X90760588Y-92723070D01*
X90760586Y-92723072D01*
X90722263Y-92775819D01*
X90658768Y-92863211D01*
X90580128Y-93017552D01*
X90580127Y-93017554D01*
X90580127Y-93017555D01*
X90563977Y-93067259D01*
X90526597Y-93182302D01*
X90499500Y-93353389D01*
X82100500Y-93353389D01*
X82100500Y-88724999D01*
X86025884Y-88724999D01*
X86025885Y-88725000D01*
X87094670Y-88725000D01*
X87074925Y-88744745D01*
X87025556Y-88830255D01*
X87000000Y-88925630D01*
X87000000Y-89024370D01*
X87025556Y-89119745D01*
X87074925Y-89205255D01*
X87094670Y-89225000D01*
X86025885Y-89225000D01*
X86027085Y-89232584D01*
X86080591Y-89397255D01*
X86159195Y-89551524D01*
X86260967Y-89691602D01*
X86383397Y-89814032D01*
X86523475Y-89915804D01*
X86677742Y-89994408D01*
X86842415Y-90047914D01*
X87013429Y-90075000D01*
X87125000Y-90075000D01*
X87125000Y-89255330D01*
X87144745Y-89275075D01*
X87230255Y-89324444D01*
X87325630Y-89350000D01*
X87424370Y-89350000D01*
X87519745Y-89324444D01*
X87605255Y-89275075D01*
X87625000Y-89255330D01*
X87625000Y-90075000D01*
X87736571Y-90075000D01*
X87907584Y-90047914D01*
X88072257Y-89994408D01*
X88226524Y-89915804D01*
X88366602Y-89814032D01*
X88489032Y-89691602D01*
X88590804Y-89551524D01*
X88632842Y-89469021D01*
X93537420Y-89469021D01*
X93537420Y-89627135D01*
X93578128Y-89779057D01*
X93578343Y-89779861D01*
X93578346Y-89779868D01*
X93657395Y-89916787D01*
X93657399Y-89916792D01*
X93657400Y-89916794D01*
X93769204Y-90028598D01*
X93769206Y-90028599D01*
X93769210Y-90028602D01*
X93849575Y-90075000D01*
X93906136Y-90107655D01*
X94058863Y-90148578D01*
X94058865Y-90148578D01*
X94216975Y-90148578D01*
X94216977Y-90148578D01*
X94369704Y-90107655D01*
X94506636Y-90028598D01*
X94618440Y-89916794D01*
X94697497Y-89779862D01*
X94738420Y-89627135D01*
X94738420Y-89469021D01*
X94697497Y-89316294D01*
X94681059Y-89287822D01*
X94618444Y-89179368D01*
X94618438Y-89179360D01*
X94574739Y-89135661D01*
X94541254Y-89074338D01*
X94538420Y-89047980D01*
X94538420Y-85291835D01*
X94558105Y-85224796D01*
X94574739Y-85204154D01*
X96904574Y-82874319D01*
X96965897Y-82840834D01*
X96992255Y-82838000D01*
X97054055Y-82838000D01*
X97054057Y-82838000D01*
X97206784Y-82797077D01*
X97343716Y-82718020D01*
X97455520Y-82606216D01*
X97534577Y-82469284D01*
X97575500Y-82316557D01*
X97575500Y-82158443D01*
X97534577Y-82005716D01*
X97534573Y-82005709D01*
X97455524Y-81868790D01*
X97455518Y-81868782D01*
X97343717Y-81756981D01*
X97343709Y-81756975D01*
X97206790Y-81677926D01*
X97206786Y-81677924D01*
X97206784Y-81677923D01*
X97054057Y-81637000D01*
X96895943Y-81637000D01*
X96743216Y-81677923D01*
X96743209Y-81677926D01*
X96606290Y-81756975D01*
X96606282Y-81756981D01*
X96494481Y-81868782D01*
X96494475Y-81868790D01*
X96415426Y-82005709D01*
X96415423Y-82005716D01*
X96374500Y-82158443D01*
X96374500Y-82220245D01*
X96354815Y-82287284D01*
X96338181Y-82307926D01*
X93817442Y-84828664D01*
X93817440Y-84828667D01*
X93764711Y-84919993D01*
X93742546Y-85002724D01*
X93742545Y-85002728D01*
X93737420Y-85021852D01*
X93737420Y-89047980D01*
X93717735Y-89115019D01*
X93701101Y-89135661D01*
X93657401Y-89179360D01*
X93657395Y-89179368D01*
X93578346Y-89316287D01*
X93578343Y-89316294D01*
X93537420Y-89469021D01*
X88632842Y-89469021D01*
X88665667Y-89404599D01*
X88665668Y-89404597D01*
X88669408Y-89397257D01*
X88722914Y-89232584D01*
X88724115Y-89225000D01*
X87655330Y-89225000D01*
X87675075Y-89205255D01*
X87724444Y-89119745D01*
X87750000Y-89024370D01*
X87750000Y-88925630D01*
X87724444Y-88830255D01*
X87675075Y-88744745D01*
X87655330Y-88725000D01*
X88724115Y-88725000D01*
X88724115Y-88724999D01*
X88722914Y-88717415D01*
X88669408Y-88552744D01*
X88590804Y-88398475D01*
X88489032Y-88258397D01*
X88366602Y-88135967D01*
X88226524Y-88034195D01*
X88108166Y-87973889D01*
X88057370Y-87925914D01*
X88040575Y-87858093D01*
X88063112Y-87791958D01*
X88095570Y-87760302D01*
X88142331Y-87729057D01*
X88224035Y-87674464D01*
X88349464Y-87549035D01*
X88448013Y-87401547D01*
X88451794Y-87392420D01*
X88472093Y-87343412D01*
X88515894Y-87237666D01*
X88517101Y-87231601D01*
X88547201Y-87080277D01*
X88550500Y-87063691D01*
X88550500Y-86886309D01*
X88550500Y-86886306D01*
X88550499Y-86886304D01*
X88515896Y-86712341D01*
X88515893Y-86712332D01*
X88505928Y-86688275D01*
X88488288Y-86645686D01*
X88448016Y-86548459D01*
X88448009Y-86548446D01*
X88349464Y-86400965D01*
X88349461Y-86400961D01*
X88224038Y-86275538D01*
X88224034Y-86275535D01*
X88076553Y-86176990D01*
X88076540Y-86176983D01*
X87912667Y-86109106D01*
X87912658Y-86109103D01*
X87849882Y-86096617D01*
X87787971Y-86064232D01*
X87753397Y-86003517D01*
X87757136Y-85933747D01*
X87798003Y-85877075D01*
X87849882Y-85853383D01*
X87912658Y-85840896D01*
X87912661Y-85840894D01*
X87912666Y-85840894D01*
X88076547Y-85773013D01*
X88224035Y-85674464D01*
X88349464Y-85549035D01*
X88448013Y-85401547D01*
X88515894Y-85237666D01*
X88518251Y-85225820D01*
X88550499Y-85063695D01*
X88550500Y-85063693D01*
X88550500Y-84886306D01*
X88550499Y-84886304D01*
X88515896Y-84712341D01*
X88515893Y-84712332D01*
X88515830Y-84712181D01*
X88488382Y-84645913D01*
X88448016Y-84548459D01*
X88448009Y-84548446D01*
X88349464Y-84400965D01*
X88349461Y-84400961D01*
X88224038Y-84275538D01*
X88224034Y-84275535D01*
X88076553Y-84176990D01*
X88076541Y-84176983D01*
X87944718Y-84122382D01*
X87924627Y-84114060D01*
X87870224Y-84070221D01*
X87848159Y-84003927D01*
X87865438Y-83936227D01*
X87916575Y-83888617D01*
X87972080Y-83875500D01*
X88043097Y-83875500D01*
X88043102Y-83875500D01*
X88131564Y-83864877D01*
X88272342Y-83809361D01*
X88392922Y-83717922D01*
X88484361Y-83597342D01*
X88539877Y-83456564D01*
X88550500Y-83368102D01*
X88550500Y-82581898D01*
X88539877Y-82493436D01*
X88484361Y-82352658D01*
X88484360Y-82352657D01*
X88484360Y-82352656D01*
X88392922Y-82232077D01*
X88272343Y-82140639D01*
X88132895Y-82085648D01*
X88131564Y-82085123D01*
X88131563Y-82085122D01*
X88131561Y-82085122D01*
X88085926Y-82079642D01*
X88043102Y-82074500D01*
X86706898Y-82074500D01*
X86667853Y-82079188D01*
X86618438Y-82085122D01*
X86477656Y-82140639D01*
X86357077Y-82232077D01*
X86265639Y-82352656D01*
X86210122Y-82493438D01*
X86206125Y-82526727D01*
X86199500Y-82581898D01*
X86199500Y-83368102D01*
X86205126Y-83414954D01*
X86210122Y-83456561D01*
X86265639Y-83597343D01*
X86357077Y-83717922D01*
X86477656Y-83809360D01*
X86477657Y-83809360D01*
X86477658Y-83809361D01*
X86618436Y-83864877D01*
X86706898Y-83875500D01*
X86706903Y-83875500D01*
X86777920Y-83875500D01*
X86844959Y-83895185D01*
X86890714Y-83947989D01*
X86900658Y-84017147D01*
X86871633Y-84080703D01*
X86825372Y-84114060D01*
X86809134Y-84120786D01*
X86673458Y-84176983D01*
X86673446Y-84176990D01*
X86525965Y-84275535D01*
X86525961Y-84275538D01*
X86400538Y-84400961D01*
X86400535Y-84400965D01*
X86301990Y-84548446D01*
X86301983Y-84548459D01*
X86234106Y-84712332D01*
X86234103Y-84712341D01*
X86199500Y-84886304D01*
X86199500Y-85063695D01*
X86234103Y-85237658D01*
X86234106Y-85237667D01*
X86301983Y-85401540D01*
X86301990Y-85401553D01*
X86400535Y-85549034D01*
X86400538Y-85549038D01*
X86525961Y-85674461D01*
X86525965Y-85674464D01*
X86673446Y-85773009D01*
X86673459Y-85773016D01*
X86761727Y-85809577D01*
X86837334Y-85840894D01*
X86855337Y-85844475D01*
X86900118Y-85853383D01*
X86962028Y-85885768D01*
X86996603Y-85946484D01*
X86992863Y-86016253D01*
X86951996Y-86072925D01*
X86900118Y-86096617D01*
X86837340Y-86109104D01*
X86837332Y-86109106D01*
X86673459Y-86176983D01*
X86673446Y-86176990D01*
X86525965Y-86275535D01*
X86525961Y-86275538D01*
X86400538Y-86400961D01*
X86400535Y-86400965D01*
X86301990Y-86548446D01*
X86301983Y-86548459D01*
X86234106Y-86712332D01*
X86234103Y-86712341D01*
X86199500Y-86886304D01*
X86199500Y-87063695D01*
X86234103Y-87237658D01*
X86234106Y-87237667D01*
X86301983Y-87401540D01*
X86301990Y-87401553D01*
X86400535Y-87549034D01*
X86400538Y-87549038D01*
X86525961Y-87674461D01*
X86525965Y-87674464D01*
X86654429Y-87760302D01*
X86699234Y-87813914D01*
X86707941Y-87883239D01*
X86677786Y-87946267D01*
X86641833Y-87973889D01*
X86523475Y-88034195D01*
X86383397Y-88135967D01*
X86260967Y-88258397D01*
X86159195Y-88398475D01*
X86080591Y-88552744D01*
X86027085Y-88717415D01*
X86025884Y-88724999D01*
X82100500Y-88724999D01*
X82100500Y-77355131D01*
X90499500Y-77355131D01*
X90499500Y-79044856D01*
X90499502Y-79044882D01*
X90502413Y-79069987D01*
X90502415Y-79069991D01*
X90547793Y-79172764D01*
X90547794Y-79172765D01*
X90627235Y-79252206D01*
X90730009Y-79297585D01*
X90755135Y-79300500D01*
X92444864Y-79300499D01*
X92444879Y-79300497D01*
X92444882Y-79300497D01*
X92469987Y-79297586D01*
X92469988Y-79297585D01*
X92469991Y-79297585D01*
X92572765Y-79252206D01*
X92652206Y-79172765D01*
X92697585Y-79069991D01*
X92700500Y-79044865D01*
X92700499Y-78113389D01*
X93039500Y-78113389D01*
X93039500Y-78286610D01*
X93066597Y-78457697D01*
X93066597Y-78457699D01*
X93066598Y-78457701D01*
X93104256Y-78573600D01*
X93120128Y-78622447D01*
X93145042Y-78671344D01*
X93198768Y-78776788D01*
X93300586Y-78916928D01*
X93423072Y-79039414D01*
X93563212Y-79141232D01*
X93717555Y-79219873D01*
X93882299Y-79273402D01*
X94053389Y-79300500D01*
X94053390Y-79300500D01*
X94226610Y-79300500D01*
X94226611Y-79300500D01*
X94397701Y-79273402D01*
X94562445Y-79219873D01*
X94716788Y-79141232D01*
X94856928Y-79039414D01*
X94979414Y-78916928D01*
X95081232Y-78776788D01*
X95159873Y-78622445D01*
X95213402Y-78457701D01*
X95240500Y-78286611D01*
X95240500Y-78113389D01*
X95213402Y-77942299D01*
X95159873Y-77777555D01*
X95081232Y-77623212D01*
X94979414Y-77483072D01*
X94856928Y-77360586D01*
X94716788Y-77258768D01*
X94562445Y-77180127D01*
X94397701Y-77126598D01*
X94397699Y-77126597D01*
X94397698Y-77126597D01*
X94249290Y-77103092D01*
X94226611Y-77099500D01*
X94053389Y-77099500D01*
X94030710Y-77103092D01*
X93882302Y-77126597D01*
X93717552Y-77180128D01*
X93563211Y-77258768D01*
X93508911Y-77298220D01*
X93423072Y-77360586D01*
X93423070Y-77360588D01*
X93423069Y-77360588D01*
X93300588Y-77483069D01*
X93300588Y-77483070D01*
X93300586Y-77483072D01*
X93262264Y-77535818D01*
X93198768Y-77623211D01*
X93120128Y-77777552D01*
X93120127Y-77777554D01*
X93120127Y-77777555D01*
X93103977Y-77827259D01*
X93066597Y-77942302D01*
X93039500Y-78113389D01*
X92700499Y-78113389D01*
X92700499Y-77355136D01*
X92700497Y-77355117D01*
X92697586Y-77330012D01*
X92697585Y-77330010D01*
X92697585Y-77330009D01*
X92652206Y-77227235D01*
X92572765Y-77147794D01*
X92541538Y-77134006D01*
X92469992Y-77102415D01*
X92444865Y-77099500D01*
X90755143Y-77099500D01*
X90755117Y-77099502D01*
X90730012Y-77102413D01*
X90730008Y-77102415D01*
X90627235Y-77147793D01*
X90547794Y-77227234D01*
X90502415Y-77330006D01*
X90502415Y-77330008D01*
X90499500Y-77355131D01*
X82100500Y-77355131D01*
X82100500Y-68924500D01*
X82120185Y-68857461D01*
X82172989Y-68811706D01*
X82224500Y-68800500D01*
X146975500Y-68800500D01*
X147042539Y-68820185D01*
G37*
%TD.AperFunction*%
%TD*%
M02*
