%TF.GenerationSoftware,KiCad,Pcbnew,9.0.4*%
%TF.CreationDate,2026-03-16T00:34:22+01:00*%
%TF.ProjectId,SDT_board,5344545f-626f-4617-9264-2e6b69636164,1.0*%
%TF.SameCoordinates,Original*%
%TF.FileFunction,Soldermask,Top*%
%TF.FilePolarity,Negative*%
%FSLAX46Y46*%
G04 Gerber Fmt 4.6, Leading zero omitted, Abs format (unit mm)*
G04 Created by KiCad (PCBNEW 9.0.4) date 2026-03-16 00:34:22*
%MOMM*%
%LPD*%
G01*
G04 APERTURE LIST*
G04 Aperture macros list*
%AMRoundRect*
0 Rectangle with rounded corners*
0 $1 Rounding radius*
0 $2 $3 $4 $5 $6 $7 $8 $9 X,Y pos of 4 corners*
0 Add a 4 corners polygon primitive as box body*
4,1,4,$2,$3,$4,$5,$6,$7,$8,$9,$2,$3,0*
0 Add four circle primitives for the rounded corners*
1,1,$1+$1,$2,$3*
1,1,$1+$1,$4,$5*
1,1,$1+$1,$6,$7*
1,1,$1+$1,$8,$9*
0 Add four rect primitives between the rounded corners*
20,1,$1+$1,$2,$3,$4,$5,0*
20,1,$1+$1,$4,$5,$6,$7,0*
20,1,$1+$1,$6,$7,$8,$9,0*
20,1,$1+$1,$8,$9,$2,$3,0*%
%AMRotRect*
0 Rectangle, with rotation*
0 The origin of the aperture is its center*
0 $1 length*
0 $2 width*
0 $3 Rotation angle, in degrees counterclockwise*
0 Add horizontal line*
21,1,$1,$2,0,0,$3*%
%AMFreePoly0*
4,1,9,5.362500,-0.866500,1.237500,-0.866500,1.237500,-0.450000,-1.237500,-0.450000,-1.237500,0.450000,1.237500,0.450000,1.237500,0.866500,5.362500,0.866500,5.362500,-0.866500,5.362500,-0.866500,$1*%
G04 Aperture macros list end*
%ADD10RoundRect,0.237500X0.300000X0.237500X-0.300000X0.237500X-0.300000X-0.237500X0.300000X-0.237500X0*%
%ADD11RoundRect,0.250000X-0.450000X0.400000X-0.450000X-0.400000X0.450000X-0.400000X0.450000X0.400000X0*%
%ADD12RoundRect,0.237500X-0.008839X-0.344715X0.344715X0.008839X0.008839X0.344715X-0.344715X-0.008839X0*%
%ADD13C,6.400000*%
%ADD14RoundRect,0.237500X-0.237500X0.300000X-0.237500X-0.300000X0.237500X-0.300000X0.237500X0.300000X0*%
%ADD15RoundRect,0.250001X-0.462499X-0.624999X0.462499X-0.624999X0.462499X0.624999X-0.462499X0.624999X0*%
%ADD16RoundRect,0.237500X0.344715X-0.008839X-0.008839X0.344715X-0.344715X0.008839X0.008839X-0.344715X0*%
%ADD17RoundRect,0.237500X0.237500X-0.300000X0.237500X0.300000X-0.237500X0.300000X-0.237500X-0.300000X0*%
%ADD18RoundRect,0.237500X-0.035355X-0.371231X0.371231X0.035355X0.035355X0.371231X-0.371231X-0.035355X0*%
%ADD19R,1.400000X0.300000*%
%ADD20R,2.300000X2.650000*%
%ADD21RoundRect,0.093750X-0.093750X-0.106250X0.093750X-0.106250X0.093750X0.106250X-0.093750X0.106250X0*%
%ADD22R,1.000000X1.600000*%
%ADD23RoundRect,0.075000X0.415425X0.521491X-0.521491X-0.415425X-0.415425X-0.521491X0.521491X0.415425X0*%
%ADD24RoundRect,0.075000X-0.415425X0.521491X-0.521491X0.415425X0.415425X-0.521491X0.521491X-0.415425X0*%
%ADD25RotRect,1.700000X1.700000X135.000000*%
%ADD26C,1.700000*%
%ADD27RoundRect,0.237500X-0.250000X-0.237500X0.250000X-0.237500X0.250000X0.237500X-0.250000X0.237500X0*%
%ADD28R,0.500000X0.300000*%
%ADD29RoundRect,0.237500X-0.380070X0.044194X0.044194X-0.380070X0.380070X-0.044194X-0.044194X0.380070X0*%
%ADD30RoundRect,0.250000X-0.625000X0.350000X-0.625000X-0.350000X0.625000X-0.350000X0.625000X0.350000X0*%
%ADD31O,1.750000X1.200000*%
%ADD32RoundRect,0.162500X-0.617500X-0.162500X0.617500X-0.162500X0.617500X0.162500X-0.617500X0.162500X0*%
%ADD33RoundRect,0.225000X-0.225000X0.925000X-0.225000X-0.925000X0.225000X-0.925000X0.225000X0.925000X0*%
%ADD34FreePoly0,270.000000*%
%ADD35C,0.990600*%
%ADD36C,0.787400*%
%ADD37RoundRect,0.237500X0.237500X-0.250000X0.237500X0.250000X-0.237500X0.250000X-0.237500X-0.250000X0*%
%ADD38RoundRect,0.237500X-0.300000X-0.237500X0.300000X-0.237500X0.300000X0.237500X-0.300000X0.237500X0*%
%ADD39RoundRect,0.237500X-0.344715X0.008839X0.008839X-0.344715X0.344715X-0.008839X-0.008839X0.344715X0*%
%ADD40R,1.600000X1.600000*%
%ADD41O,1.600000X1.600000*%
G04 APERTURE END LIST*
D10*
%TO.C,C1*%
X111075000Y-76500000D03*
X109350000Y-76500000D03*
%TD*%
D11*
%TO.C,D2*%
X95700000Y-83975000D03*
X95700000Y-86875000D03*
%TD*%
D12*
%TO.C,R6*%
X120454765Y-88645235D03*
X121745235Y-87354765D03*
%TD*%
D13*
%TO.C,H1*%
X86100000Y-98800000D03*
%TD*%
D14*
%TO.C,C6*%
X139150000Y-78187500D03*
X139150000Y-79912500D03*
%TD*%
D12*
%TO.C,R7*%
X120654765Y-86195235D03*
X121945235Y-84904765D03*
%TD*%
D15*
%TO.C,F1*%
X90562500Y-84175000D03*
X93537500Y-84175000D03*
%TD*%
D16*
%TO.C,R4*%
X120345235Y-81045235D03*
X119054765Y-79754765D03*
%TD*%
D17*
%TO.C,C10*%
X105600000Y-83887500D03*
X105600000Y-82162500D03*
%TD*%
D18*
%TO.C,D3*%
X106981282Y-89043718D03*
X108218718Y-87806282D03*
%TD*%
D19*
%TO.C,J4*%
X133625000Y-86825000D03*
X133625000Y-86325000D03*
X133625000Y-85825000D03*
X133625000Y-85325000D03*
D20*
X134875000Y-88600000D03*
X134875000Y-83550000D03*
%TD*%
D13*
%TO.C,H2*%
X143100000Y-72800000D03*
%TD*%
D21*
%TO.C,U4*%
X149302500Y-85212500D03*
X149302500Y-85862500D03*
X149302500Y-86512500D03*
X151077500Y-86512500D03*
X151077500Y-85862500D03*
X151077500Y-85212500D03*
D22*
X150190000Y-85862500D03*
%TD*%
D17*
%TO.C,C3*%
X96100000Y-82237500D03*
X96100000Y-80512500D03*
%TD*%
D13*
%TO.C,H3*%
X86100000Y-72800000D03*
%TD*%
D23*
%TO.C,U5*%
X119487876Y-84801212D03*
X119134322Y-84447658D03*
X118780769Y-84094105D03*
X118427215Y-83740551D03*
X118073662Y-83386998D03*
X117720109Y-83033445D03*
X117366555Y-82679891D03*
X117013002Y-82326338D03*
X116659449Y-81972785D03*
X116305895Y-81619231D03*
X115952342Y-81265678D03*
X115598788Y-80912124D03*
D24*
X113601212Y-80912124D03*
X113247658Y-81265678D03*
X112894105Y-81619231D03*
X112540551Y-81972785D03*
X112186998Y-82326338D03*
X111833445Y-82679891D03*
X111479891Y-83033445D03*
X111126338Y-83386998D03*
X110772785Y-83740551D03*
X110419231Y-84094105D03*
X110065678Y-84447658D03*
X109712124Y-84801212D03*
D23*
X109712124Y-86798788D03*
X110065678Y-87152342D03*
X110419231Y-87505895D03*
X110772785Y-87859449D03*
X111126338Y-88213002D03*
X111479891Y-88566555D03*
X111833445Y-88920109D03*
X112186998Y-89273662D03*
X112540551Y-89627215D03*
X112894105Y-89980769D03*
X113247658Y-90334322D03*
X113601212Y-90687876D03*
D24*
X115598788Y-90687876D03*
X115952342Y-90334322D03*
X116305895Y-89980769D03*
X116659449Y-89627215D03*
X117013002Y-89273662D03*
X117366555Y-88920109D03*
X117720109Y-88566555D03*
X118073662Y-88213002D03*
X118427215Y-87859449D03*
X118780769Y-87505895D03*
X119134322Y-87152342D03*
X119487876Y-86798788D03*
%TD*%
D25*
%TO.C,J3*%
X122623439Y-90051561D03*
D26*
X124419490Y-88255510D03*
%TD*%
D27*
%TO.C,R1*%
X97187500Y-89237500D03*
X99012500Y-89237500D03*
%TD*%
D28*
%TO.C,U6*%
X156550000Y-86225000D03*
X156550000Y-85425000D03*
X155150000Y-85425000D03*
X155150000Y-86225000D03*
%TD*%
D29*
%TO.C,C13*%
X119690120Y-82490120D03*
X120909880Y-83709880D03*
%TD*%
D14*
%TO.C,C11*%
X152325000Y-84962500D03*
X152325000Y-86687500D03*
%TD*%
D30*
%TO.C,J1*%
X87375000Y-82975000D03*
D31*
X87375000Y-84975000D03*
X87375000Y-86975000D03*
X87375000Y-88975000D03*
%TD*%
D32*
%TO.C,U1*%
X92650000Y-89087500D03*
X92650000Y-90037500D03*
X92650000Y-90987500D03*
X95350000Y-90987500D03*
X95350000Y-90037500D03*
X95350000Y-89087500D03*
%TD*%
D10*
%TO.C,C5*%
X137512500Y-76550000D03*
X135787500Y-76550000D03*
%TD*%
D33*
%TO.C,U2*%
X100850000Y-82175000D03*
D34*
X99350000Y-82262500D03*
D33*
X97850000Y-82175000D03*
%TD*%
D14*
%TO.C,C16*%
X153825000Y-84962500D03*
X153825000Y-86687500D03*
%TD*%
D35*
%TO.C,J2*%
X129015000Y-91415000D03*
X127999000Y-86335000D03*
X130031000Y-86335000D03*
D36*
X129650000Y-90145000D03*
X128380000Y-90145000D03*
X129650000Y-88875000D03*
X128380000Y-88875000D03*
X129650000Y-87605000D03*
X128380000Y-87605000D03*
%TD*%
D17*
%TO.C,C7*%
X102600000Y-83887500D03*
X102600000Y-82162500D03*
%TD*%
D37*
%TO.C,R5*%
X113950000Y-94262500D03*
X113950000Y-92437500D03*
%TD*%
D13*
%TO.C,H4*%
X143100000Y-98800000D03*
%TD*%
D17*
%TO.C,C9*%
X104100000Y-83887500D03*
X104100000Y-82162500D03*
%TD*%
D29*
%TO.C,C15*%
X122140120Y-80740120D03*
X123359880Y-81959880D03*
%TD*%
D38*
%TO.C,C2*%
X112700000Y-76500000D03*
X114425000Y-76500000D03*
%TD*%
D39*
%TO.C,R3*%
X109304765Y-88879765D03*
X110595235Y-90170235D03*
%TD*%
D29*
%TO.C,C12*%
X117340120Y-80140120D03*
X118559880Y-81359880D03*
%TD*%
D27*
%TO.C,R2*%
X97187500Y-90737500D03*
X99012500Y-90737500D03*
%TD*%
D29*
%TO.C,C14*%
X121440120Y-82140120D03*
X122659880Y-83359880D03*
%TD*%
D10*
%TO.C,C4*%
X94512500Y-82275000D03*
X92787500Y-82275000D03*
%TD*%
D40*
%TO.C,D1*%
X117200000Y-78200000D03*
D41*
X119740000Y-78200000D03*
X122280000Y-78200000D03*
X124820000Y-78200000D03*
X127360000Y-78200000D03*
X129900000Y-78200000D03*
X132440000Y-78200000D03*
X134980000Y-78200000D03*
X137520000Y-78200000D03*
X137520000Y-93440000D03*
X134980000Y-93440000D03*
X132440000Y-93440000D03*
X129900000Y-93440000D03*
X127360000Y-93440000D03*
X124820000Y-93440000D03*
X122280000Y-93440000D03*
X119740000Y-93440000D03*
X117200000Y-93440000D03*
%TD*%
D40*
%TO.C,D4*%
X91600000Y-78200000D03*
D41*
X94140000Y-78200000D03*
X96680000Y-78200000D03*
X99220000Y-78200000D03*
X101760000Y-78200000D03*
X104300000Y-78200000D03*
X106840000Y-78200000D03*
X109380000Y-78200000D03*
X111920000Y-78200000D03*
X111920000Y-93440000D03*
X109380000Y-93440000D03*
X106840000Y-93440000D03*
X104300000Y-93440000D03*
X101760000Y-93440000D03*
X99220000Y-93440000D03*
X96680000Y-93440000D03*
X94140000Y-93440000D03*
X91600000Y-93440000D03*
%TD*%
M02*
