%TF.GenerationSoftware,KiCad,Pcbnew,9.0.4*%
%TF.CreationDate,2026-03-16T00:34:22+01:00*%
%TF.ProjectId,SDT_board,5344545f-626f-4617-9264-2e6b69636164,1.0*%
%TF.SameCoordinates,Original*%
%TF.FileFunction,Legend,Bot*%
%TF.FilePolarity,Positive*%
%FSLAX46Y46*%
G04 Gerber Fmt 4.6, Leading zero omitted, Abs format (unit mm)*
G04 Created by KiCad (PCBNEW 9.0.4) date 2026-03-16 00:34:22*
%MOMM*%
%LPD*%
G01*
G04 APERTURE LIST*
%ADD10C,0.150000*%
%ADD11C,0.254000*%
%ADD12C,0.200000*%
%ADD13C,0.100000*%
G04 APERTURE END LIST*
D10*
X131088094Y-80929819D02*
X131088094Y-79929819D01*
X131088094Y-79929819D02*
X130849999Y-79929819D01*
X130849999Y-79929819D02*
X130707142Y-79977438D01*
X130707142Y-79977438D02*
X130611904Y-80072676D01*
X130611904Y-80072676D02*
X130564285Y-80167914D01*
X130564285Y-80167914D02*
X130516666Y-80358390D01*
X130516666Y-80358390D02*
X130516666Y-80501247D01*
X130516666Y-80501247D02*
X130564285Y-80691723D01*
X130564285Y-80691723D02*
X130611904Y-80786961D01*
X130611904Y-80786961D02*
X130707142Y-80882200D01*
X130707142Y-80882200D02*
X130849999Y-80929819D01*
X130849999Y-80929819D02*
X131088094Y-80929819D01*
X129564285Y-80929819D02*
X130135713Y-80929819D01*
X129849999Y-80929819D02*
X129849999Y-79929819D01*
X129849999Y-79929819D02*
X129945237Y-80072676D01*
X129945237Y-80072676D02*
X130040475Y-80167914D01*
X130040475Y-80167914D02*
X130135713Y-80215533D01*
D11*
X153373332Y-85131095D02*
X153373332Y-86038238D01*
X153373332Y-86038238D02*
X153433809Y-86219666D01*
X153433809Y-86219666D02*
X153554761Y-86340619D01*
X153554761Y-86340619D02*
X153736190Y-86401095D01*
X153736190Y-86401095D02*
X153857142Y-86401095D01*
X152163809Y-85131095D02*
X152768571Y-85131095D01*
X152768571Y-85131095D02*
X152829047Y-85735857D01*
X152829047Y-85735857D02*
X152768571Y-85675380D01*
X152768571Y-85675380D02*
X152647618Y-85614904D01*
X152647618Y-85614904D02*
X152345237Y-85614904D01*
X152345237Y-85614904D02*
X152224285Y-85675380D01*
X152224285Y-85675380D02*
X152163809Y-85735857D01*
X152163809Y-85735857D02*
X152103332Y-85856809D01*
X152103332Y-85856809D02*
X152103332Y-86159190D01*
X152103332Y-86159190D02*
X152163809Y-86280142D01*
X152163809Y-86280142D02*
X152224285Y-86340619D01*
X152224285Y-86340619D02*
X152345237Y-86401095D01*
X152345237Y-86401095D02*
X152647618Y-86401095D01*
X152647618Y-86401095D02*
X152768571Y-86340619D01*
X152768571Y-86340619D02*
X152829047Y-86280142D01*
D10*
X102498094Y-86274819D02*
X102498094Y-85274819D01*
X102498094Y-85274819D02*
X102259999Y-85274819D01*
X102259999Y-85274819D02*
X102117142Y-85322438D01*
X102117142Y-85322438D02*
X102021904Y-85417676D01*
X102021904Y-85417676D02*
X101974285Y-85512914D01*
X101974285Y-85512914D02*
X101926666Y-85703390D01*
X101926666Y-85703390D02*
X101926666Y-85846247D01*
X101926666Y-85846247D02*
X101974285Y-86036723D01*
X101974285Y-86036723D02*
X102021904Y-86131961D01*
X102021904Y-86131961D02*
X102117142Y-86227200D01*
X102117142Y-86227200D02*
X102259999Y-86274819D01*
X102259999Y-86274819D02*
X102498094Y-86274819D01*
X101069523Y-85608152D02*
X101069523Y-86274819D01*
X101307618Y-85227200D02*
X101545713Y-85941485D01*
X101545713Y-85941485D02*
X100926666Y-85941485D01*
%TO.C,D1*%
X114660000Y-78200000D02*
X114660000Y-95980000D01*
X114660000Y-95980000D02*
X140060000Y-95980000D01*
X117200000Y-75660000D02*
X114660000Y-78200000D01*
X140060000Y-75660000D02*
X117200000Y-75660000D01*
X140060000Y-95980000D02*
X140060000Y-75660000D01*
D12*
%TO.C,J5*%
X149200000Y-83226777D02*
X156700000Y-83226777D01*
X149200000Y-84626777D02*
X149200000Y-83226777D01*
X150000000Y-84626777D02*
X149200000Y-84626777D01*
D13*
X152200000Y-88876777D02*
X152200000Y-88876777D01*
X152200000Y-88976777D02*
X152200000Y-88976777D01*
D12*
X156700000Y-83226777D02*
X156700000Y-84626777D01*
X156700000Y-84626777D02*
X155900000Y-84626777D01*
D13*
X152200000Y-88876777D02*
G75*
G02*
X152200000Y-88976777I0J-50000D01*
G01*
X152200000Y-88976777D02*
G75*
G02*
X152200000Y-88876777I0J50000D01*
G01*
D10*
%TO.C,D4*%
X89060000Y-78200000D02*
X89060000Y-95980000D01*
X89060000Y-95980000D02*
X114460000Y-95980000D01*
X91600000Y-75660000D02*
X89060000Y-78200000D01*
X114460000Y-75660000D02*
X91600000Y-75660000D01*
X114460000Y-95980000D02*
X114460000Y-75660000D01*
%TD*%
M02*
