%TF.GenerationSoftware,KiCad,Pcbnew,9.0.4*%
%TF.CreationDate,2026-03-16T00:34:21+01:00*%
%TF.ProjectId,SDT_board,5344545f-626f-4617-9264-2e6b69636164,1.0*%
%TF.SameCoordinates,Original*%
%TF.FileFunction,Copper,L3,Inr*%
%TF.FilePolarity,Positive*%
%FSLAX46Y46*%
G04 Gerber Fmt 4.6, Leading zero omitted, Abs format (unit mm)*
G04 Created by KiCad (PCBNEW 9.0.4) date 2026-03-16 00:34:21*
%MOMM*%
%LPD*%
G01*
G04 APERTURE LIST*
G04 Aperture macros list*
%AMRoundRect*
0 Rectangle with rounded corners*
0 $1 Rounding radius*
0 $2 $3 $4 $5 $6 $7 $8 $9 X,Y pos of 4 corners*
0 Add a 4 corners polygon primitive as box body*
4,1,4,$2,$3,$4,$5,$6,$7,$8,$9,$2,$3,0*
0 Add four circle primitives for the rounded corners*
1,1,$1+$1,$2,$3*
1,1,$1+$1,$4,$5*
1,1,$1+$1,$6,$7*
1,1,$1+$1,$8,$9*
0 Add four rect primitives between the rounded corners*
20,1,$1+$1,$2,$3,$4,$5,0*
20,1,$1+$1,$4,$5,$6,$7,0*
20,1,$1+$1,$6,$7,$8,$9,0*
20,1,$1+$1,$8,$9,$2,$3,0*%
%AMRotRect*
0 Rectangle, with rotation*
0 The origin of the aperture is its center*
0 $1 length*
0 $2 width*
0 $3 Rotation angle, in degrees counterclockwise*
0 Add horizontal line*
21,1,$1,$2,0,0,$3*%
G04 Aperture macros list end*
%TA.AperFunction,ComponentPad*%
%ADD10C,6.400000*%
%TD*%
%TA.AperFunction,ComponentPad*%
%ADD11RotRect,1.700000X1.700000X135.000000*%
%TD*%
%TA.AperFunction,ComponentPad*%
%ADD12C,1.700000*%
%TD*%
%TA.AperFunction,ComponentPad*%
%ADD13RoundRect,0.250000X-0.625000X0.350000X-0.625000X-0.350000X0.625000X-0.350000X0.625000X0.350000X0*%
%TD*%
%TA.AperFunction,ComponentPad*%
%ADD14O,1.750000X1.200000*%
%TD*%
%TA.AperFunction,ComponentPad*%
%ADD15R,1.600000X1.600000*%
%TD*%
%TA.AperFunction,ComponentPad*%
%ADD16O,1.600000X1.600000*%
%TD*%
%TA.AperFunction,ViaPad*%
%ADD17C,0.600000*%
%TD*%
%TA.AperFunction,ViaPad*%
%ADD18C,0.900000*%
%TD*%
%TA.AperFunction,Conductor*%
%ADD19C,0.200000*%
%TD*%
G04 APERTURE END LIST*
D10*
%TO.N,GND*%
%TO.C,H1*%
X86100000Y-98800000D03*
%TD*%
%TO.N,GND*%
%TO.C,H2*%
X143100000Y-72800000D03*
%TD*%
%TO.N,GND*%
%TO.C,H3*%
X86100000Y-72800000D03*
%TD*%
D11*
%TO.N,/SWCLK*%
%TO.C,J3*%
X122623439Y-90051561D03*
D12*
%TO.N,+3.3V*%
X124419490Y-88255510D03*
%TD*%
D13*
%TO.N,Net-(J1-VBUS)*%
%TO.C,J1*%
X87375000Y-82975000D03*
D14*
%TO.N,/DN*%
X87375000Y-84975000D03*
%TO.N,/DP*%
X87375000Y-86975000D03*
%TO.N,GND*%
X87375000Y-88975000D03*
%TD*%
D10*
%TO.N,GND*%
%TO.C,H4*%
X143100000Y-98800000D03*
%TD*%
D15*
%TO.N,/CE1_1*%
%TO.C,D1*%
X117200000Y-78200000D03*
D16*
%TO.N,/CE2_1*%
X119740000Y-78200000D03*
%TO.N,/CLR*%
X122280000Y-78200000D03*
%TO.N,GND*%
X124820000Y-78200000D03*
X127360000Y-78200000D03*
%TO.N,/WR*%
X129900000Y-78200000D03*
%TO.N,/A1*%
X132440000Y-78200000D03*
%TO.N,/A0*%
X134980000Y-78200000D03*
%TO.N,+5V*%
X137520000Y-78200000D03*
%TO.N,GND*%
X137520000Y-93440000D03*
%TO.N,/D0*%
X134980000Y-93440000D03*
%TO.N,/D1*%
X132440000Y-93440000D03*
%TO.N,/D2*%
X129900000Y-93440000D03*
%TO.N,/D3*%
X127360000Y-93440000D03*
%TO.N,/D6*%
X124820000Y-93440000D03*
%TO.N,/D5*%
X122280000Y-93440000D03*
%TO.N,/D4*%
X119740000Y-93440000D03*
%TO.N,/BL*%
X117200000Y-93440000D03*
%TD*%
D15*
%TO.N,/CE1_2*%
%TO.C,D4*%
X91600000Y-78200000D03*
D16*
%TO.N,/CE2_2*%
X94140000Y-78200000D03*
%TO.N,/CLR*%
X96680000Y-78200000D03*
%TO.N,GND*%
X99220000Y-78200000D03*
X101760000Y-78200000D03*
%TO.N,/WR*%
X104300000Y-78200000D03*
%TO.N,/A1*%
X106840000Y-78200000D03*
%TO.N,/A0*%
X109380000Y-78200000D03*
%TO.N,+5V*%
X111920000Y-78200000D03*
%TO.N,GND*%
X111920000Y-93440000D03*
%TO.N,/D0*%
X109380000Y-93440000D03*
%TO.N,/D1*%
X106840000Y-93440000D03*
%TO.N,/D2*%
X104300000Y-93440000D03*
%TO.N,/D3*%
X101760000Y-93440000D03*
%TO.N,/D6*%
X99220000Y-93440000D03*
%TO.N,/D5*%
X96680000Y-93440000D03*
%TO.N,/D4*%
X94140000Y-93440000D03*
%TO.N,/BL*%
X91600000Y-93440000D03*
%TD*%
D17*
%TO.N,+5V*%
X94137920Y-89548078D03*
X96975000Y-82237500D03*
%TO.N,GND*%
X137425000Y-84275000D03*
X93175000Y-81200000D03*
X126075000Y-77600000D03*
X126750000Y-87050000D03*
X93100000Y-87375000D03*
X115125000Y-80050000D03*
X108250000Y-76450000D03*
X115000000Y-86025000D03*
X103375000Y-81200000D03*
X133200000Y-80275000D03*
X118175000Y-90850000D03*
X90950000Y-91625000D03*
X91450000Y-95075000D03*
X101025000Y-88525000D03*
X131525000Y-87725000D03*
X137600000Y-88525000D03*
X102675000Y-87950000D03*
X137925000Y-81750000D03*
X101475000Y-76650000D03*
X131675000Y-91275000D03*
X89800000Y-94200000D03*
X139000000Y-76600000D03*
X132125000Y-80575000D03*
X91000000Y-80025000D03*
X92625000Y-76475000D03*
X106700000Y-76375000D03*
X97275000Y-84650000D03*
X109350000Y-75700000D03*
X91725000Y-87400000D03*
X130475000Y-81875000D03*
X92250000Y-86200000D03*
X101725000Y-81400000D03*
X133775000Y-91250000D03*
X90025000Y-95075000D03*
X104850000Y-81225000D03*
X129775000Y-81300000D03*
X99225000Y-95600000D03*
X103375000Y-82162500D03*
X136375000Y-81200000D03*
X139250000Y-94775000D03*
X119200000Y-80850000D03*
X154400000Y-88051777D03*
X93875000Y-90475000D03*
X125025000Y-81350000D03*
X103450000Y-85600000D03*
X104400000Y-86700000D03*
X131100000Y-84200000D03*
X89750000Y-76900000D03*
X94550000Y-81225000D03*
X136200000Y-91825000D03*
X89650000Y-78275000D03*
X101575000Y-95550000D03*
X94050000Y-76525000D03*
D18*
X136300000Y-79900000D03*
D17*
X133700000Y-77200000D03*
X93225000Y-86025000D03*
X114875000Y-87175000D03*
X101600000Y-85425000D03*
X114450000Y-77500000D03*
X135225000Y-95275000D03*
X105700000Y-85425000D03*
X90825000Y-76425000D03*
X126175000Y-80150000D03*
X139325000Y-93550000D03*
X90050000Y-90925000D03*
X131925000Y-83975000D03*
X127575000Y-84275000D03*
X104200000Y-76500000D03*
X95350000Y-88100000D03*
X124600000Y-84450000D03*
X131200000Y-83025000D03*
X96225000Y-85650000D03*
X105600000Y-76450000D03*
X102400000Y-86900000D03*
X103200000Y-92325000D03*
X138850000Y-88050000D03*
X107725000Y-90675000D03*
X97700000Y-88050000D03*
X113175000Y-85950000D03*
X124075000Y-80350000D03*
X103675000Y-95625000D03*
X90250000Y-80775000D03*
X102700000Y-76575000D03*
X139600000Y-83700000D03*
X139250000Y-92075000D03*
X101200000Y-86950000D03*
X132675000Y-83025000D03*
X92250000Y-80000000D03*
X135025000Y-80650000D03*
X131950000Y-95400000D03*
X95200000Y-95575000D03*
X126800000Y-83250000D03*
X93600000Y-95600000D03*
X123550000Y-77550000D03*
X91250000Y-81100000D03*
X132975000Y-88850000D03*
X91462115Y-90036414D03*
X90575000Y-82100000D03*
X108100000Y-80775000D03*
X90000000Y-92750000D03*
X128125000Y-80100000D03*
X92000000Y-84400000D03*
X125950000Y-88750000D03*
X133575000Y-95275000D03*
X126900000Y-80950000D03*
X114350000Y-80125000D03*
X125350000Y-83000000D03*
X104875000Y-82162500D03*
X150750000Y-88051777D03*
X134600000Y-79800000D03*
X139200000Y-90300000D03*
X113425000Y-86950000D03*
X129175000Y-83200000D03*
X132975000Y-90150000D03*
X97250000Y-86425000D03*
X91075000Y-86400000D03*
X91175000Y-88450000D03*
X104750000Y-85550000D03*
X96900000Y-76600000D03*
X89650000Y-79175000D03*
X92275000Y-95225000D03*
X130700000Y-95300000D03*
X96550000Y-88100000D03*
X137825000Y-95350000D03*
X131225000Y-86650000D03*
X99075000Y-76575000D03*
X92825000Y-92300000D03*
X97225000Y-95575000D03*
X95650000Y-76575000D03*
X138400000Y-82925000D03*
X128175000Y-81925000D03*
%TO.N,+3.3V*%
X120900000Y-81600000D03*
X153075000Y-84962500D03*
X137100000Y-86926000D03*
X122700000Y-85659530D03*
X130975000Y-90125000D03*
X106750000Y-83900000D03*
%TO.N,/nRESET*%
X131025000Y-88875000D03*
X116363750Y-79933678D03*
%TO.N,/WR*%
X108700000Y-81839735D03*
%TO.N,/CE2_1*%
X116300000Y-86862892D03*
%TO.N,/CLR*%
X109050000Y-82600000D03*
%TO.N,/D0*%
X115200000Y-82100000D03*
%TO.N,/D6*%
X114050000Y-85250000D03*
X111200000Y-81148530D03*
%TO.N,/D2*%
X112850000Y-79800000D03*
%TO.N,/D4*%
X114201240Y-83502710D03*
%TO.N,/D5*%
X111200000Y-80300000D03*
X107325000Y-85125000D03*
%TO.N,/CE1_1*%
X116100000Y-87650000D03*
%TO.N,/BL*%
X117800000Y-85550000D03*
%TO.N,/D1*%
X114440925Y-81847396D03*
%TO.N,/D3*%
X111953967Y-79970397D03*
X108950000Y-85700000D03*
%TO.N,/CE1_2*%
X118550000Y-89700000D03*
%TO.N,/CE2_2*%
X119299397Y-89419986D03*
%TO.N,/SCL*%
X153199988Y-88783862D03*
X132136765Y-85588235D03*
X125825000Y-85875000D03*
X135825000Y-85675000D03*
%TO.N,/SDA*%
X155725000Y-88126779D03*
X151075000Y-84426777D03*
X136450000Y-86325000D03*
%TO.N,/D+*%
X110550210Y-91376000D03*
X111800000Y-91662500D03*
%TD*%
D19*
%TO.N,GND*%
X150750000Y-88051777D02*
X149248223Y-86550000D01*
X145775000Y-87000000D02*
X145775000Y-87900000D01*
X146225000Y-86550000D02*
X145775000Y-87000000D01*
X149248223Y-86550000D02*
X146225000Y-86550000D01*
%TO.N,+3.3V*%
X137100000Y-86926000D02*
X138174000Y-86926000D01*
X152412500Y-85625000D02*
X153075000Y-84962500D01*
X139475000Y-85625000D02*
X152412500Y-85625000D01*
X138174000Y-86926000D02*
X139475000Y-85625000D01*
%TO.N,/WR*%
X112601057Y-79199000D02*
X112430660Y-79369397D01*
X115051000Y-77579900D02*
X115051000Y-77748943D01*
X113600943Y-79199000D02*
X112601057Y-79199000D01*
X112430660Y-79369397D02*
X111170338Y-79369397D01*
X129900000Y-78200000D02*
X128398000Y-76698000D01*
X115932900Y-76698000D02*
X115051000Y-77579900D01*
X128398000Y-76698000D02*
X115932900Y-76698000D01*
X115051000Y-77748943D02*
X113600943Y-79199000D01*
X111170338Y-79369397D02*
X108700000Y-81839735D01*
%TO.N,/CE2_1*%
X119740000Y-78200000D02*
X117601000Y-80339000D01*
X117601000Y-83966100D02*
X116300000Y-85267100D01*
X116300000Y-85267100D02*
X116300000Y-86862892D01*
X117601000Y-80339000D02*
X117601000Y-83966100D01*
%TO.N,/CLR*%
X115800000Y-77398000D02*
X115800000Y-77699943D01*
X122280000Y-78200000D02*
X121179000Y-77099000D01*
X110899943Y-82600000D02*
X109050000Y-82600000D01*
X116099000Y-77099000D02*
X115800000Y-77398000D01*
X115800000Y-77699943D02*
X110899943Y-82600000D01*
X121179000Y-77099000D02*
X116099000Y-77099000D01*
%TO.N,/D6*%
X117551057Y-84949000D02*
X116900000Y-85600057D01*
X116900000Y-85600057D02*
X116900000Y-87699943D01*
X124820000Y-90620000D02*
X119149000Y-84949000D01*
X114701000Y-88251000D02*
X114050000Y-87600000D01*
X116900000Y-87699943D02*
X116348943Y-88251000D01*
X116348943Y-88251000D02*
X114701000Y-88251000D01*
X114050000Y-87600000D02*
X114050000Y-85250000D01*
X124820000Y-93440000D02*
X124820000Y-90620000D01*
X119149000Y-84949000D02*
X117551057Y-84949000D01*
%TO.N,/D2*%
X129900000Y-93440000D02*
X127790000Y-95550000D01*
X127790000Y-95550000D02*
X106410000Y-95550000D01*
X106410000Y-95550000D02*
X104300000Y-93440000D01*
%TO.N,/D5*%
X109551000Y-85451057D02*
X109198943Y-85099000D01*
X109198943Y-85099000D02*
X107351000Y-85099000D01*
X121179000Y-94541000D02*
X116743950Y-94541000D01*
X107351000Y-85099000D02*
X107325000Y-85125000D01*
X109551000Y-87348050D02*
X109551000Y-85451057D01*
X116743950Y-94541000D02*
X109551000Y-87348050D01*
X122280000Y-93440000D02*
X121179000Y-94541000D01*
%TO.N,/CE1_1*%
X117200000Y-78200000D02*
X117200000Y-83800000D01*
X115700000Y-85300000D02*
X115700000Y-87250000D01*
X115700000Y-87250000D02*
X116100000Y-87650000D01*
X117200000Y-83800000D02*
X115700000Y-85300000D01*
%TO.N,/BL*%
X117200000Y-93440000D02*
X119900397Y-90739603D01*
X119900397Y-90739603D02*
X119900397Y-87650397D01*
X119900397Y-87650397D02*
X117800000Y-85550000D01*
%TO.N,/D3*%
X127360000Y-93440000D02*
X125651000Y-95149000D01*
X108916450Y-85733550D02*
X108950000Y-85700000D01*
X108916450Y-87791450D02*
X108916450Y-85733550D01*
X116274000Y-95149000D02*
X108916450Y-87791450D01*
X125651000Y-95149000D02*
X116274000Y-95149000D01*
%TO.N,/CE1_2*%
X114550000Y-89700000D02*
X118550000Y-89700000D01*
X93850000Y-80450000D02*
X105300000Y-80450000D01*
X91600000Y-78200000D02*
X93850000Y-80450000D01*
X105300000Y-80450000D02*
X114550000Y-89700000D01*
%TO.N,/CE2_2*%
X94140000Y-78200000D02*
X94140000Y-78390000D01*
X118978411Y-89099000D02*
X119299397Y-89419986D01*
X95650000Y-79900000D02*
X105350000Y-79900000D01*
X105350000Y-79900000D02*
X114549000Y-89099000D01*
X114549000Y-89099000D02*
X118978411Y-89099000D01*
X94140000Y-78390000D02*
X95650000Y-79900000D01*
%TO.N,/SCL*%
X153199988Y-88783862D02*
X150466126Y-86050000D01*
X150466126Y-86050000D02*
X139617100Y-86050000D01*
X136802057Y-87527000D02*
X135825000Y-86549943D01*
X139617100Y-86050000D02*
X138140100Y-87527000D01*
X138140100Y-87527000D02*
X136802057Y-87527000D01*
X135825000Y-86549943D02*
X135825000Y-85675000D01*
%TO.N,/SDA*%
X151075000Y-84426777D02*
X150276777Y-85225000D01*
X137550000Y-85225000D02*
X136450000Y-86325000D01*
X150276777Y-85225000D02*
X137550000Y-85225000D01*
%TD*%
%TA.AperFunction,Conductor*%
%TO.N,GND*%
G36*
X110156703Y-85873542D02*
G01*
X110163181Y-85879574D01*
X114229519Y-89945912D01*
X114229520Y-89945913D01*
X114304087Y-90020480D01*
X114395413Y-90073207D01*
X114497273Y-90100500D01*
X114602727Y-90100500D01*
X118049902Y-90100500D01*
X118116941Y-90120185D01*
X118137583Y-90136819D01*
X118181284Y-90180520D01*
X118181286Y-90180521D01*
X118181290Y-90180524D01*
X118271015Y-90232326D01*
X118318216Y-90259577D01*
X118470943Y-90300500D01*
X118470945Y-90300500D01*
X118629055Y-90300500D01*
X118629057Y-90300500D01*
X118781784Y-90259577D01*
X118918716Y-90180520D01*
X119030520Y-90068716D01*
X119032489Y-90065304D01*
X119034905Y-90063000D01*
X119035470Y-90062265D01*
X119035584Y-90062353D01*
X119083054Y-90017087D01*
X119148884Y-90003627D01*
X119160608Y-90004480D01*
X119220340Y-90020486D01*
X119378454Y-90020486D01*
X119378872Y-90020373D01*
X119384902Y-90020813D01*
X119413571Y-90031548D01*
X119442936Y-90040171D01*
X119445980Y-90043684D01*
X119450335Y-90045315D01*
X119468648Y-90069844D01*
X119488691Y-90092975D01*
X119489831Y-90098218D01*
X119492134Y-90101302D01*
X119492911Y-90112376D01*
X119499897Y-90144486D01*
X119499897Y-90522347D01*
X119480212Y-90589386D01*
X119463578Y-90610028D01*
X117699599Y-92374006D01*
X117638276Y-92407491D01*
X117573600Y-92404256D01*
X117457698Y-92366597D01*
X117326271Y-92345781D01*
X117286611Y-92339500D01*
X117113389Y-92339500D01*
X117073728Y-92345781D01*
X116942302Y-92366597D01*
X116777552Y-92420128D01*
X116623211Y-92498768D01*
X116543256Y-92556859D01*
X116483072Y-92600586D01*
X116483070Y-92600588D01*
X116483069Y-92600588D01*
X116360588Y-92723069D01*
X116360588Y-92723070D01*
X116360586Y-92723072D01*
X116355287Y-92730366D01*
X116258768Y-92863211D01*
X116180128Y-93017552D01*
X116180127Y-93017554D01*
X116180127Y-93017555D01*
X116146867Y-93119920D01*
X116146222Y-93121904D01*
X116106784Y-93179580D01*
X116042426Y-93206778D01*
X115973579Y-93194863D01*
X115940610Y-93171267D01*
X109987819Y-87218476D01*
X109954334Y-87157153D01*
X109951500Y-87130795D01*
X109951500Y-85967255D01*
X109971185Y-85900216D01*
X110023989Y-85854461D01*
X110093147Y-85844517D01*
X110156703Y-85873542D01*
G37*
%TD.AperFunction*%
%TA.AperFunction,Conductor*%
G36*
X116018834Y-78150014D02*
G01*
X116074767Y-78191886D01*
X116099184Y-78257350D01*
X116099500Y-78266196D01*
X116099500Y-79044856D01*
X116099502Y-79044882D01*
X116102413Y-79069987D01*
X116102415Y-79069991D01*
X116147793Y-79172764D01*
X116155374Y-79180345D01*
X116188859Y-79241668D01*
X116183875Y-79311360D01*
X116142003Y-79367293D01*
X116129693Y-79375413D01*
X115995037Y-79453155D01*
X115995032Y-79453159D01*
X115883231Y-79564960D01*
X115883225Y-79564968D01*
X115804176Y-79701887D01*
X115804173Y-79701894D01*
X115763250Y-79854621D01*
X115763250Y-80012735D01*
X115773017Y-80049184D01*
X115804173Y-80165461D01*
X115804176Y-80165468D01*
X115883225Y-80302387D01*
X115883229Y-80302392D01*
X115883230Y-80302394D01*
X115995034Y-80414198D01*
X115995036Y-80414199D01*
X115995040Y-80414202D01*
X116085467Y-80466409D01*
X116131966Y-80493255D01*
X116284693Y-80534178D01*
X116284695Y-80534178D01*
X116442805Y-80534178D01*
X116442807Y-80534178D01*
X116595534Y-80493255D01*
X116613499Y-80482883D01*
X116681399Y-80466409D01*
X116747426Y-80489261D01*
X116790617Y-80544182D01*
X116799500Y-80590269D01*
X116799500Y-83582745D01*
X116779815Y-83649784D01*
X116763181Y-83670426D01*
X115379522Y-85054084D01*
X115379520Y-85054087D01*
X115344106Y-85115426D01*
X115326793Y-85145412D01*
X115310788Y-85205144D01*
X115310788Y-85205145D01*
X115310787Y-85205144D01*
X115299500Y-85247269D01*
X115299500Y-87302726D01*
X115326793Y-87404589D01*
X115338289Y-87424500D01*
X115379520Y-87495913D01*
X115379522Y-87495915D01*
X115463181Y-87579574D01*
X115477884Y-87606501D01*
X115494477Y-87632320D01*
X115495368Y-87638520D01*
X115496666Y-87640897D01*
X115499500Y-87667255D01*
X115499500Y-87726500D01*
X115479815Y-87793539D01*
X115427011Y-87839294D01*
X115375500Y-87850500D01*
X114918255Y-87850500D01*
X114851216Y-87830815D01*
X114830574Y-87814181D01*
X114486819Y-87470426D01*
X114453334Y-87409103D01*
X114450500Y-87382745D01*
X114450500Y-85750098D01*
X114470185Y-85683059D01*
X114486819Y-85662417D01*
X114506027Y-85643209D01*
X114530520Y-85618716D01*
X114609577Y-85481784D01*
X114650500Y-85329057D01*
X114650500Y-85170943D01*
X114609577Y-85018216D01*
X114586986Y-84979087D01*
X114530524Y-84881290D01*
X114530518Y-84881282D01*
X114418717Y-84769481D01*
X114418709Y-84769475D01*
X114281790Y-84690426D01*
X114281786Y-84690424D01*
X114281784Y-84690423D01*
X114129057Y-84649500D01*
X113970943Y-84649500D01*
X113818216Y-84690423D01*
X113818209Y-84690426D01*
X113681290Y-84769475D01*
X113681282Y-84769481D01*
X113569481Y-84881282D01*
X113569475Y-84881290D01*
X113490426Y-85018209D01*
X113490423Y-85018216D01*
X113449500Y-85170943D01*
X113449500Y-85329057D01*
X113488204Y-85473500D01*
X113490423Y-85481783D01*
X113490426Y-85481790D01*
X113569475Y-85618709D01*
X113569481Y-85618717D01*
X113613181Y-85662417D01*
X113646666Y-85723740D01*
X113649500Y-85750098D01*
X113649500Y-87333745D01*
X113629815Y-87400784D01*
X113577011Y-87446539D01*
X113507853Y-87456483D01*
X113444297Y-87427458D01*
X113437819Y-87421426D01*
X111486806Y-85470413D01*
X109440045Y-83423653D01*
X113600740Y-83423653D01*
X113600740Y-83581767D01*
X113614765Y-83634107D01*
X113641663Y-83734493D01*
X113641666Y-83734500D01*
X113720715Y-83871419D01*
X113720719Y-83871424D01*
X113720720Y-83871426D01*
X113832524Y-83983230D01*
X113832526Y-83983231D01*
X113832530Y-83983234D01*
X113894180Y-84018827D01*
X113969456Y-84062287D01*
X114122183Y-84103210D01*
X114122185Y-84103210D01*
X114280295Y-84103210D01*
X114280297Y-84103210D01*
X114433024Y-84062287D01*
X114569956Y-83983230D01*
X114681760Y-83871426D01*
X114760817Y-83734494D01*
X114801740Y-83581767D01*
X114801740Y-83423653D01*
X114760817Y-83270926D01*
X114719572Y-83199487D01*
X114681764Y-83134000D01*
X114681758Y-83133992D01*
X114569957Y-83022191D01*
X114569949Y-83022185D01*
X114433030Y-82943136D01*
X114433026Y-82943134D01*
X114433024Y-82943133D01*
X114280297Y-82902210D01*
X114122183Y-82902210D01*
X113969456Y-82943133D01*
X113969449Y-82943136D01*
X113832530Y-83022185D01*
X113832522Y-83022191D01*
X113720721Y-83133992D01*
X113720715Y-83134000D01*
X113641666Y-83270919D01*
X113641663Y-83270926D01*
X113600740Y-83423653D01*
X109440045Y-83423653D01*
X109328967Y-83312575D01*
X109320493Y-83297055D01*
X109307959Y-83284581D01*
X109304096Y-83267027D01*
X109295483Y-83251253D01*
X109296744Y-83233614D01*
X109292944Y-83216343D01*
X109299184Y-83199487D01*
X109300467Y-83181561D01*
X109311090Y-83167334D01*
X109317205Y-83150821D01*
X109335728Y-83134341D01*
X109342103Y-83125805D01*
X109348120Y-83121277D01*
X109418716Y-83080520D01*
X109468583Y-83030652D01*
X109475552Y-83025410D01*
X109500423Y-83016065D01*
X109523740Y-83003334D01*
X109538550Y-83001741D01*
X109540958Y-83000837D01*
X109542959Y-83001267D01*
X109550098Y-83000500D01*
X110952668Y-83000500D01*
X110952670Y-83000500D01*
X111054531Y-82973207D01*
X111145856Y-82920480D01*
X112297997Y-81768339D01*
X113840425Y-81768339D01*
X113840425Y-81926453D01*
X113879296Y-82071519D01*
X113881348Y-82079179D01*
X113881351Y-82079186D01*
X113960400Y-82216105D01*
X113960404Y-82216110D01*
X113960405Y-82216112D01*
X114072209Y-82327916D01*
X114072211Y-82327917D01*
X114072215Y-82327920D01*
X114200798Y-82402156D01*
X114209141Y-82406973D01*
X114361868Y-82447896D01*
X114361870Y-82447896D01*
X114519979Y-82447896D01*
X114519982Y-82447896D01*
X114592178Y-82428551D01*
X114662024Y-82430214D01*
X114712395Y-82464306D01*
X114713733Y-82462969D01*
X114719480Y-82468716D01*
X114831284Y-82580520D01*
X114831286Y-82580521D01*
X114831290Y-82580524D01*
X114968209Y-82659573D01*
X114968216Y-82659577D01*
X115120943Y-82700500D01*
X115120945Y-82700500D01*
X115279055Y-82700500D01*
X115279057Y-82700500D01*
X115431784Y-82659577D01*
X115568716Y-82580520D01*
X115680520Y-82468716D01*
X115759577Y-82331784D01*
X115800500Y-82179057D01*
X115800500Y-82020943D01*
X115759577Y-81868216D01*
X115710808Y-81783745D01*
X115680524Y-81731290D01*
X115680518Y-81731282D01*
X115568717Y-81619481D01*
X115568709Y-81619475D01*
X115431790Y-81540426D01*
X115431786Y-81540424D01*
X115431784Y-81540423D01*
X115279057Y-81499500D01*
X115120943Y-81499500D01*
X115048749Y-81518844D01*
X114978899Y-81517181D01*
X114928529Y-81483089D01*
X114927192Y-81484427D01*
X114809642Y-81366877D01*
X114809634Y-81366871D01*
X114672715Y-81287822D01*
X114672711Y-81287820D01*
X114672709Y-81287819D01*
X114519982Y-81246896D01*
X114361868Y-81246896D01*
X114209141Y-81287819D01*
X114209134Y-81287822D01*
X114072215Y-81366871D01*
X114072207Y-81366877D01*
X113960406Y-81478678D01*
X113960400Y-81478686D01*
X113881351Y-81615605D01*
X113881348Y-81615612D01*
X113840425Y-81768339D01*
X112297997Y-81768339D01*
X115887821Y-78178513D01*
X115949142Y-78145030D01*
X116018834Y-78150014D01*
G37*
%TD.AperFunction*%
%TA.AperFunction,Conductor*%
G36*
X101439920Y-77954394D02*
G01*
X101387259Y-78045606D01*
X101360000Y-78147339D01*
X101360000Y-78252661D01*
X101387259Y-78354394D01*
X101439920Y-78445606D01*
X101444314Y-78450000D01*
X99535686Y-78450000D01*
X99540080Y-78445606D01*
X99592741Y-78354394D01*
X99620000Y-78252661D01*
X99620000Y-78147339D01*
X99592741Y-78045606D01*
X99540080Y-77954394D01*
X99535686Y-77950000D01*
X101444314Y-77950000D01*
X101439920Y-77954394D01*
G37*
%TD.AperFunction*%
%TA.AperFunction,Conductor*%
G36*
X127039920Y-77954394D02*
G01*
X126987259Y-78045606D01*
X126960000Y-78147339D01*
X126960000Y-78252661D01*
X126987259Y-78354394D01*
X127039920Y-78445606D01*
X127044314Y-78450000D01*
X125135686Y-78450000D01*
X125140080Y-78445606D01*
X125192741Y-78354394D01*
X125220000Y-78252661D01*
X125220000Y-78147339D01*
X125192741Y-78045606D01*
X125140080Y-77954394D01*
X125135686Y-77950000D01*
X127044314Y-77950000D01*
X127039920Y-77954394D01*
G37*
%TD.AperFunction*%
%TA.AperFunction,Conductor*%
G36*
X123804905Y-77104738D02*
G01*
X123826994Y-77106318D01*
X123837777Y-77114390D01*
X123850699Y-77118185D01*
X123865198Y-77134918D01*
X123882927Y-77148190D01*
X123887634Y-77160810D01*
X123896454Y-77170989D01*
X123899605Y-77192906D01*
X123907344Y-77213654D01*
X123904481Y-77226814D01*
X123906398Y-77240147D01*
X123897198Y-77260290D01*
X123892492Y-77281927D01*
X123879223Y-77299652D01*
X123877373Y-77303703D01*
X123871341Y-77310181D01*
X123828417Y-77353104D01*
X123828417Y-77353105D01*
X123708140Y-77518650D01*
X123615244Y-77700968D01*
X123563047Y-77861614D01*
X123523609Y-77919289D01*
X123459250Y-77946487D01*
X123390404Y-77934572D01*
X123338928Y-77887328D01*
X123327186Y-77861615D01*
X123299873Y-77777555D01*
X123221232Y-77623212D01*
X123119414Y-77483072D01*
X122996928Y-77360586D01*
X122944945Y-77322818D01*
X122902279Y-77267488D01*
X122896300Y-77197875D01*
X122928906Y-77136080D01*
X122989745Y-77101722D01*
X123017830Y-77098500D01*
X123783660Y-77098500D01*
X123804905Y-77104738D01*
G37*
%TD.AperFunction*%
%TA.AperFunction,Conductor*%
G36*
X126390699Y-77118185D02*
G01*
X126436454Y-77170989D01*
X126446398Y-77240147D01*
X126417373Y-77303703D01*
X126411341Y-77310181D01*
X126368417Y-77353104D01*
X126368417Y-77353105D01*
X126248140Y-77518650D01*
X126200485Y-77612179D01*
X126152510Y-77662975D01*
X126084689Y-77679770D01*
X126018554Y-77657232D01*
X125979515Y-77612179D01*
X125931859Y-77518650D01*
X125811582Y-77353105D01*
X125811582Y-77353104D01*
X125768659Y-77310181D01*
X125735174Y-77248858D01*
X125740158Y-77179166D01*
X125782030Y-77123233D01*
X125847494Y-77098816D01*
X125856340Y-77098500D01*
X126323660Y-77098500D01*
X126390699Y-77118185D01*
G37*
%TD.AperFunction*%
%TA.AperFunction,Conductor*%
G36*
X147042539Y-68820185D02*
G01*
X147088294Y-68872989D01*
X147099500Y-68924500D01*
X147099500Y-83824500D01*
X147099500Y-83825000D01*
X147099500Y-83890892D01*
X147121101Y-83971512D01*
X147121391Y-83972684D01*
X147121315Y-83974399D01*
X147125000Y-84002384D01*
X147125000Y-84700500D01*
X147105315Y-84767539D01*
X147052511Y-84813294D01*
X147001000Y-84824500D01*
X137497273Y-84824500D01*
X137395410Y-84851793D01*
X137304087Y-84904520D01*
X137304084Y-84904522D01*
X136616920Y-85591686D01*
X136555597Y-85625171D01*
X136485905Y-85620187D01*
X136429972Y-85578315D01*
X136409465Y-85536100D01*
X136384577Y-85443216D01*
X136384573Y-85443209D01*
X136305524Y-85306290D01*
X136305518Y-85306282D01*
X136193717Y-85194481D01*
X136193709Y-85194475D01*
X136056790Y-85115426D01*
X136056786Y-85115424D01*
X136056784Y-85115423D01*
X135904057Y-85074500D01*
X135745943Y-85074500D01*
X135593216Y-85115423D01*
X135593209Y-85115426D01*
X135456290Y-85194475D01*
X135456282Y-85194481D01*
X135344481Y-85306282D01*
X135344475Y-85306290D01*
X135265426Y-85443209D01*
X135265423Y-85443216D01*
X135224500Y-85595943D01*
X135224500Y-85754057D01*
X135261280Y-85891320D01*
X135265423Y-85906783D01*
X135265426Y-85906790D01*
X135344475Y-86043709D01*
X135344481Y-86043717D01*
X135388181Y-86087417D01*
X135421666Y-86148740D01*
X135424500Y-86175098D01*
X135424500Y-86602669D01*
X135451793Y-86704532D01*
X135456298Y-86712334D01*
X135504520Y-86795856D01*
X136556144Y-87847480D01*
X136647469Y-87900207D01*
X136749330Y-87927500D01*
X136749332Y-87927500D01*
X138192825Y-87927500D01*
X138192827Y-87927500D01*
X138294688Y-87900207D01*
X138386013Y-87847480D01*
X139746674Y-86486819D01*
X139807997Y-86453334D01*
X139834355Y-86450500D01*
X147001000Y-86450500D01*
X147068039Y-86470185D01*
X147113794Y-86522989D01*
X147125000Y-86574500D01*
X147125000Y-87647614D01*
X147120775Y-87679706D01*
X147099500Y-87759106D01*
X147099500Y-102675500D01*
X147079815Y-102742539D01*
X147027011Y-102788294D01*
X146975500Y-102799500D01*
X82224500Y-102799500D01*
X82157461Y-102779815D01*
X82111706Y-102727011D01*
X82100500Y-102675500D01*
X82100500Y-93353389D01*
X90499500Y-93353389D01*
X90499500Y-93526610D01*
X90526597Y-93697697D01*
X90526597Y-93697699D01*
X90526598Y-93697701D01*
X90564256Y-93813600D01*
X90580128Y-93862447D01*
X90605042Y-93911344D01*
X90658768Y-94016788D01*
X90760586Y-94156928D01*
X90883072Y-94279414D01*
X91023212Y-94381232D01*
X91177555Y-94459873D01*
X91342299Y-94513402D01*
X91513389Y-94540500D01*
X91513390Y-94540500D01*
X91686610Y-94540500D01*
X91686611Y-94540500D01*
X91857701Y-94513402D01*
X92022445Y-94459873D01*
X92176788Y-94381232D01*
X92316928Y-94279414D01*
X92439414Y-94156928D01*
X92541232Y-94016788D01*
X92619873Y-93862445D01*
X92673402Y-93697701D01*
X92700500Y-93526611D01*
X92700500Y-93353389D01*
X93039500Y-93353389D01*
X93039500Y-93526610D01*
X93066597Y-93697697D01*
X93066597Y-93697699D01*
X93066598Y-93697701D01*
X93104256Y-93813600D01*
X93120128Y-93862447D01*
X93145042Y-93911344D01*
X93198768Y-94016788D01*
X93300586Y-94156928D01*
X93423072Y-94279414D01*
X93563212Y-94381232D01*
X93717555Y-94459873D01*
X93882299Y-94513402D01*
X94053389Y-94540500D01*
X94053390Y-94540500D01*
X94226610Y-94540500D01*
X94226611Y-94540500D01*
X94397701Y-94513402D01*
X94562445Y-94459873D01*
X94716788Y-94381232D01*
X94856928Y-94279414D01*
X94979414Y-94156928D01*
X95081232Y-94016788D01*
X95159873Y-93862445D01*
X95213402Y-93697701D01*
X95240500Y-93526611D01*
X95240500Y-93353389D01*
X95579500Y-93353389D01*
X95579500Y-93526610D01*
X95606597Y-93697697D01*
X95606597Y-93697699D01*
X95606598Y-93697701D01*
X95644256Y-93813600D01*
X95660128Y-93862447D01*
X95685042Y-93911344D01*
X95738768Y-94016788D01*
X95840586Y-94156928D01*
X95963072Y-94279414D01*
X96103212Y-94381232D01*
X96257555Y-94459873D01*
X96422299Y-94513402D01*
X96593389Y-94540500D01*
X96593390Y-94540500D01*
X96766610Y-94540500D01*
X96766611Y-94540500D01*
X96937701Y-94513402D01*
X97102445Y-94459873D01*
X97256788Y-94381232D01*
X97396928Y-94279414D01*
X97519414Y-94156928D01*
X97621232Y-94016788D01*
X97699873Y-93862445D01*
X97753402Y-93697701D01*
X97780500Y-93526611D01*
X97780500Y-93353389D01*
X98119500Y-93353389D01*
X98119500Y-93526610D01*
X98146597Y-93697697D01*
X98146597Y-93697699D01*
X98146598Y-93697701D01*
X98184256Y-93813600D01*
X98200128Y-93862447D01*
X98225042Y-93911344D01*
X98278768Y-94016788D01*
X98380586Y-94156928D01*
X98503072Y-94279414D01*
X98643212Y-94381232D01*
X98797555Y-94459873D01*
X98962299Y-94513402D01*
X99133389Y-94540500D01*
X99133390Y-94540500D01*
X99306610Y-94540500D01*
X99306611Y-94540500D01*
X99477701Y-94513402D01*
X99642445Y-94459873D01*
X99796788Y-94381232D01*
X99936928Y-94279414D01*
X100059414Y-94156928D01*
X100161232Y-94016788D01*
X100239873Y-93862445D01*
X100293402Y-93697701D01*
X100320500Y-93526611D01*
X100320500Y-93353389D01*
X100659500Y-93353389D01*
X100659500Y-93526610D01*
X100686597Y-93697697D01*
X100686597Y-93697699D01*
X100686598Y-93697701D01*
X100724256Y-93813600D01*
X100740128Y-93862447D01*
X100765042Y-93911344D01*
X100818768Y-94016788D01*
X100920586Y-94156928D01*
X101043072Y-94279414D01*
X101183212Y-94381232D01*
X101337555Y-94459873D01*
X101502299Y-94513402D01*
X101673389Y-94540500D01*
X101673390Y-94540500D01*
X101846610Y-94540500D01*
X101846611Y-94540500D01*
X102017701Y-94513402D01*
X102182445Y-94459873D01*
X102336788Y-94381232D01*
X102476928Y-94279414D01*
X102599414Y-94156928D01*
X102701232Y-94016788D01*
X102779873Y-93862445D01*
X102833402Y-93697701D01*
X102860500Y-93526611D01*
X102860500Y-93353389D01*
X102833402Y-93182299D01*
X102779873Y-93017555D01*
X102701232Y-92863212D01*
X102599414Y-92723072D01*
X102476928Y-92600586D01*
X102336788Y-92498768D01*
X102182445Y-92420127D01*
X102017701Y-92366598D01*
X102017699Y-92366597D01*
X102017698Y-92366597D01*
X101886271Y-92345781D01*
X101846611Y-92339500D01*
X101673389Y-92339500D01*
X101633728Y-92345781D01*
X101502302Y-92366597D01*
X101337552Y-92420128D01*
X101183211Y-92498768D01*
X101103256Y-92556859D01*
X101043072Y-92600586D01*
X101043070Y-92600588D01*
X101043069Y-92600588D01*
X100920588Y-92723069D01*
X100920588Y-92723070D01*
X100920586Y-92723072D01*
X100915287Y-92730366D01*
X100818768Y-92863211D01*
X100740128Y-93017552D01*
X100740127Y-93017554D01*
X100740127Y-93017555D01*
X100723977Y-93067259D01*
X100686597Y-93182302D01*
X100659500Y-93353389D01*
X100320500Y-93353389D01*
X100293402Y-93182299D01*
X100239873Y-93017555D01*
X100161232Y-92863212D01*
X100059414Y-92723072D01*
X99936928Y-92600586D01*
X99796788Y-92498768D01*
X99642445Y-92420127D01*
X99477701Y-92366598D01*
X99477699Y-92366597D01*
X99477698Y-92366597D01*
X99346271Y-92345781D01*
X99306611Y-92339500D01*
X99133389Y-92339500D01*
X99093728Y-92345781D01*
X98962302Y-92366597D01*
X98797552Y-92420128D01*
X98643211Y-92498768D01*
X98563256Y-92556859D01*
X98503072Y-92600586D01*
X98503070Y-92600588D01*
X98503069Y-92600588D01*
X98380588Y-92723069D01*
X98380588Y-92723070D01*
X98380586Y-92723072D01*
X98375287Y-92730366D01*
X98278768Y-92863211D01*
X98200128Y-93017552D01*
X98200127Y-93017554D01*
X98200127Y-93017555D01*
X98183977Y-93067259D01*
X98146597Y-93182302D01*
X98119500Y-93353389D01*
X97780500Y-93353389D01*
X97753402Y-93182299D01*
X97699873Y-93017555D01*
X97621232Y-92863212D01*
X97519414Y-92723072D01*
X97396928Y-92600586D01*
X97256788Y-92498768D01*
X97102445Y-92420127D01*
X96937701Y-92366598D01*
X96937699Y-92366597D01*
X96937698Y-92366597D01*
X96806271Y-92345781D01*
X96766611Y-92339500D01*
X96593389Y-92339500D01*
X96553728Y-92345781D01*
X96422302Y-92366597D01*
X96257552Y-92420128D01*
X96103211Y-92498768D01*
X96023256Y-92556859D01*
X95963072Y-92600586D01*
X95963070Y-92600588D01*
X95963069Y-92600588D01*
X95840588Y-92723069D01*
X95840588Y-92723070D01*
X95840586Y-92723072D01*
X95835287Y-92730366D01*
X95738768Y-92863211D01*
X95660128Y-93017552D01*
X95660127Y-93017554D01*
X95660127Y-93017555D01*
X95643977Y-93067259D01*
X95606597Y-93182302D01*
X95579500Y-93353389D01*
X95240500Y-93353389D01*
X95213402Y-93182299D01*
X95159873Y-93017555D01*
X95081232Y-92863212D01*
X94979414Y-92723072D01*
X94856928Y-92600586D01*
X94716788Y-92498768D01*
X94562445Y-92420127D01*
X94397701Y-92366598D01*
X94397699Y-92366597D01*
X94397698Y-92366597D01*
X94266271Y-92345781D01*
X94226611Y-92339500D01*
X94053389Y-92339500D01*
X94013728Y-92345781D01*
X93882302Y-92366597D01*
X93717552Y-92420128D01*
X93563211Y-92498768D01*
X93483256Y-92556859D01*
X93423072Y-92600586D01*
X93423070Y-92600588D01*
X93423069Y-92600588D01*
X93300588Y-92723069D01*
X93300588Y-92723070D01*
X93300586Y-92723072D01*
X93295287Y-92730366D01*
X93198768Y-92863211D01*
X93120128Y-93017552D01*
X93120127Y-93017554D01*
X93120127Y-93017555D01*
X93103977Y-93067259D01*
X93066597Y-93182302D01*
X93039500Y-93353389D01*
X92700500Y-93353389D01*
X92673402Y-93182299D01*
X92619873Y-93017555D01*
X92541232Y-92863212D01*
X92439414Y-92723072D01*
X92316928Y-92600586D01*
X92176788Y-92498768D01*
X92022445Y-92420127D01*
X91857701Y-92366598D01*
X91857699Y-92366597D01*
X91857698Y-92366597D01*
X91726271Y-92345781D01*
X91686611Y-92339500D01*
X91513389Y-92339500D01*
X91473728Y-92345781D01*
X91342302Y-92366597D01*
X91177552Y-92420128D01*
X91023211Y-92498768D01*
X90943256Y-92556859D01*
X90883072Y-92600586D01*
X90883070Y-92600588D01*
X90883069Y-92600588D01*
X90760588Y-92723069D01*
X90760588Y-92723070D01*
X90760586Y-92723072D01*
X90755287Y-92730366D01*
X90658768Y-92863211D01*
X90580128Y-93017552D01*
X90580127Y-93017554D01*
X90580127Y-93017555D01*
X90563977Y-93067259D01*
X90526597Y-93182302D01*
X90499500Y-93353389D01*
X82100500Y-93353389D01*
X82100500Y-88724999D01*
X86025884Y-88724999D01*
X86025885Y-88725000D01*
X87094670Y-88725000D01*
X87074925Y-88744745D01*
X87025556Y-88830255D01*
X87000000Y-88925630D01*
X87000000Y-89024370D01*
X87025556Y-89119745D01*
X87074925Y-89205255D01*
X87094670Y-89225000D01*
X86025885Y-89225000D01*
X86027085Y-89232584D01*
X86080591Y-89397255D01*
X86159195Y-89551524D01*
X86260967Y-89691602D01*
X86383397Y-89814032D01*
X86523475Y-89915804D01*
X86677742Y-89994408D01*
X86842415Y-90047914D01*
X87013429Y-90075000D01*
X87125000Y-90075000D01*
X87125000Y-89255330D01*
X87144745Y-89275075D01*
X87230255Y-89324444D01*
X87325630Y-89350000D01*
X87424370Y-89350000D01*
X87519745Y-89324444D01*
X87605255Y-89275075D01*
X87625000Y-89255330D01*
X87625000Y-90075000D01*
X87736571Y-90075000D01*
X87907584Y-90047914D01*
X88072257Y-89994408D01*
X88226524Y-89915804D01*
X88366602Y-89814032D01*
X88489032Y-89691602D01*
X88590804Y-89551524D01*
X88632842Y-89469021D01*
X93537420Y-89469021D01*
X93537420Y-89627135D01*
X93572026Y-89756284D01*
X93578343Y-89779861D01*
X93578346Y-89779868D01*
X93657395Y-89916787D01*
X93657399Y-89916792D01*
X93657400Y-89916794D01*
X93769204Y-90028598D01*
X93769206Y-90028599D01*
X93769210Y-90028602D01*
X93849575Y-90075000D01*
X93906136Y-90107655D01*
X94058863Y-90148578D01*
X94058865Y-90148578D01*
X94216975Y-90148578D01*
X94216977Y-90148578D01*
X94369704Y-90107655D01*
X94506636Y-90028598D01*
X94618440Y-89916794D01*
X94697497Y-89779862D01*
X94738420Y-89627135D01*
X94738420Y-89469021D01*
X94697497Y-89316294D01*
X94697493Y-89316287D01*
X94618444Y-89179368D01*
X94618438Y-89179360D01*
X94506637Y-89067559D01*
X94506629Y-89067553D01*
X94369710Y-88988504D01*
X94369706Y-88988502D01*
X94369704Y-88988501D01*
X94216977Y-88947578D01*
X94058863Y-88947578D01*
X93906136Y-88988501D01*
X93906129Y-88988504D01*
X93769210Y-89067553D01*
X93769202Y-89067559D01*
X93657401Y-89179360D01*
X93657395Y-89179368D01*
X93578346Y-89316287D01*
X93578343Y-89316294D01*
X93537420Y-89469021D01*
X88632842Y-89469021D01*
X88665667Y-89404599D01*
X88665668Y-89404597D01*
X88669408Y-89397257D01*
X88722914Y-89232584D01*
X88724115Y-89225000D01*
X87655330Y-89225000D01*
X87675075Y-89205255D01*
X87724444Y-89119745D01*
X87750000Y-89024370D01*
X87750000Y-88925630D01*
X87724444Y-88830255D01*
X87675075Y-88744745D01*
X87655330Y-88725000D01*
X88724115Y-88725000D01*
X88724115Y-88724999D01*
X88722914Y-88717415D01*
X88669408Y-88552744D01*
X88590804Y-88398475D01*
X88489032Y-88258397D01*
X88366602Y-88135967D01*
X88226524Y-88034195D01*
X88108166Y-87973889D01*
X88057370Y-87925914D01*
X88040575Y-87858093D01*
X88063112Y-87791958D01*
X88095570Y-87760302D01*
X88106992Y-87752670D01*
X88224035Y-87674464D01*
X88349464Y-87549035D01*
X88448013Y-87401547D01*
X88451794Y-87392420D01*
X88465799Y-87358608D01*
X88515894Y-87237666D01*
X88526936Y-87182157D01*
X88550499Y-87063695D01*
X88550500Y-87063693D01*
X88550500Y-86886306D01*
X88550499Y-86886304D01*
X88515896Y-86712341D01*
X88515893Y-86712332D01*
X88505928Y-86688275D01*
X88449707Y-86552542D01*
X88448016Y-86548459D01*
X88448009Y-86548446D01*
X88349464Y-86400965D01*
X88349461Y-86400961D01*
X88224038Y-86275538D01*
X88224034Y-86275535D01*
X88076553Y-86176990D01*
X88076540Y-86176983D01*
X87912667Y-86109106D01*
X87912658Y-86109103D01*
X87849882Y-86096617D01*
X87787971Y-86064232D01*
X87753397Y-86003517D01*
X87757136Y-85933747D01*
X87798003Y-85877075D01*
X87849882Y-85853383D01*
X87912658Y-85840896D01*
X87912661Y-85840894D01*
X87912666Y-85840894D01*
X88076547Y-85773013D01*
X88224035Y-85674464D01*
X88349464Y-85549035D01*
X88448013Y-85401547D01*
X88515894Y-85237666D01*
X88519503Y-85219525D01*
X88550499Y-85063695D01*
X88550500Y-85063693D01*
X88550500Y-84886306D01*
X88550499Y-84886304D01*
X88515896Y-84712341D01*
X88515893Y-84712332D01*
X88515830Y-84712181D01*
X88481178Y-84628522D01*
X88448016Y-84548459D01*
X88448009Y-84548446D01*
X88349464Y-84400965D01*
X88349461Y-84400961D01*
X88224038Y-84275538D01*
X88224034Y-84275535D01*
X88076553Y-84176990D01*
X88076541Y-84176983D01*
X87940628Y-84120688D01*
X87924627Y-84114060D01*
X87870224Y-84070221D01*
X87848159Y-84003927D01*
X87865438Y-83936227D01*
X87916575Y-83888617D01*
X87972080Y-83875500D01*
X88043097Y-83875500D01*
X88043102Y-83875500D01*
X88131564Y-83864877D01*
X88272342Y-83809361D01*
X88392922Y-83717922D01*
X88484361Y-83597342D01*
X88539877Y-83456564D01*
X88550500Y-83368102D01*
X88550500Y-82581898D01*
X88539877Y-82493436D01*
X88484361Y-82352658D01*
X88484360Y-82352657D01*
X88484360Y-82352656D01*
X88392922Y-82232077D01*
X88295821Y-82158443D01*
X96374500Y-82158443D01*
X96374500Y-82316557D01*
X96404955Y-82430214D01*
X96415423Y-82469283D01*
X96415426Y-82469290D01*
X96494475Y-82606209D01*
X96494479Y-82606214D01*
X96494480Y-82606216D01*
X96606284Y-82718020D01*
X96606286Y-82718021D01*
X96606290Y-82718024D01*
X96743209Y-82797073D01*
X96743216Y-82797077D01*
X96895943Y-82838000D01*
X96895945Y-82838000D01*
X97054055Y-82838000D01*
X97054057Y-82838000D01*
X97206784Y-82797077D01*
X97343716Y-82718020D01*
X97455520Y-82606216D01*
X97534577Y-82469284D01*
X97575500Y-82316557D01*
X97575500Y-82158443D01*
X97534577Y-82005716D01*
X97513211Y-81968709D01*
X97455524Y-81868790D01*
X97455518Y-81868782D01*
X97343717Y-81756981D01*
X97343709Y-81756975D01*
X97206790Y-81677926D01*
X97206786Y-81677924D01*
X97206784Y-81677923D01*
X97054057Y-81637000D01*
X96895943Y-81637000D01*
X96743216Y-81677923D01*
X96743209Y-81677926D01*
X96606290Y-81756975D01*
X96606282Y-81756981D01*
X96494481Y-81868782D01*
X96494475Y-81868790D01*
X96415426Y-82005709D01*
X96415423Y-82005716D01*
X96374500Y-82158443D01*
X88295821Y-82158443D01*
X88272343Y-82140639D01*
X88131561Y-82085122D01*
X88082074Y-82079180D01*
X88043102Y-82074500D01*
X86706898Y-82074500D01*
X86667934Y-82079179D01*
X86618438Y-82085122D01*
X86477656Y-82140639D01*
X86357077Y-82232077D01*
X86265639Y-82352656D01*
X86210122Y-82493438D01*
X86204188Y-82542853D01*
X86199500Y-82581898D01*
X86199500Y-83368102D01*
X86205126Y-83414954D01*
X86210122Y-83456561D01*
X86265639Y-83597343D01*
X86357077Y-83717922D01*
X86477656Y-83809360D01*
X86477657Y-83809360D01*
X86477658Y-83809361D01*
X86618436Y-83864877D01*
X86706898Y-83875500D01*
X86706903Y-83875500D01*
X86777920Y-83875500D01*
X86844959Y-83895185D01*
X86890714Y-83947989D01*
X86900658Y-84017147D01*
X86871633Y-84080703D01*
X86825372Y-84114060D01*
X86809372Y-84120688D01*
X86673458Y-84176983D01*
X86673446Y-84176990D01*
X86525965Y-84275535D01*
X86525961Y-84275538D01*
X86400538Y-84400961D01*
X86400535Y-84400965D01*
X86301990Y-84548446D01*
X86301983Y-84548459D01*
X86234106Y-84712332D01*
X86234103Y-84712341D01*
X86199500Y-84886304D01*
X86199500Y-85063695D01*
X86234103Y-85237658D01*
X86234106Y-85237667D01*
X86301983Y-85401540D01*
X86301990Y-85401553D01*
X86400535Y-85549034D01*
X86400538Y-85549038D01*
X86525961Y-85674461D01*
X86525965Y-85674464D01*
X86673446Y-85773009D01*
X86673459Y-85773016D01*
X86728816Y-85795945D01*
X86837334Y-85840894D01*
X86855548Y-85844517D01*
X86900118Y-85853383D01*
X86962028Y-85885768D01*
X86996603Y-85946484D01*
X86992863Y-86016253D01*
X86951996Y-86072925D01*
X86900118Y-86096617D01*
X86837340Y-86109104D01*
X86837332Y-86109106D01*
X86673459Y-86176983D01*
X86673446Y-86176990D01*
X86525965Y-86275535D01*
X86525961Y-86275538D01*
X86400538Y-86400961D01*
X86400535Y-86400965D01*
X86301990Y-86548446D01*
X86301983Y-86548459D01*
X86234106Y-86712332D01*
X86234103Y-86712341D01*
X86199500Y-86886304D01*
X86199500Y-87063695D01*
X86234103Y-87237658D01*
X86234106Y-87237667D01*
X86301983Y-87401540D01*
X86301990Y-87401553D01*
X86400535Y-87549034D01*
X86400538Y-87549038D01*
X86525961Y-87674461D01*
X86525965Y-87674464D01*
X86654429Y-87760302D01*
X86699234Y-87813914D01*
X86707941Y-87883239D01*
X86677786Y-87946267D01*
X86641833Y-87973889D01*
X86523475Y-88034195D01*
X86383397Y-88135967D01*
X86260967Y-88258397D01*
X86159195Y-88398475D01*
X86080591Y-88552744D01*
X86027085Y-88717415D01*
X86025884Y-88724999D01*
X82100500Y-88724999D01*
X82100500Y-77355131D01*
X90499500Y-77355131D01*
X90499500Y-79044856D01*
X90499502Y-79044882D01*
X90502413Y-79069987D01*
X90502415Y-79069991D01*
X90547793Y-79172764D01*
X90547794Y-79172765D01*
X90627235Y-79252206D01*
X90730009Y-79297585D01*
X90755135Y-79300500D01*
X92082744Y-79300499D01*
X92149783Y-79320184D01*
X92170425Y-79336818D01*
X93529518Y-80695910D01*
X93529520Y-80695913D01*
X93604087Y-80770480D01*
X93634504Y-80788041D01*
X93695413Y-80823207D01*
X93797274Y-80850501D01*
X93797277Y-80850501D01*
X93910323Y-80850501D01*
X93910339Y-80850500D01*
X105082745Y-80850500D01*
X105149784Y-80870185D01*
X105170426Y-80886819D01*
X108770426Y-84486819D01*
X108803911Y-84548142D01*
X108798927Y-84617834D01*
X108757055Y-84673767D01*
X108691591Y-84698184D01*
X108682745Y-84698500D01*
X107799098Y-84698500D01*
X107732059Y-84678815D01*
X107711417Y-84662181D01*
X107693717Y-84644481D01*
X107693709Y-84644475D01*
X107556790Y-84565426D01*
X107556786Y-84565424D01*
X107556784Y-84565423D01*
X107404057Y-84524500D01*
X107274098Y-84524500D01*
X107207059Y-84504815D01*
X107161304Y-84452011D01*
X107151360Y-84382853D01*
X107180385Y-84319297D01*
X107186417Y-84312819D01*
X107207844Y-84291392D01*
X107230520Y-84268716D01*
X107309577Y-84131784D01*
X107350500Y-83979057D01*
X107350500Y-83820943D01*
X107309577Y-83668216D01*
X107298935Y-83649784D01*
X107230524Y-83531290D01*
X107230518Y-83531282D01*
X107118717Y-83419481D01*
X107118709Y-83419475D01*
X106981790Y-83340426D01*
X106981786Y-83340424D01*
X106981784Y-83340423D01*
X106829057Y-83299500D01*
X106670943Y-83299500D01*
X106518216Y-83340423D01*
X106518209Y-83340426D01*
X106381290Y-83419475D01*
X106381282Y-83419481D01*
X106269481Y-83531282D01*
X106269475Y-83531290D01*
X106190426Y-83668209D01*
X106190423Y-83668216D01*
X106149500Y-83820943D01*
X106149500Y-83979057D01*
X106184347Y-84109106D01*
X106190423Y-84131783D01*
X106190426Y-84131790D01*
X106269475Y-84268709D01*
X106269479Y-84268714D01*
X106269480Y-84268716D01*
X106381284Y-84380520D01*
X106381286Y-84380521D01*
X106381290Y-84380524D01*
X106505111Y-84452011D01*
X106518216Y-84459577D01*
X106670943Y-84500500D01*
X106670945Y-84500500D01*
X106800902Y-84500500D01*
X106867941Y-84520185D01*
X106913696Y-84572989D01*
X106923640Y-84642147D01*
X106894615Y-84705703D01*
X106888583Y-84712181D01*
X106844481Y-84756282D01*
X106844475Y-84756290D01*
X106765426Y-84893209D01*
X106765423Y-84893216D01*
X106724500Y-85045943D01*
X106724500Y-85204057D01*
X106763472Y-85349500D01*
X106765423Y-85356783D01*
X106765426Y-85356790D01*
X106844475Y-85493709D01*
X106844479Y-85493714D01*
X106844480Y-85493716D01*
X106956284Y-85605520D01*
X106956286Y-85605521D01*
X106956290Y-85605524D01*
X107081351Y-85677727D01*
X107093216Y-85684577D01*
X107245943Y-85725500D01*
X107245945Y-85725500D01*
X107404055Y-85725500D01*
X107404057Y-85725500D01*
X107556784Y-85684577D01*
X107693716Y-85605520D01*
X107763417Y-85535819D01*
X107824740Y-85502334D01*
X107851098Y-85499500D01*
X108225500Y-85499500D01*
X108292539Y-85519185D01*
X108338294Y-85571989D01*
X108349500Y-85623500D01*
X108349500Y-85779057D01*
X108386922Y-85918716D01*
X108390423Y-85931783D01*
X108390426Y-85931790D01*
X108469475Y-86068709D01*
X108469481Y-86068717D01*
X108479631Y-86078867D01*
X108513116Y-86140190D01*
X108515950Y-86166548D01*
X108515950Y-87738723D01*
X108515950Y-87844177D01*
X108518725Y-87854532D01*
X108543243Y-87946039D01*
X108543375Y-87946267D01*
X108595970Y-88037363D01*
X108595972Y-88037365D01*
X111513106Y-90954499D01*
X111546591Y-91015822D01*
X111541607Y-91085514D01*
X111504664Y-91137559D01*
X111496553Y-91144296D01*
X111431284Y-91181980D01*
X111333535Y-91279728D01*
X111329133Y-91283386D01*
X111302096Y-91295060D01*
X111276251Y-91309173D01*
X111270386Y-91308753D01*
X111264988Y-91311085D01*
X111235934Y-91306289D01*
X111206560Y-91304189D01*
X111201851Y-91300664D01*
X111196051Y-91299707D01*
X111174203Y-91279966D01*
X111150627Y-91262317D01*
X111147464Y-91255806D01*
X111144209Y-91252865D01*
X111141900Y-91244353D01*
X111130121Y-91220104D01*
X111109787Y-91144216D01*
X111075896Y-91085514D01*
X111030734Y-91007290D01*
X111030728Y-91007282D01*
X110918927Y-90895481D01*
X110918919Y-90895475D01*
X110782000Y-90816426D01*
X110781996Y-90816424D01*
X110781994Y-90816423D01*
X110629267Y-90775500D01*
X110471153Y-90775500D01*
X110318426Y-90816423D01*
X110318419Y-90816426D01*
X110181500Y-90895475D01*
X110181492Y-90895481D01*
X110069691Y-91007282D01*
X110069685Y-91007290D01*
X109990636Y-91144209D01*
X109990633Y-91144216D01*
X109949710Y-91296943D01*
X109949710Y-91455057D01*
X109965386Y-91513558D01*
X109990633Y-91607783D01*
X109990636Y-91607790D01*
X110069685Y-91744709D01*
X110069689Y-91744714D01*
X110069690Y-91744716D01*
X110181494Y-91856520D01*
X110181496Y-91856521D01*
X110181500Y-91856524D01*
X110246914Y-91894290D01*
X110318426Y-91935577D01*
X110471153Y-91976500D01*
X110471155Y-91976500D01*
X110629265Y-91976500D01*
X110629267Y-91976500D01*
X110781994Y-91935577D01*
X110918926Y-91856520D01*
X111012637Y-91762808D01*
X111073956Y-91729326D01*
X111143648Y-91734310D01*
X111199582Y-91776181D01*
X111220088Y-91818395D01*
X111240423Y-91894284D01*
X111240424Y-91894285D01*
X111240426Y-91894290D01*
X111319475Y-92031209D01*
X111319481Y-92031217D01*
X111368214Y-92079950D01*
X111401699Y-92141273D01*
X111396715Y-92210965D01*
X111354843Y-92266898D01*
X111336828Y-92278116D01*
X111238650Y-92328140D01*
X111073105Y-92448417D01*
X111073104Y-92448417D01*
X110928417Y-92593104D01*
X110928417Y-92593105D01*
X110808140Y-92758650D01*
X110715244Y-92940968D01*
X110663047Y-93101614D01*
X110623609Y-93159289D01*
X110559250Y-93186487D01*
X110490404Y-93174572D01*
X110438928Y-93127328D01*
X110427186Y-93101615D01*
X110399873Y-93017555D01*
X110321232Y-92863212D01*
X110219414Y-92723072D01*
X110096928Y-92600586D01*
X109956788Y-92498768D01*
X109802445Y-92420127D01*
X109637701Y-92366598D01*
X109637699Y-92366597D01*
X109637698Y-92366597D01*
X109506271Y-92345781D01*
X109466611Y-92339500D01*
X109293389Y-92339500D01*
X109253728Y-92345781D01*
X109122302Y-92366597D01*
X108957552Y-92420128D01*
X108803211Y-92498768D01*
X108723256Y-92556859D01*
X108663072Y-92600586D01*
X108663070Y-92600588D01*
X108663069Y-92600588D01*
X108540588Y-92723069D01*
X108540588Y-92723070D01*
X108540586Y-92723072D01*
X108535287Y-92730366D01*
X108438768Y-92863211D01*
X108360128Y-93017552D01*
X108360127Y-93017554D01*
X108360127Y-93017555D01*
X108343977Y-93067259D01*
X108306597Y-93182302D01*
X108279500Y-93353389D01*
X108279500Y-93526610D01*
X108306597Y-93697697D01*
X108306597Y-93697699D01*
X108306598Y-93697701D01*
X108344256Y-93813600D01*
X108360128Y-93862447D01*
X108385042Y-93911344D01*
X108438768Y-94016788D01*
X108540586Y-94156928D01*
X108663072Y-94279414D01*
X108803212Y-94381232D01*
X108957555Y-94459873D01*
X109122299Y-94513402D01*
X109293389Y-94540500D01*
X109293390Y-94540500D01*
X109466610Y-94540500D01*
X109466611Y-94540500D01*
X109637701Y-94513402D01*
X109802445Y-94459873D01*
X109956788Y-94381232D01*
X110096928Y-94279414D01*
X110219414Y-94156928D01*
X110321232Y-94016788D01*
X110399873Y-93862445D01*
X110427186Y-93778384D01*
X110466622Y-93720711D01*
X110530981Y-93693512D01*
X110599827Y-93705427D01*
X110651303Y-93752671D01*
X110663047Y-93778385D01*
X110715244Y-93939031D01*
X110808140Y-94121349D01*
X110928417Y-94286894D01*
X110928417Y-94286895D01*
X111073104Y-94431582D01*
X111238650Y-94551859D01*
X111420968Y-94644754D01*
X111615578Y-94707988D01*
X111670000Y-94716607D01*
X111670000Y-93755686D01*
X111674394Y-93760080D01*
X111765606Y-93812741D01*
X111867339Y-93840000D01*
X111972661Y-93840000D01*
X112074394Y-93812741D01*
X112165606Y-93760080D01*
X112170000Y-93755686D01*
X112170000Y-94716606D01*
X112224421Y-94707988D01*
X112419031Y-94644754D01*
X112601349Y-94551859D01*
X112766894Y-94431582D01*
X112766895Y-94431582D01*
X112911582Y-94286895D01*
X112911582Y-94286894D01*
X113031859Y-94121349D01*
X113124755Y-93939029D01*
X113187990Y-93744413D01*
X113196609Y-93690000D01*
X112235686Y-93690000D01*
X112240080Y-93685606D01*
X112292741Y-93594394D01*
X112320000Y-93492661D01*
X112320000Y-93387339D01*
X112292741Y-93285606D01*
X112240080Y-93194394D01*
X112235686Y-93190000D01*
X113196609Y-93190000D01*
X113187990Y-93135586D01*
X113124755Y-92940970D01*
X113090807Y-92874342D01*
X113077911Y-92805673D01*
X113104187Y-92740932D01*
X113161294Y-92700675D01*
X113231099Y-92697683D01*
X113288973Y-92730366D01*
X115496426Y-94937819D01*
X115529911Y-94999142D01*
X115524927Y-95068834D01*
X115483055Y-95124767D01*
X115417591Y-95149184D01*
X115408745Y-95149500D01*
X106627254Y-95149500D01*
X106560215Y-95129815D01*
X106539573Y-95113181D01*
X105365993Y-93939600D01*
X105332508Y-93878277D01*
X105335742Y-93813603D01*
X105373402Y-93697701D01*
X105400500Y-93526611D01*
X105400500Y-93353389D01*
X105739500Y-93353389D01*
X105739500Y-93526610D01*
X105766597Y-93697697D01*
X105766597Y-93697699D01*
X105766598Y-93697701D01*
X105804256Y-93813600D01*
X105820128Y-93862447D01*
X105845042Y-93911344D01*
X105898768Y-94016788D01*
X106000586Y-94156928D01*
X106123072Y-94279414D01*
X106263212Y-94381232D01*
X106417555Y-94459873D01*
X106582299Y-94513402D01*
X106753389Y-94540500D01*
X106753390Y-94540500D01*
X106926610Y-94540500D01*
X106926611Y-94540500D01*
X107097701Y-94513402D01*
X107262445Y-94459873D01*
X107416788Y-94381232D01*
X107556928Y-94279414D01*
X107679414Y-94156928D01*
X107781232Y-94016788D01*
X107859873Y-93862445D01*
X107913402Y-93697701D01*
X107940500Y-93526611D01*
X107940500Y-93353389D01*
X107913402Y-93182299D01*
X107859873Y-93017555D01*
X107781232Y-92863212D01*
X107679414Y-92723072D01*
X107556928Y-92600586D01*
X107416788Y-92498768D01*
X107262445Y-92420127D01*
X107097701Y-92366598D01*
X107097699Y-92366597D01*
X107097698Y-92366597D01*
X106966271Y-92345781D01*
X106926611Y-92339500D01*
X106753389Y-92339500D01*
X106713728Y-92345781D01*
X106582302Y-92366597D01*
X106417552Y-92420128D01*
X106263211Y-92498768D01*
X106183256Y-92556859D01*
X106123072Y-92600586D01*
X106123070Y-92600588D01*
X106123069Y-92600588D01*
X106000588Y-92723069D01*
X106000588Y-92723070D01*
X106000586Y-92723072D01*
X105995287Y-92730366D01*
X105898768Y-92863211D01*
X105820128Y-93017552D01*
X105820127Y-93017554D01*
X105820127Y-93017555D01*
X105803977Y-93067259D01*
X105766597Y-93182302D01*
X105739500Y-93353389D01*
X105400500Y-93353389D01*
X105373402Y-93182299D01*
X105319873Y-93017555D01*
X105241232Y-92863212D01*
X105139414Y-92723072D01*
X105016928Y-92600586D01*
X104876788Y-92498768D01*
X104722445Y-92420127D01*
X104557701Y-92366598D01*
X104557699Y-92366597D01*
X104557698Y-92366597D01*
X104426271Y-92345781D01*
X104386611Y-92339500D01*
X104213389Y-92339500D01*
X104173728Y-92345781D01*
X104042302Y-92366597D01*
X103877552Y-92420128D01*
X103723211Y-92498768D01*
X103643256Y-92556859D01*
X103583072Y-92600586D01*
X103583070Y-92600588D01*
X103583069Y-92600588D01*
X103460588Y-92723069D01*
X103460588Y-92723070D01*
X103460586Y-92723072D01*
X103455287Y-92730366D01*
X103358768Y-92863211D01*
X103280128Y-93017552D01*
X103280127Y-93017554D01*
X103280127Y-93017555D01*
X103263977Y-93067259D01*
X103226597Y-93182302D01*
X103199500Y-93353389D01*
X103199500Y-93526610D01*
X103226597Y-93697697D01*
X103226597Y-93697699D01*
X103226598Y-93697701D01*
X103264256Y-93813600D01*
X103280128Y-93862447D01*
X103305042Y-93911344D01*
X103358768Y-94016788D01*
X103460586Y-94156928D01*
X103583072Y-94279414D01*
X103723212Y-94381232D01*
X103877555Y-94459873D01*
X104042299Y-94513402D01*
X104213389Y-94540500D01*
X104213390Y-94540500D01*
X104386610Y-94540500D01*
X104386611Y-94540500D01*
X104557701Y-94513402D01*
X104673602Y-94475742D01*
X104743442Y-94473748D01*
X104799600Y-94505993D01*
X106085179Y-95791571D01*
X106085189Y-95791582D01*
X106089519Y-95795912D01*
X106089520Y-95795913D01*
X106164087Y-95870480D01*
X106255413Y-95923207D01*
X106357273Y-95950501D01*
X106357275Y-95950501D01*
X106470323Y-95950501D01*
X106470339Y-95950500D01*
X127842725Y-95950500D01*
X127842727Y-95950500D01*
X127944588Y-95923207D01*
X128035913Y-95870480D01*
X129400401Y-94505990D01*
X129461722Y-94472507D01*
X129526393Y-94475741D01*
X129642299Y-94513402D01*
X129813389Y-94540500D01*
X129813390Y-94540500D01*
X129986610Y-94540500D01*
X129986611Y-94540500D01*
X130157701Y-94513402D01*
X130322445Y-94459873D01*
X130476788Y-94381232D01*
X130616928Y-94279414D01*
X130739414Y-94156928D01*
X130841232Y-94016788D01*
X130919873Y-93862445D01*
X130973402Y-93697701D01*
X131000500Y-93526611D01*
X131000500Y-93353389D01*
X131339500Y-93353389D01*
X131339500Y-93526610D01*
X131366597Y-93697697D01*
X131366597Y-93697699D01*
X131366598Y-93697701D01*
X131404256Y-93813600D01*
X131420128Y-93862447D01*
X131445042Y-93911344D01*
X131498768Y-94016788D01*
X131600586Y-94156928D01*
X131723072Y-94279414D01*
X131863212Y-94381232D01*
X132017555Y-94459873D01*
X132182299Y-94513402D01*
X132353389Y-94540500D01*
X132353390Y-94540500D01*
X132526610Y-94540500D01*
X132526611Y-94540500D01*
X132697701Y-94513402D01*
X132862445Y-94459873D01*
X133016788Y-94381232D01*
X133156928Y-94279414D01*
X133279414Y-94156928D01*
X133381232Y-94016788D01*
X133459873Y-93862445D01*
X133513402Y-93697701D01*
X133540500Y-93526611D01*
X133540500Y-93353389D01*
X133879500Y-93353389D01*
X133879500Y-93526610D01*
X133906597Y-93697697D01*
X133906597Y-93697699D01*
X133906598Y-93697701D01*
X133944256Y-93813600D01*
X133960128Y-93862447D01*
X133985042Y-93911344D01*
X134038768Y-94016788D01*
X134140586Y-94156928D01*
X134263072Y-94279414D01*
X134403212Y-94381232D01*
X134557555Y-94459873D01*
X134722299Y-94513402D01*
X134893389Y-94540500D01*
X134893390Y-94540500D01*
X135066610Y-94540500D01*
X135066611Y-94540500D01*
X135237701Y-94513402D01*
X135402445Y-94459873D01*
X135556788Y-94381232D01*
X135696928Y-94279414D01*
X135819414Y-94156928D01*
X135921232Y-94016788D01*
X135999873Y-93862445D01*
X136027186Y-93778384D01*
X136066622Y-93720711D01*
X136130981Y-93693512D01*
X136199827Y-93705427D01*
X136251303Y-93752671D01*
X136263047Y-93778385D01*
X136315244Y-93939031D01*
X136408140Y-94121349D01*
X136528417Y-94286894D01*
X136528417Y-94286895D01*
X136673104Y-94431582D01*
X136838650Y-94551859D01*
X137020968Y-94644754D01*
X137215578Y-94707988D01*
X137270000Y-94716607D01*
X137270000Y-93755686D01*
X137274394Y-93760080D01*
X137365606Y-93812741D01*
X137467339Y-93840000D01*
X137572661Y-93840000D01*
X137674394Y-93812741D01*
X137765606Y-93760080D01*
X137770000Y-93755686D01*
X137770000Y-94716606D01*
X137824421Y-94707988D01*
X138019031Y-94644754D01*
X138201349Y-94551859D01*
X138366894Y-94431582D01*
X138366895Y-94431582D01*
X138511582Y-94286895D01*
X138511582Y-94286894D01*
X138631859Y-94121349D01*
X138724755Y-93939029D01*
X138787990Y-93744413D01*
X138796609Y-93690000D01*
X137835686Y-93690000D01*
X137840080Y-93685606D01*
X137892741Y-93594394D01*
X137920000Y-93492661D01*
X137920000Y-93387339D01*
X137892741Y-93285606D01*
X137840080Y-93194394D01*
X137835686Y-93190000D01*
X138796609Y-93190000D01*
X138787990Y-93135586D01*
X138724755Y-92940970D01*
X138631859Y-92758650D01*
X138511582Y-92593105D01*
X138511582Y-92593104D01*
X138366895Y-92448417D01*
X138201349Y-92328140D01*
X138019029Y-92235244D01*
X137824413Y-92172009D01*
X137770000Y-92163390D01*
X137770000Y-93124314D01*
X137765606Y-93119920D01*
X137674394Y-93067259D01*
X137572661Y-93040000D01*
X137467339Y-93040000D01*
X137365606Y-93067259D01*
X137274394Y-93119920D01*
X137270000Y-93124314D01*
X137270000Y-92163390D01*
X137215586Y-92172009D01*
X137020970Y-92235244D01*
X136838650Y-92328140D01*
X136673105Y-92448417D01*
X136673104Y-92448417D01*
X136528417Y-92593104D01*
X136528417Y-92593105D01*
X136408140Y-92758650D01*
X136315244Y-92940968D01*
X136263047Y-93101614D01*
X136223609Y-93159289D01*
X136159250Y-93186487D01*
X136090404Y-93174572D01*
X136038928Y-93127328D01*
X136027186Y-93101615D01*
X135999873Y-93017555D01*
X135921232Y-92863212D01*
X135819414Y-92723072D01*
X135696928Y-92600586D01*
X135556788Y-92498768D01*
X135402445Y-92420127D01*
X135237701Y-92366598D01*
X135237699Y-92366597D01*
X135237698Y-92366597D01*
X135106271Y-92345781D01*
X135066611Y-92339500D01*
X134893389Y-92339500D01*
X134853728Y-92345781D01*
X134722302Y-92366597D01*
X134557552Y-92420128D01*
X134403211Y-92498768D01*
X134323256Y-92556859D01*
X134263072Y-92600586D01*
X134263070Y-92600588D01*
X134263069Y-92600588D01*
X134140588Y-92723069D01*
X134140588Y-92723070D01*
X134140586Y-92723072D01*
X134135287Y-92730366D01*
X134038768Y-92863211D01*
X133960128Y-93017552D01*
X133960127Y-93017554D01*
X133960127Y-93017555D01*
X133943977Y-93067259D01*
X133906597Y-93182302D01*
X133879500Y-93353389D01*
X133540500Y-93353389D01*
X133513402Y-93182299D01*
X133459873Y-93017555D01*
X133381232Y-92863212D01*
X133279414Y-92723072D01*
X133156928Y-92600586D01*
X133016788Y-92498768D01*
X132862445Y-92420127D01*
X132697701Y-92366598D01*
X132697699Y-92366597D01*
X132697698Y-92366597D01*
X132566271Y-92345781D01*
X132526611Y-92339500D01*
X132353389Y-92339500D01*
X132313728Y-92345781D01*
X132182302Y-92366597D01*
X132017552Y-92420128D01*
X131863211Y-92498768D01*
X131783256Y-92556859D01*
X131723072Y-92600586D01*
X131723070Y-92600588D01*
X131723069Y-92600588D01*
X131600588Y-92723069D01*
X131600588Y-92723070D01*
X131600586Y-92723072D01*
X131595287Y-92730366D01*
X131498768Y-92863211D01*
X131420128Y-93017552D01*
X131420127Y-93017554D01*
X131420127Y-93017555D01*
X131403977Y-93067259D01*
X131366597Y-93182302D01*
X131339500Y-93353389D01*
X131000500Y-93353389D01*
X130973402Y-93182299D01*
X130919873Y-93017555D01*
X130841232Y-92863212D01*
X130739414Y-92723072D01*
X130616928Y-92600586D01*
X130476788Y-92498768D01*
X130322445Y-92420127D01*
X130157701Y-92366598D01*
X130157699Y-92366597D01*
X130157698Y-92366597D01*
X130026271Y-92345781D01*
X129986611Y-92339500D01*
X129813389Y-92339500D01*
X129773728Y-92345781D01*
X129642302Y-92366597D01*
X129477552Y-92420128D01*
X129323211Y-92498768D01*
X129243256Y-92556859D01*
X129183072Y-92600586D01*
X129183070Y-92600588D01*
X129183069Y-92600588D01*
X129060588Y-92723069D01*
X129060588Y-92723070D01*
X129060586Y-92723072D01*
X129055287Y-92730366D01*
X128958768Y-92863211D01*
X128880128Y-93017552D01*
X128880127Y-93017554D01*
X128880127Y-93017555D01*
X128863977Y-93067259D01*
X128826597Y-93182302D01*
X128799500Y-93353389D01*
X128799500Y-93526610D01*
X128826597Y-93697698D01*
X128864256Y-93813600D01*
X128866251Y-93883441D01*
X128834006Y-93939599D01*
X127660426Y-95113181D01*
X127599103Y-95146666D01*
X127572745Y-95149500D01*
X126516255Y-95149500D01*
X126449216Y-95129815D01*
X126403461Y-95077011D01*
X126393517Y-95007853D01*
X126422542Y-94944297D01*
X126428574Y-94937819D01*
X126721638Y-94644754D01*
X126860401Y-94505990D01*
X126921722Y-94472507D01*
X126986393Y-94475741D01*
X127102299Y-94513402D01*
X127273389Y-94540500D01*
X127273390Y-94540500D01*
X127446610Y-94540500D01*
X127446611Y-94540500D01*
X127617701Y-94513402D01*
X127782445Y-94459873D01*
X127936788Y-94381232D01*
X128076928Y-94279414D01*
X128199414Y-94156928D01*
X128301232Y-94016788D01*
X128379873Y-93862445D01*
X128433402Y-93697701D01*
X128460500Y-93526611D01*
X128460500Y-93353389D01*
X128433402Y-93182299D01*
X128379873Y-93017555D01*
X128301232Y-92863212D01*
X128199414Y-92723072D01*
X128076928Y-92600586D01*
X127936788Y-92498768D01*
X127782445Y-92420127D01*
X127617701Y-92366598D01*
X127617699Y-92366597D01*
X127617698Y-92366597D01*
X127486271Y-92345781D01*
X127446611Y-92339500D01*
X127273389Y-92339500D01*
X127233728Y-92345781D01*
X127102302Y-92366597D01*
X126937552Y-92420128D01*
X126783211Y-92498768D01*
X126703256Y-92556859D01*
X126643072Y-92600586D01*
X126643070Y-92600588D01*
X126643069Y-92600588D01*
X126520588Y-92723069D01*
X126520588Y-92723070D01*
X126520586Y-92723072D01*
X126515287Y-92730366D01*
X126418768Y-92863211D01*
X126340128Y-93017552D01*
X126340127Y-93017554D01*
X126340127Y-93017555D01*
X126323977Y-93067259D01*
X126286597Y-93182302D01*
X126259500Y-93353389D01*
X126259500Y-93526610D01*
X126286597Y-93697698D01*
X126324256Y-93813600D01*
X126326251Y-93883441D01*
X126294006Y-93939599D01*
X125521426Y-94712181D01*
X125460103Y-94745666D01*
X125433745Y-94748500D01*
X125137048Y-94748500D01*
X125070009Y-94728815D01*
X125024254Y-94676011D01*
X125014310Y-94606853D01*
X125043335Y-94543297D01*
X125098729Y-94506569D01*
X125242445Y-94459873D01*
X125396788Y-94381232D01*
X125536928Y-94279414D01*
X125659414Y-94156928D01*
X125761232Y-94016788D01*
X125839873Y-93862445D01*
X125893402Y-93697701D01*
X125920500Y-93526611D01*
X125920500Y-93353389D01*
X125893402Y-93182299D01*
X125839873Y-93017555D01*
X125761232Y-92863212D01*
X125659414Y-92723072D01*
X125536928Y-92600586D01*
X125466858Y-92549677D01*
X125396786Y-92498766D01*
X125288206Y-92443443D01*
X125237409Y-92395469D01*
X125220500Y-92332958D01*
X125220500Y-91341540D01*
X128269200Y-91341540D01*
X128269200Y-91488459D01*
X128297858Y-91632534D01*
X128297861Y-91632544D01*
X128354078Y-91768266D01*
X128354083Y-91768275D01*
X128435698Y-91890419D01*
X128435701Y-91890423D01*
X128539576Y-91994298D01*
X128539580Y-91994301D01*
X128661724Y-92075916D01*
X128661730Y-92075919D01*
X128661731Y-92075920D01*
X128797458Y-92132140D01*
X128941540Y-92160799D01*
X128941544Y-92160800D01*
X128941545Y-92160800D01*
X129088456Y-92160800D01*
X129088457Y-92160799D01*
X129232542Y-92132140D01*
X129368269Y-92075920D01*
X129490420Y-91994301D01*
X129594301Y-91890420D01*
X129675920Y-91768269D01*
X129732140Y-91632542D01*
X129760800Y-91488455D01*
X129760800Y-91341545D01*
X129732140Y-91197458D01*
X129675920Y-91061731D01*
X129675919Y-91061730D01*
X129675916Y-91061724D01*
X129594301Y-90939580D01*
X129594298Y-90939576D01*
X129490423Y-90835701D01*
X129490419Y-90835698D01*
X129368275Y-90754083D01*
X129368266Y-90754078D01*
X129232544Y-90697861D01*
X129232545Y-90697861D01*
X129232542Y-90697860D01*
X129232538Y-90697859D01*
X129232534Y-90697858D01*
X129088459Y-90669200D01*
X129088455Y-90669200D01*
X128941545Y-90669200D01*
X128941540Y-90669200D01*
X128797465Y-90697858D01*
X128797455Y-90697861D01*
X128661733Y-90754078D01*
X128661724Y-90754083D01*
X128539580Y-90835698D01*
X128539576Y-90835701D01*
X128435701Y-90939576D01*
X128435698Y-90939580D01*
X128354083Y-91061724D01*
X128354078Y-91061733D01*
X128297861Y-91197455D01*
X128297858Y-91197465D01*
X128269200Y-91341540D01*
X125220500Y-91341540D01*
X125220500Y-90567275D01*
X125220499Y-90567271D01*
X125200784Y-90493690D01*
X125193207Y-90465412D01*
X125140480Y-90374087D01*
X124812336Y-90045943D01*
X130374500Y-90045943D01*
X130374500Y-90204057D01*
X130389377Y-90259576D01*
X130415423Y-90356783D01*
X130415426Y-90356790D01*
X130494475Y-90493709D01*
X130494479Y-90493714D01*
X130494480Y-90493716D01*
X130606284Y-90605520D01*
X130606286Y-90605521D01*
X130606290Y-90605524D01*
X130716582Y-90669200D01*
X130743216Y-90684577D01*
X130895943Y-90725500D01*
X130895945Y-90725500D01*
X131054055Y-90725500D01*
X131054057Y-90725500D01*
X131206784Y-90684577D01*
X131343716Y-90605520D01*
X131455520Y-90493716D01*
X131534577Y-90356784D01*
X131575500Y-90204057D01*
X131575500Y-90045943D01*
X131534577Y-89893216D01*
X131488861Y-89814032D01*
X131455524Y-89756290D01*
X131455518Y-89756282D01*
X131343717Y-89644481D01*
X131343712Y-89644477D01*
X131304468Y-89621820D01*
X131256253Y-89571254D01*
X131243029Y-89502647D01*
X131268997Y-89437782D01*
X131304464Y-89407048D01*
X131393716Y-89355520D01*
X131505520Y-89243716D01*
X131584577Y-89106784D01*
X131625500Y-88954057D01*
X131625500Y-88795943D01*
X131584577Y-88643216D01*
X131570878Y-88619489D01*
X131505524Y-88506290D01*
X131505518Y-88506282D01*
X131393717Y-88394481D01*
X131393709Y-88394475D01*
X131256790Y-88315426D01*
X131256786Y-88315424D01*
X131256784Y-88315423D01*
X131104057Y-88274500D01*
X130945943Y-88274500D01*
X130793216Y-88315423D01*
X130793209Y-88315426D01*
X130656290Y-88394475D01*
X130656282Y-88394481D01*
X130544481Y-88506282D01*
X130544475Y-88506290D01*
X130465426Y-88643209D01*
X130465423Y-88643216D01*
X130424500Y-88795943D01*
X130424500Y-88954057D01*
X130454913Y-89067558D01*
X130465423Y-89106783D01*
X130465426Y-89106790D01*
X130544475Y-89243709D01*
X130544479Y-89243714D01*
X130544480Y-89243716D01*
X130656284Y-89355520D01*
X130695531Y-89378179D01*
X130743746Y-89428745D01*
X130756970Y-89497352D01*
X130731002Y-89562217D01*
X130695531Y-89592953D01*
X130606287Y-89644477D01*
X130606282Y-89644481D01*
X130494481Y-89756282D01*
X130494475Y-89756290D01*
X130415426Y-89893209D01*
X130415423Y-89893216D01*
X130374500Y-90045943D01*
X124812336Y-90045943D01*
X124384084Y-89617691D01*
X124350599Y-89556368D01*
X124355583Y-89486676D01*
X124397455Y-89430743D01*
X124462919Y-89406326D01*
X124471765Y-89406010D01*
X124510041Y-89406010D01*
X124596749Y-89392275D01*
X124688899Y-89377681D01*
X124861129Y-89321721D01*
X125022484Y-89239506D01*
X125168991Y-89133063D01*
X125297043Y-89005011D01*
X125403486Y-88858504D01*
X125485701Y-88697149D01*
X125541661Y-88524919D01*
X125561688Y-88398475D01*
X125569990Y-88346061D01*
X125569990Y-88164958D01*
X125549278Y-88034195D01*
X125541661Y-87986101D01*
X125503175Y-87867652D01*
X125485702Y-87813873D01*
X125485701Y-87813870D01*
X125441183Y-87726500D01*
X125403486Y-87652516D01*
X125350491Y-87579574D01*
X125297048Y-87506015D01*
X125297044Y-87506010D01*
X125168989Y-87377955D01*
X125168984Y-87377951D01*
X125022487Y-87271516D01*
X125022486Y-87271515D01*
X125022484Y-87271514D01*
X124956054Y-87237666D01*
X124861129Y-87189298D01*
X124861126Y-87189297D01*
X124688900Y-87133339D01*
X124510041Y-87105010D01*
X124510036Y-87105010D01*
X124328944Y-87105010D01*
X124328939Y-87105010D01*
X124150079Y-87133339D01*
X123977853Y-87189297D01*
X123977850Y-87189298D01*
X123816492Y-87271516D01*
X123669995Y-87377951D01*
X123669990Y-87377955D01*
X123541935Y-87506010D01*
X123541931Y-87506015D01*
X123435496Y-87652512D01*
X123353278Y-87813870D01*
X123353277Y-87813873D01*
X123297319Y-87986099D01*
X123268990Y-88164958D01*
X123268990Y-88203235D01*
X123249305Y-88270274D01*
X123196501Y-88316029D01*
X123127343Y-88325973D01*
X123063787Y-88296948D01*
X123057309Y-88290916D01*
X120346866Y-85580473D01*
X122099500Y-85580473D01*
X122099500Y-85738587D01*
X122137278Y-85879574D01*
X122140423Y-85891313D01*
X122140426Y-85891320D01*
X122219475Y-86028239D01*
X122219479Y-86028244D01*
X122219480Y-86028246D01*
X122331284Y-86140050D01*
X122331286Y-86140051D01*
X122331290Y-86140054D01*
X122423783Y-86193454D01*
X122468216Y-86219107D01*
X122620943Y-86260030D01*
X122620945Y-86260030D01*
X122779055Y-86260030D01*
X122779057Y-86260030D01*
X122931784Y-86219107D01*
X123068716Y-86140050D01*
X123180520Y-86028246D01*
X123259577Y-85891314D01*
X123285132Y-85795943D01*
X125224500Y-85795943D01*
X125224500Y-85954057D01*
X125261766Y-86093133D01*
X125265423Y-86106783D01*
X125265426Y-86106790D01*
X125344475Y-86243709D01*
X125344479Y-86243714D01*
X125344480Y-86243716D01*
X125456284Y-86355520D01*
X125456286Y-86355521D01*
X125456290Y-86355524D01*
X125547978Y-86408459D01*
X125593216Y-86434577D01*
X125745943Y-86475500D01*
X125745945Y-86475500D01*
X125904055Y-86475500D01*
X125904057Y-86475500D01*
X126056784Y-86434577D01*
X126193716Y-86355520D01*
X126287696Y-86261540D01*
X127253200Y-86261540D01*
X127253200Y-86408459D01*
X127281858Y-86552534D01*
X127281861Y-86552544D01*
X127338078Y-86688266D01*
X127338083Y-86688275D01*
X127419698Y-86810419D01*
X127419701Y-86810423D01*
X127523576Y-86914298D01*
X127523580Y-86914301D01*
X127645724Y-86995916D01*
X127645730Y-86995919D01*
X127645731Y-86995920D01*
X127781458Y-87052140D01*
X127925540Y-87080799D01*
X127925544Y-87080800D01*
X127925545Y-87080800D01*
X128072456Y-87080800D01*
X128072457Y-87080799D01*
X128216542Y-87052140D01*
X128352269Y-86995920D01*
X128474420Y-86914301D01*
X128578301Y-86810420D01*
X128659920Y-86688269D01*
X128716140Y-86552542D01*
X128744800Y-86408455D01*
X128744800Y-86261545D01*
X128744799Y-86261540D01*
X129285200Y-86261540D01*
X129285200Y-86408459D01*
X129313858Y-86552534D01*
X129313861Y-86552544D01*
X129370078Y-86688266D01*
X129370083Y-86688275D01*
X129451698Y-86810419D01*
X129451701Y-86810423D01*
X129555576Y-86914298D01*
X129555580Y-86914301D01*
X129677724Y-86995916D01*
X129677730Y-86995919D01*
X129677731Y-86995920D01*
X129813458Y-87052140D01*
X129957540Y-87080799D01*
X129957544Y-87080800D01*
X129957545Y-87080800D01*
X130104456Y-87080800D01*
X130104457Y-87080799D01*
X130248542Y-87052140D01*
X130384269Y-86995920D01*
X130506420Y-86914301D01*
X130610301Y-86810420D01*
X130691920Y-86688269D01*
X130748140Y-86552542D01*
X130776800Y-86408455D01*
X130776800Y-86261545D01*
X130748140Y-86117458D01*
X130691920Y-85981731D01*
X130691919Y-85981730D01*
X130691916Y-85981724D01*
X130610301Y-85859580D01*
X130610298Y-85859576D01*
X130506423Y-85755701D01*
X130506419Y-85755698D01*
X130384275Y-85674083D01*
X130384262Y-85674076D01*
X130248547Y-85617862D01*
X130248546Y-85617861D01*
X130248542Y-85617860D01*
X130248537Y-85617859D01*
X130248534Y-85617858D01*
X130104459Y-85589200D01*
X130104455Y-85589200D01*
X129957545Y-85589200D01*
X129957540Y-85589200D01*
X129813465Y-85617858D01*
X129813455Y-85617861D01*
X129677733Y-85674078D01*
X129677724Y-85674083D01*
X129555580Y-85755698D01*
X129555576Y-85755701D01*
X129451701Y-85859576D01*
X129451698Y-85859580D01*
X129370083Y-85981724D01*
X129370078Y-85981733D01*
X129313861Y-86117455D01*
X129313858Y-86117465D01*
X129285200Y-86261540D01*
X128744799Y-86261540D01*
X128716140Y-86117458D01*
X128659920Y-85981731D01*
X128659919Y-85981730D01*
X128659916Y-85981724D01*
X128578301Y-85859580D01*
X128578298Y-85859576D01*
X128474423Y-85755701D01*
X128474419Y-85755698D01*
X128352275Y-85674083D01*
X128352266Y-85674078D01*
X128241611Y-85628244D01*
X128216542Y-85617860D01*
X128216538Y-85617859D01*
X128216534Y-85617858D01*
X128072459Y-85589200D01*
X128072455Y-85589200D01*
X127925545Y-85589200D01*
X127925540Y-85589200D01*
X127781465Y-85617858D01*
X127781455Y-85617861D01*
X127645733Y-85674078D01*
X127645724Y-85674083D01*
X127523580Y-85755698D01*
X127523576Y-85755701D01*
X127419701Y-85859576D01*
X127419698Y-85859580D01*
X127338083Y-85981724D01*
X127338078Y-85981733D01*
X127281861Y-86117455D01*
X127281858Y-86117465D01*
X127253200Y-86261540D01*
X126287696Y-86261540D01*
X126305520Y-86243716D01*
X126384577Y-86106784D01*
X126425500Y-85954057D01*
X126425500Y-85795943D01*
X126384577Y-85643216D01*
X126369939Y-85617862D01*
X126307191Y-85509178D01*
X131536265Y-85509178D01*
X131536265Y-85667292D01*
X131570738Y-85795945D01*
X131577188Y-85820018D01*
X131577191Y-85820025D01*
X131656240Y-85956944D01*
X131656244Y-85956949D01*
X131656245Y-85956951D01*
X131768049Y-86068755D01*
X131768051Y-86068756D01*
X131768055Y-86068759D01*
X131891779Y-86140190D01*
X131904981Y-86147812D01*
X132057708Y-86188735D01*
X132057710Y-86188735D01*
X132215820Y-86188735D01*
X132215822Y-86188735D01*
X132368549Y-86147812D01*
X132505481Y-86068755D01*
X132617285Y-85956951D01*
X132696342Y-85820019D01*
X132737265Y-85667292D01*
X132737265Y-85509178D01*
X132696342Y-85356451D01*
X132680525Y-85329055D01*
X132617289Y-85219525D01*
X132617283Y-85219517D01*
X132505482Y-85107716D01*
X132505474Y-85107710D01*
X132368555Y-85028661D01*
X132368551Y-85028659D01*
X132368549Y-85028658D01*
X132215822Y-84987735D01*
X132057708Y-84987735D01*
X131904981Y-85028658D01*
X131904974Y-85028661D01*
X131768055Y-85107710D01*
X131768047Y-85107716D01*
X131656246Y-85219517D01*
X131656240Y-85219525D01*
X131577191Y-85356444D01*
X131577188Y-85356451D01*
X131536265Y-85509178D01*
X126307191Y-85509178D01*
X126305524Y-85506290D01*
X126305518Y-85506282D01*
X126193717Y-85394481D01*
X126193709Y-85394475D01*
X126056790Y-85315426D01*
X126056786Y-85315424D01*
X126056784Y-85315423D01*
X125904057Y-85274500D01*
X125745943Y-85274500D01*
X125593216Y-85315423D01*
X125593209Y-85315426D01*
X125456290Y-85394475D01*
X125456282Y-85394481D01*
X125344481Y-85506282D01*
X125344475Y-85506290D01*
X125265426Y-85643209D01*
X125265423Y-85643216D01*
X125224500Y-85795943D01*
X123285132Y-85795943D01*
X123300500Y-85738587D01*
X123300500Y-85580473D01*
X123259577Y-85427746D01*
X123218611Y-85356790D01*
X123180524Y-85290820D01*
X123180518Y-85290812D01*
X123068717Y-85179011D01*
X123068709Y-85179005D01*
X122931790Y-85099956D01*
X122931786Y-85099954D01*
X122931784Y-85099953D01*
X122779057Y-85059030D01*
X122620943Y-85059030D01*
X122468216Y-85099953D01*
X122468209Y-85099956D01*
X122331290Y-85179005D01*
X122331282Y-85179011D01*
X122219481Y-85290812D01*
X122219475Y-85290820D01*
X122140426Y-85427739D01*
X122140423Y-85427746D01*
X122099500Y-85580473D01*
X120346866Y-85580473D01*
X119394915Y-84628522D01*
X119394913Y-84628520D01*
X119349250Y-84602156D01*
X119303589Y-84575793D01*
X119252657Y-84562146D01*
X119201727Y-84548500D01*
X119201726Y-84548500D01*
X117884355Y-84548500D01*
X117817316Y-84528815D01*
X117771561Y-84476011D01*
X117761617Y-84406853D01*
X117790642Y-84343297D01*
X117796674Y-84336819D01*
X117857958Y-84275535D01*
X117921480Y-84212013D01*
X117974207Y-84120688D01*
X118001500Y-84018827D01*
X118001500Y-83913373D01*
X118001500Y-81520943D01*
X120299500Y-81520943D01*
X120299500Y-81679057D01*
X120333415Y-81805627D01*
X120340423Y-81831783D01*
X120340426Y-81831790D01*
X120419475Y-81968709D01*
X120419479Y-81968714D01*
X120419480Y-81968716D01*
X120531284Y-82080520D01*
X120531286Y-82080521D01*
X120531290Y-82080524D01*
X120598765Y-82119480D01*
X120668216Y-82159577D01*
X120820943Y-82200500D01*
X120820945Y-82200500D01*
X120979055Y-82200500D01*
X120979057Y-82200500D01*
X121131784Y-82159577D01*
X121268716Y-82080520D01*
X121380520Y-81968716D01*
X121459577Y-81831784D01*
X121500500Y-81679057D01*
X121500500Y-81520943D01*
X121459577Y-81368216D01*
X121458803Y-81366876D01*
X121380524Y-81231290D01*
X121380518Y-81231282D01*
X121268717Y-81119481D01*
X121268709Y-81119475D01*
X121131790Y-81040426D01*
X121131786Y-81040424D01*
X121131784Y-81040423D01*
X120979057Y-80999500D01*
X120820943Y-80999500D01*
X120668216Y-81040423D01*
X120668209Y-81040426D01*
X120531290Y-81119475D01*
X120531282Y-81119481D01*
X120419481Y-81231282D01*
X120419475Y-81231290D01*
X120340426Y-81368209D01*
X120340423Y-81368216D01*
X120299500Y-81520943D01*
X118001500Y-81520943D01*
X118001500Y-80556254D01*
X118021185Y-80489215D01*
X118037814Y-80468578D01*
X119240401Y-79265990D01*
X119301722Y-79232507D01*
X119366393Y-79235741D01*
X119482299Y-79273402D01*
X119653389Y-79300500D01*
X119653390Y-79300500D01*
X119826610Y-79300500D01*
X119826611Y-79300500D01*
X119997701Y-79273402D01*
X120162445Y-79219873D01*
X120316788Y-79141232D01*
X120456928Y-79039414D01*
X120579414Y-78916928D01*
X120681232Y-78776788D01*
X120759873Y-78622445D01*
X120813402Y-78457701D01*
X120840500Y-78286611D01*
X120840500Y-78113389D01*
X120813402Y-77942299D01*
X120759873Y-77777555D01*
X120710061Y-77679794D01*
X120709553Y-77677089D01*
X120707753Y-77675011D01*
X120703144Y-77642961D01*
X120697166Y-77611126D01*
X120698200Y-77608576D01*
X120697809Y-77605853D01*
X120711262Y-77576394D01*
X120723442Y-77546385D01*
X120725691Y-77544799D01*
X120726834Y-77542297D01*
X120754077Y-77524788D01*
X120780549Y-77506128D01*
X120784005Y-77505555D01*
X120785612Y-77504523D01*
X120820547Y-77499500D01*
X120961745Y-77499500D01*
X121028784Y-77519185D01*
X121049426Y-77535819D01*
X121214006Y-77700399D01*
X121247491Y-77761722D01*
X121244256Y-77826397D01*
X121206598Y-77942297D01*
X121206597Y-77942301D01*
X121179500Y-78113389D01*
X121179500Y-78286610D01*
X121206597Y-78457697D01*
X121206597Y-78457699D01*
X121206598Y-78457701D01*
X121260127Y-78622445D01*
X121338768Y-78776788D01*
X121440586Y-78916928D01*
X121563072Y-79039414D01*
X121703212Y-79141232D01*
X121857555Y-79219873D01*
X122022299Y-79273402D01*
X122193389Y-79300500D01*
X122193390Y-79300500D01*
X122366610Y-79300500D01*
X122366611Y-79300500D01*
X122537701Y-79273402D01*
X122702445Y-79219873D01*
X122856788Y-79141232D01*
X122996928Y-79039414D01*
X123119414Y-78916928D01*
X123221232Y-78776788D01*
X123299873Y-78622445D01*
X123327186Y-78538384D01*
X123366622Y-78480711D01*
X123430981Y-78453512D01*
X123499827Y-78465427D01*
X123551303Y-78512671D01*
X123563047Y-78538385D01*
X123615244Y-78699031D01*
X123708140Y-78881349D01*
X123828417Y-79046894D01*
X123828417Y-79046895D01*
X123973104Y-79191582D01*
X124138650Y-79311859D01*
X124320968Y-79404754D01*
X124515578Y-79467988D01*
X124570000Y-79476607D01*
X124570000Y-78515686D01*
X124574394Y-78520080D01*
X124665606Y-78572741D01*
X124767339Y-78600000D01*
X124872661Y-78600000D01*
X124974394Y-78572741D01*
X125065606Y-78520080D01*
X125070000Y-78515686D01*
X125070000Y-79476606D01*
X125124421Y-79467988D01*
X125319031Y-79404754D01*
X125501349Y-79311859D01*
X125666894Y-79191582D01*
X125666895Y-79191582D01*
X125811582Y-79046895D01*
X125811582Y-79046894D01*
X125931859Y-78881349D01*
X125979515Y-78787820D01*
X126027489Y-78737024D01*
X126095310Y-78720229D01*
X126161445Y-78742766D01*
X126200485Y-78787820D01*
X126248140Y-78881349D01*
X126368417Y-79046894D01*
X126368417Y-79046895D01*
X126513104Y-79191582D01*
X126678650Y-79311859D01*
X126860968Y-79404754D01*
X127055578Y-79467988D01*
X127110000Y-79476607D01*
X127110000Y-78515686D01*
X127114394Y-78520080D01*
X127205606Y-78572741D01*
X127307339Y-78600000D01*
X127412661Y-78600000D01*
X127514394Y-78572741D01*
X127605606Y-78520080D01*
X127610000Y-78515686D01*
X127610000Y-79476606D01*
X127664421Y-79467988D01*
X127859031Y-79404754D01*
X128041349Y-79311859D01*
X128206894Y-79191582D01*
X128206895Y-79191582D01*
X128351582Y-79046895D01*
X128351582Y-79046894D01*
X128471859Y-78881349D01*
X128564755Y-78699029D01*
X128616952Y-78538386D01*
X128656389Y-78480710D01*
X128720748Y-78453512D01*
X128789594Y-78465427D01*
X128841070Y-78512671D01*
X128852814Y-78538385D01*
X128880128Y-78622449D01*
X128949691Y-78758974D01*
X128958768Y-78776788D01*
X129060586Y-78916928D01*
X129183072Y-79039414D01*
X129323212Y-79141232D01*
X129477555Y-79219873D01*
X129642299Y-79273402D01*
X129813389Y-79300500D01*
X129813390Y-79300500D01*
X129986610Y-79300500D01*
X129986611Y-79300500D01*
X130157701Y-79273402D01*
X130322445Y-79219873D01*
X130476788Y-79141232D01*
X130616928Y-79039414D01*
X130739414Y-78916928D01*
X130841232Y-78776788D01*
X130919873Y-78622445D01*
X130973402Y-78457701D01*
X131000500Y-78286611D01*
X131000500Y-78113389D01*
X131339500Y-78113389D01*
X131339500Y-78286610D01*
X131366597Y-78457697D01*
X131366597Y-78457699D01*
X131366598Y-78457701D01*
X131420127Y-78622445D01*
X131498768Y-78776788D01*
X131600586Y-78916928D01*
X131723072Y-79039414D01*
X131863212Y-79141232D01*
X132017555Y-79219873D01*
X132182299Y-79273402D01*
X132353389Y-79300500D01*
X132353390Y-79300500D01*
X132526610Y-79300500D01*
X132526611Y-79300500D01*
X132697701Y-79273402D01*
X132862445Y-79219873D01*
X133016788Y-79141232D01*
X133156928Y-79039414D01*
X133279414Y-78916928D01*
X133381232Y-78776788D01*
X133459873Y-78622445D01*
X133513402Y-78457701D01*
X133540500Y-78286611D01*
X133540500Y-78113389D01*
X133879500Y-78113389D01*
X133879500Y-78286610D01*
X133906597Y-78457697D01*
X133906597Y-78457699D01*
X133906598Y-78457701D01*
X133960127Y-78622445D01*
X134038768Y-78776788D01*
X134140586Y-78916928D01*
X134263072Y-79039414D01*
X134403212Y-79141232D01*
X134557555Y-79219873D01*
X134722299Y-79273402D01*
X134893389Y-79300500D01*
X134893390Y-79300500D01*
X135066610Y-79300500D01*
X135066611Y-79300500D01*
X135237701Y-79273402D01*
X135402445Y-79219873D01*
X135556788Y-79141232D01*
X135696928Y-79039414D01*
X135819414Y-78916928D01*
X135921232Y-78776788D01*
X135999873Y-78622445D01*
X136053402Y-78457701D01*
X136080500Y-78286611D01*
X136080500Y-78113389D01*
X136419500Y-78113389D01*
X136419500Y-78286610D01*
X136446597Y-78457697D01*
X136446597Y-78457699D01*
X136446598Y-78457701D01*
X136500127Y-78622445D01*
X136578768Y-78776788D01*
X136680586Y-78916928D01*
X136803072Y-79039414D01*
X136943212Y-79141232D01*
X137097555Y-79219873D01*
X137262299Y-79273402D01*
X137433389Y-79300500D01*
X137433390Y-79300500D01*
X137606610Y-79300500D01*
X137606611Y-79300500D01*
X137777701Y-79273402D01*
X137942445Y-79219873D01*
X138096788Y-79141232D01*
X138236928Y-79039414D01*
X138359414Y-78916928D01*
X138461232Y-78776788D01*
X138539873Y-78622445D01*
X138593402Y-78457701D01*
X138620500Y-78286611D01*
X138620500Y-78113389D01*
X138593402Y-77942299D01*
X138539873Y-77777555D01*
X138461232Y-77623212D01*
X138359414Y-77483072D01*
X138236928Y-77360586D01*
X138096788Y-77258768D01*
X137942445Y-77180127D01*
X137777701Y-77126598D01*
X137777699Y-77126597D01*
X137777698Y-77126597D01*
X137639682Y-77104738D01*
X137606611Y-77099500D01*
X137433389Y-77099500D01*
X137400318Y-77104738D01*
X137262302Y-77126597D01*
X137097552Y-77180128D01*
X136943211Y-77258768D01*
X136911336Y-77281927D01*
X136803072Y-77360586D01*
X136803070Y-77360588D01*
X136803069Y-77360588D01*
X136680588Y-77483069D01*
X136680588Y-77483070D01*
X136680586Y-77483072D01*
X136648545Y-77527173D01*
X136578768Y-77623211D01*
X136500128Y-77777552D01*
X136446597Y-77942302D01*
X136419500Y-78113389D01*
X136080500Y-78113389D01*
X136053402Y-77942299D01*
X135999873Y-77777555D01*
X135921232Y-77623212D01*
X135819414Y-77483072D01*
X135696928Y-77360586D01*
X135556788Y-77258768D01*
X135402445Y-77180127D01*
X135237701Y-77126598D01*
X135237699Y-77126597D01*
X135237698Y-77126597D01*
X135099682Y-77104738D01*
X135066611Y-77099500D01*
X134893389Y-77099500D01*
X134860318Y-77104738D01*
X134722302Y-77126597D01*
X134557552Y-77180128D01*
X134403211Y-77258768D01*
X134371336Y-77281927D01*
X134263072Y-77360586D01*
X134263070Y-77360588D01*
X134263069Y-77360588D01*
X134140588Y-77483069D01*
X134140588Y-77483070D01*
X134140586Y-77483072D01*
X134108545Y-77527173D01*
X134038768Y-77623211D01*
X133960128Y-77777552D01*
X133906597Y-77942302D01*
X133879500Y-78113389D01*
X133540500Y-78113389D01*
X133513402Y-77942299D01*
X133459873Y-77777555D01*
X133381232Y-77623212D01*
X133279414Y-77483072D01*
X133156928Y-77360586D01*
X133016788Y-77258768D01*
X132862445Y-77180127D01*
X132697701Y-77126598D01*
X132697699Y-77126597D01*
X132697698Y-77126597D01*
X132559682Y-77104738D01*
X132526611Y-77099500D01*
X132353389Y-77099500D01*
X132320318Y-77104738D01*
X132182302Y-77126597D01*
X132017552Y-77180128D01*
X131863211Y-77258768D01*
X131831336Y-77281927D01*
X131723072Y-77360586D01*
X131723070Y-77360588D01*
X131723069Y-77360588D01*
X131600588Y-77483069D01*
X131600588Y-77483070D01*
X131600586Y-77483072D01*
X131568545Y-77527173D01*
X131498768Y-77623211D01*
X131420128Y-77777552D01*
X131366597Y-77942302D01*
X131339500Y-78113389D01*
X131000500Y-78113389D01*
X130973402Y-77942299D01*
X130919873Y-77777555D01*
X130841232Y-77623212D01*
X130739414Y-77483072D01*
X130616928Y-77360586D01*
X130476788Y-77258768D01*
X130322445Y-77180127D01*
X130157701Y-77126598D01*
X130157699Y-77126597D01*
X130157698Y-77126597D01*
X130019682Y-77104738D01*
X129986611Y-77099500D01*
X129813389Y-77099500D01*
X129781192Y-77104599D01*
X129642301Y-77126597D01*
X129642297Y-77126598D01*
X129526397Y-77164256D01*
X129456556Y-77166251D01*
X129400399Y-77134006D01*
X128643915Y-76377522D01*
X128643913Y-76377520D01*
X128598250Y-76351156D01*
X128552589Y-76324793D01*
X128501657Y-76311146D01*
X128450727Y-76297500D01*
X115985627Y-76297500D01*
X115880173Y-76297500D01*
X115778310Y-76324793D01*
X115686987Y-76377520D01*
X115686984Y-76377522D01*
X114730522Y-77333984D01*
X114730518Y-77333990D01*
X114677792Y-77425312D01*
X114677793Y-77425313D01*
X114650500Y-77527173D01*
X114650500Y-77531688D01*
X114630815Y-77598727D01*
X114614181Y-77619369D01*
X113471369Y-78762181D01*
X113410046Y-78795666D01*
X113383688Y-78798500D01*
X113052519Y-78798500D01*
X112985480Y-78778815D01*
X112939725Y-78726011D01*
X112929781Y-78656853D01*
X112939062Y-78627391D01*
X112938006Y-78626954D01*
X112939870Y-78622452D01*
X112939872Y-78622447D01*
X112939873Y-78622445D01*
X112993402Y-78457701D01*
X113020500Y-78286611D01*
X113020500Y-78113389D01*
X112993402Y-77942299D01*
X112939873Y-77777555D01*
X112861232Y-77623212D01*
X112759414Y-77483072D01*
X112636928Y-77360586D01*
X112496788Y-77258768D01*
X112342445Y-77180127D01*
X112177701Y-77126598D01*
X112177699Y-77126597D01*
X112177698Y-77126597D01*
X112039682Y-77104738D01*
X112006611Y-77099500D01*
X111833389Y-77099500D01*
X111800318Y-77104738D01*
X111662302Y-77126597D01*
X111497552Y-77180128D01*
X111343211Y-77258768D01*
X111311336Y-77281927D01*
X111203072Y-77360586D01*
X111203070Y-77360588D01*
X111203069Y-77360588D01*
X111080588Y-77483069D01*
X111080588Y-77483070D01*
X111080586Y-77483072D01*
X111048545Y-77527173D01*
X110978768Y-77623211D01*
X110900128Y-77777552D01*
X110846597Y-77942302D01*
X110819500Y-78113389D01*
X110819500Y-78286610D01*
X110846597Y-78457697D01*
X110846597Y-78457699D01*
X110846598Y-78457701D01*
X110900127Y-78622445D01*
X110978768Y-78776788D01*
X111019300Y-78832576D01*
X111021048Y-78834981D01*
X111044528Y-78900788D01*
X111028703Y-78968842D01*
X110982731Y-79015253D01*
X110924424Y-79048917D01*
X108770426Y-81202916D01*
X108709103Y-81236401D01*
X108682745Y-81239235D01*
X108620943Y-81239235D01*
X108468216Y-81280158D01*
X108468209Y-81280161D01*
X108331290Y-81359210D01*
X108331282Y-81359216D01*
X108219481Y-81471017D01*
X108219475Y-81471025D01*
X108140426Y-81607944D01*
X108140423Y-81607951D01*
X108099500Y-81760678D01*
X108099500Y-81783745D01*
X108079815Y-81850784D01*
X108027011Y-81896539D01*
X107957853Y-81906483D01*
X107894297Y-81877458D01*
X107887819Y-81871426D01*
X105595915Y-79579522D01*
X105595913Y-79579520D01*
X105550250Y-79553156D01*
X105504589Y-79526793D01*
X105453657Y-79513146D01*
X105402727Y-79499500D01*
X105402726Y-79499500D01*
X104644747Y-79499500D01*
X104577708Y-79479815D01*
X104531953Y-79427011D01*
X104522009Y-79357853D01*
X104551034Y-79294297D01*
X104606428Y-79257569D01*
X104722445Y-79219873D01*
X104876788Y-79141232D01*
X105016928Y-79039414D01*
X105139414Y-78916928D01*
X105241232Y-78776788D01*
X105319873Y-78622445D01*
X105373402Y-78457701D01*
X105400500Y-78286611D01*
X105400500Y-78113389D01*
X105739500Y-78113389D01*
X105739500Y-78286610D01*
X105766597Y-78457697D01*
X105766597Y-78457699D01*
X105766598Y-78457701D01*
X105820127Y-78622445D01*
X105898768Y-78776788D01*
X106000586Y-78916928D01*
X106123072Y-79039414D01*
X106263212Y-79141232D01*
X106417555Y-79219873D01*
X106582299Y-79273402D01*
X106753389Y-79300500D01*
X106753390Y-79300500D01*
X106926610Y-79300500D01*
X106926611Y-79300500D01*
X107097701Y-79273402D01*
X107262445Y-79219873D01*
X107416788Y-79141232D01*
X107556928Y-79039414D01*
X107679414Y-78916928D01*
X107781232Y-78776788D01*
X107859873Y-78622445D01*
X107913402Y-78457701D01*
X107940500Y-78286611D01*
X107940500Y-78113389D01*
X108279500Y-78113389D01*
X108279500Y-78286610D01*
X108306597Y-78457697D01*
X108306597Y-78457699D01*
X108306598Y-78457701D01*
X108360127Y-78622445D01*
X108438768Y-78776788D01*
X108540586Y-78916928D01*
X108663072Y-79039414D01*
X108803212Y-79141232D01*
X108957555Y-79219873D01*
X109122299Y-79273402D01*
X109293389Y-79300500D01*
X109293390Y-79300500D01*
X109466610Y-79300500D01*
X109466611Y-79300500D01*
X109637701Y-79273402D01*
X109802445Y-79219873D01*
X109956788Y-79141232D01*
X110096928Y-79039414D01*
X110219414Y-78916928D01*
X110321232Y-78776788D01*
X110399873Y-78622445D01*
X110453402Y-78457701D01*
X110480500Y-78286611D01*
X110480500Y-78113389D01*
X110453402Y-77942299D01*
X110399873Y-77777555D01*
X110321232Y-77623212D01*
X110219414Y-77483072D01*
X110096928Y-77360586D01*
X109956788Y-77258768D01*
X109802445Y-77180127D01*
X109637701Y-77126598D01*
X109637699Y-77126597D01*
X109637698Y-77126597D01*
X109499682Y-77104738D01*
X109466611Y-77099500D01*
X109293389Y-77099500D01*
X109260318Y-77104738D01*
X109122302Y-77126597D01*
X108957552Y-77180128D01*
X108803211Y-77258768D01*
X108771336Y-77281927D01*
X108663072Y-77360586D01*
X108663070Y-77360588D01*
X108663069Y-77360588D01*
X108540588Y-77483069D01*
X108540588Y-77483070D01*
X108540586Y-77483072D01*
X108508545Y-77527173D01*
X108438768Y-77623211D01*
X108360128Y-77777552D01*
X108306597Y-77942302D01*
X108279500Y-78113389D01*
X107940500Y-78113389D01*
X107913402Y-77942299D01*
X107859873Y-77777555D01*
X107781232Y-77623212D01*
X107679414Y-77483072D01*
X107556928Y-77360586D01*
X107416788Y-77258768D01*
X107262445Y-77180127D01*
X107097701Y-77126598D01*
X107097699Y-77126597D01*
X107097698Y-77126597D01*
X106959682Y-77104738D01*
X106926611Y-77099500D01*
X106753389Y-77099500D01*
X106720318Y-77104738D01*
X106582302Y-77126597D01*
X106417552Y-77180128D01*
X106263211Y-77258768D01*
X106231336Y-77281927D01*
X106123072Y-77360586D01*
X106123070Y-77360588D01*
X106123069Y-77360588D01*
X106000588Y-77483069D01*
X106000588Y-77483070D01*
X106000586Y-77483072D01*
X105968545Y-77527173D01*
X105898768Y-77623211D01*
X105820128Y-77777552D01*
X105766597Y-77942302D01*
X105739500Y-78113389D01*
X105400500Y-78113389D01*
X105373402Y-77942299D01*
X105319873Y-77777555D01*
X105241232Y-77623212D01*
X105139414Y-77483072D01*
X105016928Y-77360586D01*
X104876788Y-77258768D01*
X104722445Y-77180127D01*
X104557701Y-77126598D01*
X104557699Y-77126597D01*
X104557698Y-77126597D01*
X104419682Y-77104738D01*
X104386611Y-77099500D01*
X104213389Y-77099500D01*
X104180318Y-77104738D01*
X104042302Y-77126597D01*
X103877552Y-77180128D01*
X103723211Y-77258768D01*
X103691336Y-77281927D01*
X103583072Y-77360586D01*
X103583070Y-77360588D01*
X103583069Y-77360588D01*
X103460588Y-77483069D01*
X103460588Y-77483070D01*
X103460586Y-77483072D01*
X103428545Y-77527173D01*
X103358768Y-77623211D01*
X103280129Y-77777549D01*
X103252814Y-77861615D01*
X103213375Y-77919290D01*
X103149016Y-77946487D01*
X103080170Y-77934572D01*
X103028695Y-77887327D01*
X103016952Y-77861613D01*
X102964755Y-77700970D01*
X102871859Y-77518650D01*
X102751582Y-77353105D01*
X102751582Y-77353104D01*
X102606895Y-77208417D01*
X102441349Y-77088140D01*
X102259029Y-76995244D01*
X102064413Y-76932009D01*
X102010000Y-76923390D01*
X102010000Y-77884314D01*
X102005606Y-77879920D01*
X101914394Y-77827259D01*
X101812661Y-77800000D01*
X101707339Y-77800000D01*
X101605606Y-77827259D01*
X101514394Y-77879920D01*
X101510000Y-77884314D01*
X101510000Y-76923390D01*
X101455586Y-76932009D01*
X101260970Y-76995244D01*
X101078650Y-77088140D01*
X100913105Y-77208417D01*
X100913104Y-77208417D01*
X100768417Y-77353104D01*
X100768417Y-77353105D01*
X100648140Y-77518650D01*
X100600485Y-77612179D01*
X100552510Y-77662975D01*
X100484689Y-77679770D01*
X100418554Y-77657232D01*
X100379515Y-77612179D01*
X100331859Y-77518650D01*
X100211582Y-77353105D01*
X100211582Y-77353104D01*
X100066895Y-77208417D01*
X99901349Y-77088140D01*
X99719029Y-76995244D01*
X99524413Y-76932009D01*
X99470000Y-76923390D01*
X99470000Y-77884314D01*
X99465606Y-77879920D01*
X99374394Y-77827259D01*
X99272661Y-77800000D01*
X99167339Y-77800000D01*
X99065606Y-77827259D01*
X98974394Y-77879920D01*
X98970000Y-77884314D01*
X98970000Y-76923390D01*
X98915586Y-76932009D01*
X98720970Y-76995244D01*
X98538650Y-77088140D01*
X98373105Y-77208417D01*
X98373104Y-77208417D01*
X98228417Y-77353104D01*
X98228417Y-77353105D01*
X98108140Y-77518650D01*
X98015244Y-77700968D01*
X97963047Y-77861614D01*
X97923609Y-77919289D01*
X97859250Y-77946487D01*
X97790404Y-77934572D01*
X97738928Y-77887328D01*
X97727186Y-77861615D01*
X97699873Y-77777555D01*
X97621232Y-77623212D01*
X97519414Y-77483072D01*
X97396928Y-77360586D01*
X97256788Y-77258768D01*
X97102445Y-77180127D01*
X96937701Y-77126598D01*
X96937699Y-77126597D01*
X96937698Y-77126597D01*
X96799682Y-77104738D01*
X96766611Y-77099500D01*
X96593389Y-77099500D01*
X96560318Y-77104738D01*
X96422302Y-77126597D01*
X96257552Y-77180128D01*
X96103211Y-77258768D01*
X96071336Y-77281927D01*
X95963072Y-77360586D01*
X95963070Y-77360588D01*
X95963069Y-77360588D01*
X95840588Y-77483069D01*
X95840588Y-77483070D01*
X95840586Y-77483072D01*
X95808545Y-77527173D01*
X95738768Y-77623211D01*
X95660128Y-77777552D01*
X95606597Y-77942302D01*
X95579500Y-78113389D01*
X95579500Y-78286610D01*
X95606597Y-78457697D01*
X95606597Y-78457699D01*
X95606598Y-78457701D01*
X95660127Y-78622445D01*
X95738768Y-78776788D01*
X95840586Y-78916928D01*
X95963072Y-79039414D01*
X96103212Y-79141232D01*
X96257555Y-79219873D01*
X96373571Y-79257569D01*
X96431247Y-79297007D01*
X96458445Y-79361365D01*
X96446530Y-79430212D01*
X96399286Y-79481687D01*
X96335253Y-79499500D01*
X95867255Y-79499500D01*
X95800216Y-79479815D01*
X95779574Y-79463181D01*
X95148969Y-78832576D01*
X95115484Y-78771253D01*
X95120468Y-78701561D01*
X95126166Y-78688600D01*
X95159869Y-78622453D01*
X95159870Y-78622452D01*
X95159872Y-78622447D01*
X95159873Y-78622445D01*
X95213402Y-78457701D01*
X95240500Y-78286611D01*
X95240500Y-78113389D01*
X95213402Y-77942299D01*
X95159873Y-77777555D01*
X95081232Y-77623212D01*
X94979414Y-77483072D01*
X94856928Y-77360586D01*
X94716788Y-77258768D01*
X94562445Y-77180127D01*
X94397701Y-77126598D01*
X94397699Y-77126597D01*
X94397698Y-77126597D01*
X94259682Y-77104738D01*
X94226611Y-77099500D01*
X94053389Y-77099500D01*
X94020318Y-77104738D01*
X93882302Y-77126597D01*
X93717552Y-77180128D01*
X93563211Y-77258768D01*
X93531336Y-77281927D01*
X93423072Y-77360586D01*
X93423070Y-77360588D01*
X93423069Y-77360588D01*
X93300588Y-77483069D01*
X93300588Y-77483070D01*
X93300586Y-77483072D01*
X93268545Y-77527173D01*
X93198768Y-77623211D01*
X93120128Y-77777552D01*
X93066597Y-77942302D01*
X93039500Y-78113389D01*
X93039500Y-78286610D01*
X93066597Y-78457697D01*
X93066597Y-78457699D01*
X93066598Y-78457701D01*
X93120127Y-78622445D01*
X93198768Y-78776788D01*
X93300586Y-78916928D01*
X93423072Y-79039414D01*
X93563212Y-79141232D01*
X93717555Y-79219873D01*
X93882299Y-79273402D01*
X94053389Y-79300500D01*
X94053390Y-79300500D01*
X94226610Y-79300500D01*
X94226611Y-79300500D01*
X94386498Y-79275176D01*
X94455789Y-79284130D01*
X94493575Y-79309968D01*
X95021426Y-79837819D01*
X95054911Y-79899142D01*
X95049927Y-79968834D01*
X95008055Y-80024767D01*
X94942591Y-80049184D01*
X94933745Y-80049500D01*
X94067254Y-80049500D01*
X94000215Y-80029815D01*
X93979573Y-80013181D01*
X92736818Y-78770426D01*
X92703333Y-78709103D01*
X92700499Y-78682745D01*
X92700499Y-77355143D01*
X92700499Y-77355136D01*
X92700497Y-77355117D01*
X92697586Y-77330012D01*
X92697585Y-77330010D01*
X92697585Y-77330009D01*
X92652206Y-77227235D01*
X92572765Y-77147794D01*
X92541538Y-77134006D01*
X92469992Y-77102415D01*
X92444865Y-77099500D01*
X90755143Y-77099500D01*
X90755117Y-77099502D01*
X90730012Y-77102413D01*
X90730008Y-77102415D01*
X90627235Y-77147793D01*
X90547794Y-77227234D01*
X90502415Y-77330006D01*
X90502415Y-77330008D01*
X90499500Y-77355131D01*
X82100500Y-77355131D01*
X82100500Y-68924500D01*
X82120185Y-68857461D01*
X82172989Y-68811706D01*
X82224500Y-68800500D01*
X146975500Y-68800500D01*
X147042539Y-68820185D01*
G37*
%TD.AperFunction*%
%TD*%
M02*
